<?xml version="1.0" encoding="utf-8"?> <!-- Generator: IcoMoon.io --> <!DOCTYPE svg PUBLIC "-//W3C//DTD SVG 1.1//EN" "http://www.w3.org/Graphics/SVG/1.1/DTD/svg11.dtd"> <svg width="496" height="112" viewBox="0 0 496 112" fill="#777777" xmlns="http://www.w3.org/2000/svg" xmlns:xlink="http://www.w3.org/1999/xlink"><path d="M 9.143,12.277l0.00-1.696 q0.00-0.125 -0.085-0.21t-0.201-0.085l-1.714,0.00 q-0.116,0.00 -0.201,0.085t-0.085,0.21l0.00,1.696 q0.00,0.125 0.085,0.21t 0.201,0.085l 1.714,0.00 q 0.116,0.00 0.201-0.085t 0.085-0.21zM 9.125,8.938l 0.161-4.098q0.00-0.107 -0.089-0.17q-0.116-0.098 -0.214-0.098l-1.964,0.00 q-0.098,0.00 -0.214,0.098q-0.089,0.063 -0.089,0.188l 0.152,4.08q0.00,0.089 0.089,0.147t 0.214,0.058l 1.652,0.00 q 0.125,0.00 0.21-0.058t 0.094-0.147zM 9.00,0.598l 6.857,12.571q 0.313,0.563 -0.018,1.125q-0.152,0.259 -0.415,0.411t-0.567,0.152l-13.714,0.00 q-0.304,0.00 -0.567-0.152t-0.415-0.411q-0.33-0.563 -0.018-1.125l 6.857-12.571q 0.152-0.277 0.42-0.438t 0.58-0.161t 0.58,0.161t 0.42,0.438zM 45.545,7.273L 40.727,7.273 L 40.727,2.455 l 1.393,1.393l 5.079-3.047l-3.047,5.079L 45.545,7.273z M 35.372,3.372 c-1.941,1.941-2.404,4.798-1.396,7.18l-0.844,1.533c-1.828-3.071-1.431-7.10, 1.212-9.743s 6.671-3.041, 9.742-1.212l-1.532,0.844 C 40.169,0.967, 37.313,1.43, 35.372,3.372z M 34.455,8.727L 39.273,8.727 l0.00,4.818 l-1.393-1.393l-5.079,3.047l 3.047-5.079L 34.455,8.727z M 44.628,12.628 c 1.95-1.949, 2.407-4.82, 1.383-7.209l 0.846-1.524c 1.842,3.073, 1.448,7.114-1.20,9.762c-2.649,2.649-6.689,3.043-9.762,1.20 l 1.524-0.846C 39.807,15.036, 42.679,14.578, 44.628,12.628zM 78.545,13.818L 65.455,13.818 c-0.803,0.00-1.455-0.652-1.455-1.455L 64.00,3.636 c0.00-0.803, 0.652-1.455, 1.455-1.455l 13.091,0.00 c 0.803,0.00, 1.455,0.652, 1.455,1.455l0.00,8.727 C 80.00,13.167, 79.348,13.818, 78.545,13.818z M 77.818,12.364l-4.169-3.648L 72.00,10.182l-1.649-1.466L 66.182,12.364L 77.818,12.364 z M 65.455,11.636l 4.091-3.636L 65.455,4.364L 65.455,11.636 z M 66.182,3.636l 5.818,5.091l 5.818-5.091L 66.182,3.636 z M 78.545,4.364 l-4.091,3.636L 78.545,11.636L 78.545,4.364 zM 105.286,1.606L 104.667,6.437C 104.667,6.933, 105.067,7.333, 105.563,7.333l 4.83-0.62 c 0.143-0.02, 0.287-0.087, 0.397-0.20c 0.28-0.28, 0.28-0.73,0.00-1.01l-0.807-0.807l 1.793-1.79c 0.297-0.297, 0.297-0.777,0.00-1.073L 110.167,0.223 c-0.297-0.297-0.777-0.297-1.074,0.00L 107.303,2.013l-0.807-0.803c-0.28-0.28-0.73-0.28-1.01,0.00C 105.373,1.32, 105.307,1.463, 105.286,1.606z M 102.713,1.606c-0.02-0.143-0.087-0.286-0.20-0.396c-0.28-0.28-0.73-0.28-1.01,0.00l-0.807,0.803L 98.907,0.223c-0.297-0.297-0.777-0.297-1.073,0.00 L 96.223,1.833c-0.297,0.297-0.297,0.777,0.00,1.073l 1.793,1.79l-0.807,0.807c-0.28,0.28-0.28,0.73,0.00,1.01c 0.11,0.113, 0.253,0.18, 0.396,0.20 L 102.437,7.333C 102.933,7.333, 103.333,6.933, 103.333,6.437L 102.713,1.606z M 105.286,14.394c 0.02,0.143, 0.087,0.286, 0.20,0.396c 0.28,0.28, 0.73,0.28, 1.01,0.00 l 0.807-0.803l 1.79,1.79c 0.297,0.297, 0.777,0.297, 1.074,0.00l 1.61-1.61c 0.297-0.297, 0.297-0.777,0.00-1.073l-1.793-1.79l 0.807-0.807 c 0.28-0.28, 0.28-0.73,0.00-1.01c-0.11-0.113-0.254-0.18-0.397-0.20L 105.563,8.667C 105.067,8.667, 104.667,9.067, 104.667,9.563L 105.286,14.394z M 102.713,14.394 L 103.333,9.563C 103.333,9.067, 102.933,8.667, 102.437,8.667L 97.606,9.287c-0.143,0.02-0.286,0.087-0.396,0.20c-0.28,0.28-0.28,0.73,0.00,1.01l 0.807,0.807 l-1.793,1.79c-0.297,0.297-0.297,0.777,0.00,1.073l 1.61,1.61c 0.297,0.297, 0.777,0.297, 1.073,0.00l 1.79-1.79l 0.807,0.803c 0.28,0.28, 0.73,0.28, 1.01,0.00 C 102.627,14.68, 102.693,14.537, 102.713,14.394zM 135.75,14.75c-3.59,0.00-6.50-2.91-6.50-6.50s 2.91-6.50, 6.50-6.50s 6.50,2.91, 6.50,6.50 S 139.34,14.75, 135.75,14.75z M 138.969,7.969c0.00-0.276-0.224-0.50-0.50-0.50l-2.00,0.00 l0.00-2.00 c0.00-0.276-0.224-0.50-0.50-0.50l-0.50,0.00 c-0.277,0.00-0.50,0.224-0.50,0.50l0.00,2.00 l-2.00,0.00 c-0.277,0.00-0.50,0.224-0.50,0.50l0.00,0.50 c0.00,0.277, 0.224,0.50, 0.50,0.50l 2.00,0.00 l0.00,2.00 c0.00,0.277, 0.224,0.50, 0.50,0.50l 0.50,0.00 c 0.277,0.00, 0.50-0.224, 0.50-0.50l0.00-2.00 l 2.00,0.00 c 0.276,0.00, 0.50-0.224, 0.50-0.50L 138.969,7.969 zM 167.75,1.75c-3.59,0.00-6.50,2.91-6.50,6.50s 2.91,6.50, 6.50,6.50c 3.59,0.00, 6.50-2.91, 6.50-6.50 S 171.34,1.75, 167.75,1.75z M 171.00,8.438c0.00,0.277-0.224,0.50-0.50,0.50L 165.00,8.938 c-0.277,0.00-0.50-0.224-0.50-0.50l0.00-0.50 c0.00-0.276, 0.224-0.50, 0.50-0.50l 5.50,0.00 c 0.276,0.00, 0.50,0.224, 0.50,0.50 L 171.00,8.438 zM 204.501,4.197l0.00,6.266 l 2.019,0.00 l0.00,2.019 L 195.491,12.483 L 195.491,1.516 l 2.019,0.00 l0.00,1.988 L 203.725,3.505 l 2.32-2.32 l 0.703,0.703L 204.501,4.197z M 197.511,5.492L 197.511,9.75 l 4.226-4.258L 197.511,5.492 z M 202.482,6.185l-4.309,4.279l 4.309,0.00 L 202.482,6.185 z M 193.503,3.505l 1.522,0.00 l0.00,1.988 L 193.503,5.493 L 193.503,3.505 z M 204.501,14.471l-2.019,0.00 L 202.482,12.98 l 2.019,0.00 L 204.501,14.471 zM 232.451,3.002l 4.563,0.00 l-0.01,4.614l-1.565-1.564l-1.474,1.474 c 0.331,0.582, 0.521,1.254, 0.521,1.97c0.00,2.209-1.79,4.00-4.00,4.00c-2.209,0.00-4.00-1.791-4.00-4.00c0.00-2.209, 1.791-4.00, 4.00-4.00c 0.762,0.00, 1.473,0.217, 2.08,0.588 l 1.459-1.478L 232.451,3.002z M 228.487,9.498c0.00,1.105, 0.895,2.00, 2.00,2.00s 2.00-0.895, 2.00-2.00s-0.895-2.00-2.00-2.00S 228.487,8.393, 228.487,9.498zM 265.02,9.361l0.00,1.647 l 1.998,0.00 l0.00,1.998 l-1.998,0.00 l0.00,1.998 l-2.029,0.00 L 262.991,13.005 L 260.994,13.005 l0.00-1.998 l 1.998,0.00 l0.00-1.653 c-1.718-0.448-2.986-2.005-2.986-3.861c0.00-2.207, 1.789-3.995, 3.995-3.995c 2.207,0.00, 3.995,1.789, 3.995,3.995 C 267.995,7.357, 266.747,8.919, 265.02,9.361z M 264.00,3.495c-1.103,0.00-1.998,0.894-1.998,1.998c0.00,1.103, 0.894,1.998, 1.998,1.998 c 1.103,0.00, 1.998-0.894, 1.998-1.998C 265.998,4.389, 265.104,3.495, 264.00,3.495zM 301.249,2.75c-1.154-1.154-2.02-0.982-2.02-0.982L 295.186,5.811L 290.568,10.43L 289.76,14.24l 3.81-0.808l 4.618-4.618l 4.042-4.042 C 302.23,4.772, 302.404,3.906, 301.249,2.75z M 293.343,12.974l-1.298,0.28c-0.126-0.234-0.277-0.469-0.553-0.746 c-0.276-0.276-0.511-0.426-0.746-0.552l 0.281-1.299l 0.375-0.375c0.00,0.00, 0.707,0.014, 1.505,0.812c 0.798,0.798, 0.813,1.506, 0.813,1.506 L 293.343,12.974zM 335.20,13.44c0.00,0.00-1.60-7.786-8.62-7.786L 326.58,2.56 L 320.80,7.724l 5.78,5.353l0.00-3.486 C 330.39,9.59, 333.214,9.928, 335.20,13.44zM 361.42,9.59l0.00,3.486 L 367.20,7.724L 361.42,2.56l0.00,3.093 C 354.40,5.653, 352.80,13.44, 352.80,13.44C 354.786,9.928, 357.61,9.59, 361.42,9.59zM 395.856,11.558c-1.972-0.718-2.602-1.325-2.602-2.623c0.00-0.779, 0.602-0.525, 0.866-1.952c 0.11-0.592, 0.642-0.01, 0.744-1.361 c0.00-0.538-0.29-0.673-0.29-0.673s 0.148-0.798, 0.206-1.41C 394.85,2.774, 394.338,0.80, 391.60,0.80C 388.863,0.80, 388.35,2.774, 388.422,3.539 C 388.479,4.152, 388.627,4.95, 388.627,4.95S 388.336,5.083, 388.336,5.622c 0.102,1.351, 0.634,0.769, 0.743,1.361 c 0.265,1.427, 0.867,1.173, 0.867,1.952c0.00,1.298-0.63,1.905-2.602,2.623c-1.979,0.72-3.264,1.455-3.264,1.957c0.00,0.501,0.00,1.684,0.00,1.684 l 7.52,0.00 l 7.52,0.00 c0.00,0.00,0.00-1.183,0.00-1.684C 399.12,13.014, 397.834,12.279, 395.856,11.558zM 425.902,11.558C 423.909,10.84, 423.272,10.234, 423.272,8.935c0.00-0.779, 0.609-0.525, 0.876-1.952c 0.111-0.592, 0.649-0.01, 0.75-1.361 c0.00-0.538-0.293-0.673-0.293-0.673s 0.15-0.798, 0.207-1.41C 424.885,2.774, 424.366,0.80, 421.60,0.80S 418.315,2.774, 418.387,3.539 c 0.058,0.614, 0.208,1.41, 0.208,1.41S 418.302,5.083, 418.302,5.622c 0.103,1.351, 0.641,0.769, 0.75,1.361 c 0.268,1.427, 0.877,1.173, 0.877,1.952c0.00,1.298-0.638,1.905-2.63,2.623c-0.24,0.086-0.812,0.22-1.298,0.43L 416.00,15.20 l 12.80,0.00 c0.00,0.00,0.00-1.183,0.00-1.684S 427.902,12.279, 425.902,11.558z M 429.60,7.20L 429.60,4.80 l-1.60,0.00 l0.00,2.40 l-2.40,0.00 l0.00,1.60 l 2.40,0.00 l0.00,2.40 l 1.60,0.00 l0.00-2.40 l 2.40,0.00 L 432.00,7.20 L 429.60,7.20 zM 462.40,1.60L 449.60,1.60 C 448.72,1.60, 448.00,2.32, 448.00,3.20l0.00,9.60 c0.00,0.88, 0.72,1.60, 1.60,1.60l 12.80,0.00 c 0.881,0.00, 1.60-0.72, 1.60-1.60L 464.00,3.20 C 464.00,2.32, 463.281,1.60, 462.40,1.60z M 462.40,12.80L 449.60,12.80 L 449.60,3.20 l 12.80,0.00 L 462.40,12.80 z M 455.20,9.68L 451.20,9.68 L 451.20,11.12 l 4.00,0.00 L 455.20,9.68 z M 455.20,7.28L 451.20,7.28 l0.00,1.44 l 4.00,0.00 L 455.20,7.28 z M 455.20,4.88L 451.20,4.88 l0.00,1.44 l 4.00,0.00 L 455.20,4.88 z M 460.72,10.00c0.00,0.00-1.36-0.355-1.36-1.054c0.00-0.666, 0.881-0.946, 0.881-2.306 c0.00-1.104-0.336-1.76-1.441-1.76s-1.44,0.655-1.44,1.76c0.00,1.36, 0.88,1.64, 0.88,2.306c0.00,0.699-1.359,1.054-1.359,1.054C 456.80,10.00, 456.80,11.12, 456.80,11.12 l 4.00,0.00 C 460.80,11.12, 460.80,10.00, 460.72,10.00zM 488.00,1.60C 485.79,1.60, 484.00,3.391, 484.00,5.60c0.00,3.819, 4.00,8.80, 4.00,8.80s 4.00-4.981, 4.00-8.80C 492.00,3.391, 490.21,1.60, 488.00,1.60z M 488.00,7.808c-1.193,0.00-2.16-0.967-2.16-2.16 s 0.967-2.16, 2.16-2.16s 2.16,0.967, 2.16,2.16S 489.193,7.808, 488.00,7.808zM 15.746,36.019l-3.739-2.342c-0.166-0.104-0.373-0.104-0.538,0.00L 8.00,35.85L 4.531,33.678c-0.166-0.104-0.373-0.104-0.538,0.00 L 0.254,36.019C 0.097,36.118,0.00,36.296,0.00,36.487l0.00,9.366 c0.00,0.197, 0.101,0.379, 0.266,0.476s 0.366,0.094, 0.527-0.007l 3.469-2.173l 3.469,2.173 c 0.166,0.104, 0.373,0.104, 0.539,0.00l 3.469-2.173l 3.469,2.173C 15.29,46.374, 15.383,46.40, 15.477,46.40c 0.089,0.00, 0.178-0.024, 0.258-0.071 C 15.898,46.232, 16.00,46.05, 16.00,45.853L 16.00,36.487 C 16.00,36.296, 15.903,36.118, 15.746,36.019z M 3.738,43.202L 1.046,44.888L 1.046,36.797 l 2.692-1.686L 3.738,43.202 z M 7.477,44.888l-2.692-1.686L 4.785,35.111 l 2.692,1.686L 7.477,44.888 z M 11.215,43.202l-2.691,1.686L 8.524,36.797 l 2.691-1.686L 11.215,43.202 z M 14.953,44.888 l-2.691-1.686L 12.262,35.111 l 2.691,1.686L 14.953,44.888 zM 44.00,42.40c-0.55,0.00-1.054,0.186-1.459,0.498l-4.175-2.505C 38.386,40.265, 38.40,40.134, 38.40,40.00c0.00-0.134-0.014-0.265-0.034-0.393 l 4.175-2.505C 42.946,37.414, 43.45,37.60, 44.00,37.60c 1.325,0.00, 2.40-1.074, 2.40-2.40s-1.075-2.40-2.40-2.40s-2.40,1.074-2.40,2.40c0.00,0.134, 0.014,0.265, 0.035,0.393 L 37.46,38.098C 37.055,37.786, 36.55,37.60, 36.00,37.60c-1.326,0.00-2.40,1.074-2.40,2.40c0.00,1.325, 1.074,2.40, 2.40,2.40c 0.55,0.00, 1.055-0.186, 1.46-0.498l 4.175,2.505 C 41.614,44.535, 41.60,44.666, 41.60,44.80c0.00,1.325, 1.075,2.40, 2.40,2.40s 2.40-1.075, 2.40-2.40S 45.325,42.40, 44.00,42.40zM 68.64,41.76L 68.64,36.80 L 65.60,36.80 C 64.72,36.80, 64.00,37.52, 64.00,38.40l0.00,4.80 c0.00,0.88, 0.72,1.60, 1.60,1.60l 0.80,0.00 l0.00,2.40 l 2.40-2.40l 4.00,0.00 c 0.88,0.00, 1.60-0.72, 1.60-1.60l0.00-1.456 c-0.051,0.011-0.106,0.017-0.16,0.017L 68.64,41.761 z M 78.40,32.80L 71.20,32.80 C 70.32,32.80, 69.60,33.52, 69.60,34.40l0.00,6.40 l 5.60,0.00 l 2.40,2.40l0.00-2.40 l 0.80,0.00 c 0.88,0.00, 1.60-0.72, 1.60-1.60L 80.00,34.40 C 80.00,33.52, 79.28,32.80, 78.40,32.80zM 108.80,34.40L 99.20,34.40 C 98.32,34.40, 97.60,35.12, 97.60,36.00l0.00,5.60 c0.00,0.88, 0.72,1.60, 1.60,1.60l 3.20,0.00 l 3.20,2.40l0.00-2.40 l 3.20,0.00 c 0.88,0.00, 1.60-0.72, 1.60-1.60L 110.40,36.00 C 110.40,35.12, 109.68,34.40, 108.80,34.40zM 143.016,40.24l-6.419-6.425c-0.328-0.341-0.865-0.341-1.193,0.00L 128.984,40.24c-0.329,0.34-0.206,0.619, 0.272,0.619l 1.338,0.00 l0.00,4.934 c0.00,0.356, 0.015,0.647, 0.659,0.647l 3.116,0.00 l0.00-4.95 l 3.26,0.00 l0.00,4.95 l 3.271,0.00 c 0.491,0.00, 0.505-0.29, 0.505-0.647l0.00-4.934 l 1.338,0.00 C 143.221,40.859, 143.344,40.581, 143.016,40.24zM 174.036,44.374l-3.023-3.023c 0.456-0.75, 0.718-1.628, 0.718-2.57c0.00-2.733-2.369-5.102-5.102-5.102 C 163.896,33.68, 161.68,35.896, 161.68,38.629c0.00,2.734, 2.368,5.102, 5.102,5.102c 0.909,0.00, 1.76-0.246, 2.492-0.674l 3.039,3.04 c 0.298,0.298, 0.78,0.298, 1.077,0.00l 0.754-0.754C 174.441,45.046, 174.333,44.671, 174.036,44.374z M 163.203,38.629 c0.00-1.892, 1.534-3.426, 3.426-3.426c 1.893,0.00, 3.579,1.686, 3.579,3.579s-1.534,3.426-3.426,3.426S 163.203,40.522, 163.203,38.629zM 205.428,40.00c0.00-0.838, 0.516-1.50, 1.292-1.954c-0.141-0.467-0.325-0.916-0.553-1.338c-0.872,0.228-1.577-0.114-2.169-0.706 c-0.594-0.593-0.775-1.298-0.547-2.169c-0.422-0.228-0.869-0.414-1.338-0.554C 201.659,34.057, 200.838,34.573, 200.00,34.573 c-0.838,0.00-1.658-0.516-2.114-1.293C 197.418,33.419, 196.97,33.606, 196.549,33.833C 196.776,34.704, 196.595,35.41, 196.002,36.002 C 195.41,36.594, 194.704,36.936, 193.834,36.709C 193.606,37.13, 193.42,37.578, 193.28,38.046C 194.057,38.50, 194.573,39.162, 194.573,40.00 c0.00,0.838-0.516,1.659-1.293,2.114c 0.14,0.468, 0.326,0.916, 0.554,1.338c 0.871-0.228, 1.576-0.046, 2.169,0.546 c 0.593,0.593, 0.774,1.298, 0.546,2.169c 0.422,0.228, 0.87,0.414, 1.338,0.554c 0.455-0.778, 1.276-1.293, 2.114-1.293 c 0.838,0.00, 1.66,0.516, 2.114,1.293c 0.469-0.14, 0.916-0.326, 1.338-0.554c-0.228-0.871-0.047-1.576, 0.547-2.169 c 0.592-0.592, 1.297-0.934, 2.169-0.706c 0.228-0.422, 0.413-0.87, 0.553-1.338C 205.944,41.499, 205.428,40.838, 205.428,40.00z M 200.00,42.922 c-1.614,0.00-2.922-1.309-2.922-2.922S 198.386,37.078, 200.00,37.078c 1.614,0.00, 2.922,1.309, 2.922,2.922S 201.614,42.922, 200.00,42.922zM 232.00,38.40c-1.325,0.00-2.40,1.075-2.40,2.40c0.00,1.326, 1.075,2.40, 2.40,2.40c 1.326,0.00, 2.40-1.074, 2.40-2.40C 234.40,39.475, 233.326,38.40, 232.00,38.40z M 238.40,36.00l-1.919,0.00 c-0.264,0.00-0.549-0.205-0.632-0.455l-0.496-1.489C 235.268,33.805, 234.984,33.60, 234.72,33.60L 229.28,33.60 C 229.016,33.60, 228.731,33.805, 228.649,34.055L 228.151,35.545 C 228.068,35.795, 227.784,36.00, 227.52,36.00L 225.60,36.00 C 224.72,36.00, 224.00,36.72, 224.00,37.60l0.00,7.20 c0.00,0.88, 0.72,1.60, 1.60,1.60l 12.80,0.00 c 0.881,0.00, 1.60-0.72, 1.60-1.60L 240.00,37.60 C 240.00,36.72, 239.281,36.00, 238.40,36.00z M 232.00,44.80 c-2.21,0.00-4.00-1.79-4.00-4.00c0.00-2.209, 1.79-4.00, 4.00-4.00c 2.209,0.00, 4.00,1.791, 4.00,4.00C 236.00,43.01, 234.209,44.80, 232.00,44.80z M 237.84,38.718 c-0.309,0.00-0.559-0.25-0.559-0.56s 0.25-0.56, 0.559-0.56c 0.31,0.00, 0.56,0.25, 0.56,0.56S 238.15,38.718, 237.84,38.718zM 264.00,35.52C 258.751,35.52, 256.00,39.386, 256.00,40.00s 2.751,4.48, 8.00,4.48s 8.00-3.866, 8.00-4.48S 269.249,35.52, 264.00,35.52z M 264.00,43.446 c-1.963,0.00-3.555-1.543-3.555-3.446S 262.037,36.554, 264.00,36.554c 1.964,0.00, 3.556,1.543, 3.556,3.446S 265.964,43.446, 264.00,43.446z M 264.00,40.00 c-0.325-0.357, 0.531-1.722,0.00-1.722c-0.982,0.00-1.778,0.771-1.778,1.722S 263.018,41.723, 264.00,41.723c 0.982,0.00, 1.778-0.772, 1.778-1.723 C 265.778,39.563, 264.278,40.304, 264.00,40.00zM 296.00,32.64c-4.065,0.00-7.36,3.296-7.36,7.36c0.00,4.065, 3.295,7.36, 7.36,7.36s 7.36-3.295, 7.36-7.36C 303.36,35.935, 300.065,32.64, 296.00,32.64z M 296.00,45.76 c-3.182,0.00-5.76-2.579-5.76-5.76S 292.818,34.24, 296.00,34.24s 5.76,2.579, 5.76,5.76S 299.182,45.76, 296.00,45.76zM 296.56,35.84L 295.44,35.84L 295.44,40.232L 298.164,42.956L 298.956,42.164L 296.56,39.768 zM 333.60,34.40l-0.72,0.00 l0.00,1.60 L 330.32,36.00 L 330.32,34.40 L 325.68,34.40 l0.00,1.60 L 323.12,36.00 L 323.12,34.40 L 322.40,34.40 C 321.52,34.40, 320.80,35.12, 320.80,36.00l0.00,9.60 c0.00,0.88, 0.72,1.60, 1.60,1.60l 11.20,0.00 c 0.88,0.00, 1.60-0.72, 1.60-1.60L 335.20,36.00 C 335.20,35.12, 334.48,34.40, 333.60,34.40z M 333.60,45.60L 322.40,45.60 L 322.40,39.20 l 11.20,0.00 L 333.60,45.60 z M 324.96,32.80L 323.84,32.80 l0.00,2.72 l 1.12,0.00 L 324.96,32.80 z M 332.16,32.80l-1.12,0.00 l0.00,2.72 l 1.12,0.00 L 332.16,32.80 zM 364.641,38.402L 363.20,38.402 l0.00-1.12 c0.00-2.318-1.067-3.68-3.20-3.68c-2.132,0.00-3.20,1.362-3.20,3.68l0.00,1.12 L 355.20,38.402 c-0.442,0.00-0.80,0.518-0.80,0.96l0.00,6.24 c0.00,0.44, 0.343,0.911, 0.762,1.046l 0.957,0.31c 0.418,0.135, 1.121,0.246, 1.562,0.246l 4.64,0.00 c 0.44,0.00, 1.143-0.11, 1.562-0.246l 0.957-0.31 C 365.258,46.513, 365.60,46.042, 365.60,45.602l0.00-6.24 C 365.60,38.919, 365.082,38.402, 364.641,38.402z M 358.40,36.962c0.00-1.156, 0.638-1.76, 1.60-1.76 c 0.962,0.00, 1.60,0.604, 1.60,1.76l0.00,1.44 L 358.40,38.402 L 358.40,36.962 zM 392.817,45.60L 386.384,45.60 L 386.384,34.40 l 6.432,0.00 l0.00,2.40 L 394.40,36.80 L 394.40,34.40 c0.00-0.88-0.719-1.60-1.60-1.60L 386.40,32.80 C 385.52,32.80, 384.80,33.52, 384.80,34.40l0.00,11.20 c0.00,0.88, 0.72,1.60, 1.60,1.60l 6.40,0.00 c 0.881,0.00, 1.60-0.72, 1.60-1.60l0.00-1.60 l-1.583,0.00 L 392.817,45.60 z M 399.20,40.40l-3.183-3.12L 396.017,39.20 l-7.20,0.00 l0.00,2.40 l 7.20,0.00 l0.00,1.92 L 399.20,40.40zM 429.60,32.80L 422.40,32.80 C 421.52,32.80, 420.816,33.52, 420.816,34.40l0.00,2.40 L 422.40,36.80 L 422.40,34.40 l 7.20,0.00 l0.00,11.20 L 422.40,45.60 l0.00-1.60 L 420.816,44.00 l0.00,1.60 c0.00,0.88, 0.704,1.60, 1.584,1.60l 7.20,0.00 c 0.88,0.00, 1.60-0.72, 1.60-1.60L 431.20,34.40 C 431.20,33.52, 430.48,32.80, 429.60,32.80z M 424.00,43.52l 3.20-3.12l-3.20-3.12L 424.00,39.20 L 416.80,39.20 l0.00,2.40 l 7.20,0.00 L 424.00,43.52 zM 454.636,45.60c-0.348,0.00-0.678-0.162-0.889-0.442L 450.888,41.383c-0.372-0.491-0.275-1.19, 0.216-1.562 c 0.492-0.373, 1.19-0.275, 1.562,0.216l 1.881,2.483l 4.73-7.593c 0.326-0.522, 1.014-0.682, 1.537-0.357 c 0.522,0.325, 0.682,1.014, 0.356,1.536L 455.583,45.074c-0.194,0.313-0.53,0.509-0.897,0.525C 454.67,45.60, 454.653,45.60, 454.636,45.60zM 491.479,42.522L 489.273,40.00l 2.206-2.522c 0.375-0.375, 0.375-0.983,0.00-1.358c-0.375-0.374-0.983-0.374-1.358,0.00L 488.00,38.546 l-2.121-2.424c-0.375-0.375-0.983-0.375-1.358,0.00c-0.374,0.375-0.374,0.983,0.00,1.358L 486.727,40.00l-2.206,2.522 c-0.374,0.375-0.374,0.982,0.00,1.356c 0.375,0.375, 0.983,0.375, 1.358,0.00L 488.00,41.454l 2.121,2.423c 0.375,0.375, 0.983,0.375, 1.358,0.00 S 491.854,42.897, 491.479,42.522zM 8.00,64.32c-4.242,0.00-7.68,3.438-7.68,7.68s 3.438,7.68, 7.68,7.68c 4.242,0.00, 7.68-3.438, 7.68-7.68S 12.242,64.32, 8.00,64.32z M 12.133,67.869 l-0.002-0.002C 12.131,67.868, 12.133,67.869, 12.133,67.869z M 2.157,72.00c0.00-3.227, 2.616-5.843, 5.843-5.843c 1.403,0.00, 2.691,0.494, 3.699,1.318 L 3.476,75.698C 2.651,74.69, 2.157,73.403, 2.157,72.00z M 3.867,76.131l 0.002,0.002C 3.868,76.132, 3.868,76.132, 3.867,76.131z M 8.00,77.844 c-1.403,0.00-2.69-0.495-3.698-1.319L 12.523,68.302c 0.825,1.007, 1.32,2.294, 1.32,3.698C 13.844,75.227, 11.226,77.844, 8.00,77.844zM 39.902,64.641c-4.064,0.054-7.315,3.394-7.261,7.458c 0.054,4.062, 3.394,7.314, 7.458,7.26 c 4.064-0.054, 7.315-3.394, 7.261-7.458C 47.306,67.838, 43.966,64.586, 39.902,64.641z M 40.718,67.094c 0.748,0.00, 0.969,0.434, 0.969,0.93 c0.00,0.62-0.497,1.194-1.344,1.194c-0.709,0.00-1.046-0.357-1.026-0.946C 39.317,67.775, 39.733,67.094, 40.718,67.094z M 38.799,76.60 c-0.511,0.00-0.886-0.31-0.528-1.675l 0.586-2.419c 0.102-0.388, 0.118-0.543,0.00-0.543c-0.153,0.00-0.817,0.268-1.21,0.532l-0.255-0.418 c 1.244-1.038, 2.674-1.648, 3.287-1.648c 0.511,0.00, 0.596,0.605, 0.341,1.535l-0.672,2.544c-0.118,0.45-0.067,0.605, 0.051,0.605 c 0.153,0.00, 0.656-0.186, 1.15-0.574l 0.289,0.388C 40.63,76.134, 39.311,76.60, 38.799,76.60zM 71.902,64.641c-4.065,0.054-7.316,3.394-7.262,7.458c 0.054,4.062, 3.394,7.314, 7.458,7.26 c 4.063-0.054, 7.315-3.394, 7.26-7.458C 79.306,67.838, 75.966,64.586, 71.902,64.641z M 71.881,76.48L 71.84,76.48 c-0.626-0.018-1.067-0.48-1.05-1.097 c 0.018-0.606, 0.47-1.046, 1.075-1.046l 0.037,0.001c 0.643,0.019, 1.08,0.476, 1.061,1.11C 72.946,76.055, 72.50,76.48, 71.881,76.48z M 74.514,71.254c-0.148,0.209-0.471,0.469-0.879,0.786l-0.45,0.31c-0.246,0.192-0.395,0.372-0.45,0.549 c-0.045,0.141-0.066,0.177-0.07,0.461l-0.001,0.073L 70.95,73.434 l 0.005-0.146c 0.021-0.597, 0.036-0.947, 0.283-1.238 c 0.388-0.455, 1.244-1.006, 1.28-1.03c 0.122-0.093, 0.226-0.198, 0.303-0.31c 0.18-0.248, 0.259-0.444, 0.259-0.635 c0.00-0.266-0.079-0.513-0.235-0.732c-0.15-0.212-0.436-0.319-0.849-0.319c-0.41,0.00-0.69,0.13-0.858,0.397 C 70.965,69.696, 70.878,69.983, 70.878,70.278l0.00,0.074 l-1.768,0.00 l 0.003-0.077c 0.046-1.083, 0.432-1.862, 1.149-2.318C 70.712,67.666, 71.272,67.52, 71.925,67.52 c 0.855,0.00, 1.578,0.208, 2.146,0.618c 0.576,0.415, 0.868,1.038, 0.868,1.849C 74.939,70.441, 74.796,70.867, 74.514,71.254zM 111.61,78.386L 104.483,65.881C 104.385,65.708, 104.20,65.602, 104.00,65.602c-0.20,0.00-0.384,0.106-0.483,0.279L 96.391,78.386 c-0.097,0.17-0.095,0.377, 0.004,0.545s 0.282,0.271, 0.478,0.271l 14.252,0.00 c 0.195,0.00, 0.378-0.103, 0.478-0.271 C 111.703,78.762, 111.705,78.555, 111.61,78.386z M 104.88,77.602L 103.12,77.602 l0.00-1.60 l 1.76,0.00 L 104.88,77.602 z M 104.88,74.802L 103.12,74.802 l0.00-4.80 l 1.76,0.00 L 104.88,74.802 zM 133.60,71.20L 128.80,71.20 c-0.442,0.00-0.80,0.358-0.80,0.80s 0.358,0.80, 0.80,0.80l 4.80,0.00 c 0.442,0.00, 0.80-0.358, 0.80-0.80S 134.042,71.20, 133.60,71.20z M 133.60,74.40L 128.80,74.40 c-0.442,0.00-0.80,0.358-0.80,0.80s 0.358,0.80, 0.80,0.80l 4.80,0.00 c 0.442,0.00, 0.80-0.358, 0.80-0.80S 134.042,74.40, 133.60,74.40z M 143.52,71.20L 140.80,71.20 L 140.80,68.48 C 140.80,68.038, 140.442,68.00, 140.00,68.00s-0.80,0.038-0.80,0.48L 139.20,71.20 l-2.64,0.00 C 136.118,71.20, 136.08,71.558, 136.08,72.00 s 0.038,0.80, 0.481,0.80L 139.20,72.80 l0.00,2.72 c0.00,0.442, 0.358,0.48, 0.80,0.48s 0.80-0.038, 0.80-0.48L 140.80,72.80 l 2.72,0.00 c 0.442,0.00, 0.48-0.358, 0.48-0.80S 143.962,71.20, 143.52,71.20z M 133.60,68.00L 128.80,68.00 C 128.358,68.00, 128.00,68.358, 128.00,68.80s 0.358,0.80, 0.80,0.80l 4.80,0.00 c 0.442,0.00, 0.80-0.358, 0.80-0.80S 134.042,68.00, 133.60,68.00zM 172.80,71.20L 163.20,71.20 c-0.442,0.00-0.80,0.358-0.80,0.80s 0.358,0.80, 0.80,0.80l 9.60,0.00 c 0.442,0.00, 0.80-0.358, 0.80-0.80S 173.242,71.20, 172.80,71.20z M 163.20,69.60l 9.60,0.00 c 0.442,0.00, 0.80-0.358, 0.80-0.80 s-0.358-0.80-0.80-0.80L 163.20,68.00 C 162.758,68.00, 162.40,68.358, 162.40,68.80S 162.758,69.60, 163.20,69.60z M 172.80,74.40L 163.20,74.40 c-0.442,0.00-0.80,0.358-0.80,0.80s 0.358,0.80, 0.80,0.80l 9.60,0.00 c 0.442,0.00, 0.80-0.358, 0.80-0.80 S 173.242,74.40, 172.80,74.40zM 197.778,72.696l 4.48,0.00 l0.00-1.44 l-4.48,0.00 L 197.778,72.696 z M 204.00,64.80L 196.00,64.80 C 195.12,64.80, 194.40,65.52, 194.40,66.40l0.00,11.20 c0.00,0.88, 0.72,1.60, 1.60,1.60l 8.00,0.00 c 0.88,0.00, 1.60-0.72, 1.60-1.60L 205.60,66.40 C 205.60,65.52, 204.88,64.80, 204.00,64.80z M 204.00,77.60L 196.00,77.60 L 196.00,66.40 l 8.00,0.00 L 204.00,77.60 z M 202.24,68.135L 197.76,68.135 l0.00,1.40 l 4.48,0.00 L 202.24,68.135 z M 202.24,74.416L 197.76,74.416 l0.00,1.40 l 4.48,0.00 L 202.24,74.416 zM 237.70,69.738l-1.637-4.509c-0.121-0.333-0.476-0.509-0.791-0.394L 224.394,68.806C 224.078,68.921 223.919,69.284, 224.04,69.617 l 1.726,4.754L 225.766,71.822 c0.00-1.15, 0.918-2.084, 2.049-2.084l 2.874,0.00 l 3.428-2.406l 1.984,2.406L 237.70,69.738 z M 239.39,71.182L 227.814,71.182 c-0.336,0.00-0.61,0.287-0.61,0.642l0.00,7.537 c0.00,0.354, 0.273,0.642, 0.61,0.642l 11.576,0.00 c 0.337,0.00, 0.61-0.287, 0.61-0.642L 240.00,71.822 C 240.00,71.469, 239.727,71.182, 239.39,71.182z M 238.507,78.398L 228.911,78.398 l0.00-1.375 l 1.476-3.436l 2.215,2.75l 2.078-2.13l 2.671-0.964l 1.156,2.578 L 238.507,78.398 zM 258.711,70.33l 0.882,7.767C 259.64,78.466, 261.421,79.678, 264.00,79.68c 2.579-0.002, 4.361-1.214, 4.408-1.583l 0.882-7.767 C 267.942,71.083, 265.929,71.44, 264.00,71.44S 260.058,71.083, 258.711,70.33z M 266.534,65.53l-0.687-0.762C 265.582,64.39, 265.294,64.32, 264.733,64.32L 263.267,64.32 c-0.56,0.00-0.848,0.07-1.114,0.447L 261.467,65.53C 259.411,65.889, 257.92,66.842, 257.92,67.544l0.00,0.137 c0.00,1.237, 2.722,2.24, 6.08,2.24s 6.08-1.003, 6.08-2.24 L 270.08,67.544 C 270.08,66.842, 268.59,65.889, 266.534,65.53z M 265.655,67.311L 264.654,66.24L 263.346,66.24 L 262.345,67.311L 260.985,67.311 c0.00,0.00, 1.49-1.776, 1.689-2.017 C 262.826,65.11, 262.982,65.04, 263.183,65.04l 1.634,0.00 c 0.202,0.00, 0.357,0.07, 0.51,0.254c 0.198,0.241, 1.689,2.017, 1.689,2.017L 265.655,67.311 zM 300.138,65.60L 291.20,65.60 C 290.32,65.60, 289.60,66.32, 289.60,67.20l0.00,9.60 c0.00,0.88, 0.72,1.60, 1.60,1.60l 9.60,0.00 c 0.88,0.00, 1.60-0.72, 1.60-1.60L 302.40,68.102 L 300.138,65.60z M 299.20,70.40c0.00,0.44-0.36,0.80-0.80,0.80L 293.60,71.20 C 293.16,71.20, 292.80,70.84, 292.80,70.40L 292.80,66.40 l 6.40,0.00 L 299.20,70.40 z M 298.40,67.20l-1.60,0.00 l0.00,3.20 l 1.60,0.00 L 298.40,67.20 zM 329.15,67.613c-0.334,0.326-3.602,3.757-3.602,3.757C 325.37,71.544, 325.281,71.772, 325.281,72.00s 0.089,0.456, 0.267,0.63 c0.00,0.00, 3.267,3.43, 3.602,3.756c 0.334,0.326, 0.936,0.349, 1.293,0.00c 0.356-0.348, 0.384-0.834-0.001-1.26L 327.444,72.00l 2.998-3.126 c 0.385-0.427, 0.357-0.913, 0.001-1.261C 330.085,67.265, 329.483,67.286, 329.15,67.613zM 364.386,70.85c-0.326,0.334-3.756,3.602-3.756,3.602C 360.456,74.631, 360.228,74.72, 360.00,74.72c-0.229,0.00-0.457-0.089-0.63-0.267 c0.00,0.00-3.43-3.268-3.757-3.602c-0.326-0.334-0.348-0.935,0.00-1.293c 0.349-0.357, 0.834-0.385, 1.261,0.00L 360.00,72.556l 3.126-2.998 c 0.427-0.385, 0.914-0.357, 1.261,0.00C 364.735,69.915, 364.714,70.517, 364.386,70.85zM 396.386,73.15c-0.326-0.334-3.756-3.602-3.756-3.602C 392.456,69.37, 392.228,69.28, 392.00,69.28c-0.229,0.00-0.457,0.09-0.63,0.268 c0.00,0.00-3.43,3.267-3.757,3.602c-0.326,0.334-0.348,0.936,0.00,1.293c 0.349,0.356, 0.834,0.385, 1.261,0.00L 392.00,71.445l 3.126,2.998 c 0.427,0.385, 0.914,0.356, 1.261,0.00C 396.735,74.085, 396.714,73.483, 396.386,73.15zM 422.85,67.613c 0.334,0.326, 3.602,3.757, 3.602,3.757C 426.631,71.544, 426.72,71.772, 426.72,72.00s-0.089,0.456-0.268,0.63 c0.00,0.00-3.267,3.43-3.602,3.756c-0.334,0.326-0.935,0.349-1.293,0.00c-0.357-0.348-0.385-0.834,0.00-1.26L 424.556,72.00L 421.558,68.874 c-0.385-0.427-0.357-0.913,0.00-1.261C 421.915,67.265, 422.517,67.286, 422.85,67.613zM 456.00,70.24c-0.972,0.00-1.76,0.788-1.76,1.76s 0.788,1.76, 1.76,1.76s 1.76-0.788, 1.76-1.76S 456.972,70.24, 456.00,70.24zM 495.36,67.434c-0.542,0.241-1.124,0.402-1.735,0.476c 0.624-0.374, 1.103-0.966, 1.328-1.67c-0.583,0.346-1.23,0.598-1.917,0.733 c-0.551-0.587-1.336-0.954-2.205-0.954c-1.668,0.00-3.02,1.352-3.02,3.019c0.00,0.237, 0.026,0.467, 0.078,0.688 c-2.51-0.126-4.735-1.328-6.224-3.155C 481.405,67.017, 481.255,67.536, 481.255,68.09c0.00,1.048, 0.534,1.972, 1.344,2.514 c-0.495-0.016-0.961-0.151-1.368-0.378c0.00,0.013,0.00,0.025,0.00,0.038c0.00,1.463, 1.042,2.683, 2.422,2.962c-0.253,0.069-0.52,0.106-0.796,0.106 c-0.194,0.00-0.383-0.018-0.568-0.054c 0.384,1.20, 1.50,2.073, 2.821,2.097c-1.034,0.81-2.335,1.293-3.75,1.293 c-0.244,0.00-0.484-0.014-0.72-0.042c 1.336,0.857, 2.923,1.357, 4.63,1.357c 5.554,0.00, 8.592-4.602, 8.592-8.593 c0.00-0.13-0.002-0.261-0.009-0.39C 494.443,68.572, 494.954,68.04, 495.36,67.434zM 13.16,97.12L 2.84,97.12 C 1.894,97.12, 1.12,97.894, 1.12,98.84l0.00,10.32 c0.00,0.946, 0.774,1.719, 1.719,1.719l 5.219,0.00 l0.00-4.934 l-1.648,0.00 L 6.41,103.797 l 1.648,0.00 L 8.058,102.72 c0.00-1.66, 1.226-2.96, 2.79-2.96l 1.518,0.00 l0.00,2.427 l-1.359,0.00 c-0.355,0.00-0.459,0.204-0.459,0.486l0.00,1.123 l 1.818,0.00 l0.00,2.15 l-1.818,0.00 L 10.549,110.88 l 2.61,0.00 c 0.946,0.00, 1.719-0.774, 1.719-1.719L 14.878,98.84 C 14.88,97.894, 14.106,97.12, 13.16,97.12zM 44.293,109.707L 46.586,112.00L 48.00,110.586L 45.707,108.293L 48.00,106.00L 42.00,106.00L 42.00,112.00 zM 32.00,102.00L 38.00,102.00L 38.00,96.00L 35.707,98.293L 33.438,96.021L 32.024,97.435L 34.293,99.707 zM 32.00,110.586L 33.414,112.00L 35.707,109.707L 38.00,112.00L 38.00,106.00L 32.00,106.00L 34.293,108.293 zM 42.00,102.00L 48.00,102.00L 45.707,99.707L 47.98,97.435L 46.566,96.021L 44.293,98.293L 42.00,96.00 z"></path></svg>