<?xml version="1.0" encoding="utf-8"?> <!-- Generator: IcoMoon.io --> <!DOCTYPE svg PUBLIC "-//W3C//DTD SVG 1.1//EN" "http://www.w3.org/Graphics/SVG/1.1/DTD/svg11.dtd"> <svg width="496" height="112" viewBox="0 0 496 112" fill="#777777" xmlns="http://www.w3.org/2000/svg" xmlns:xlink="http://www.w3.org/1999/xlink"><path d="M 15.438,8.578l-3.891,0.563l 2.891,2.969q 0.234,0.328 0.172,0.734t-0.375,0.641l-3.063,2.328q-0.313,0.234 -0.695,0.172t-0.617-0.391l-1.734-3.641l-1.734,3.641q-0.234,0.328 -0.617,0.391t-0.695-0.172l-3.063-2.328q-0.313-0.234 -0.375-0.641t 0.172-0.734l 2.891-2.969l-3.891-0.563q-0.391-0.125 -0.578-0.484t-0.063-0.734l 1.234-3.688q 0.125-0.391 0.492-0.57t 0.758-0.055l 3.078,1.547l-0.609-3.594 q0.00-0.406 0.297-0.703t 0.703-0.297l 4.00,0.00 q 0.406,0.00 0.703,0.297t 0.297,0.703l-0.609,3.594l 3.078-1.547q 0.391-0.125 0.758,0.055t 0.492,0.57l 1.234,3.688q 0.125,0.375 -0.063,0.734t-0.578,0.484zM 40.00,10.00c0.00,0.00-5.333,0.00-7.333,4.667c0.00,0.00, 3.34,1.333, 7.333,1.333s 7.333-1.333, 7.333-1.333C 45.333,10.00, 40.00,10.00, 40.00,10.00z M 40.00,9.333c 2.00,0.00, 3.333-2.00, 3.333-5.333s-3.333-3.333-3.333-3.333S 36.667,0.667, 36.667,4.00S 38.00,9.333, 40.00,9.333zM 73.143,12.277l0.00-1.696 q0.00-0.125 -0.085-0.21t-0.201-0.085l-1.714,0.00 q-0.116,0.00 -0.201,0.085t-0.085,0.21l0.00,1.696 q0.00,0.125 0.085,0.21t 0.201,0.085l 1.714,0.00 q 0.116,0.00 0.201-0.085t 0.085-0.21zM 73.125,8.938l 0.161-4.098q0.00-0.107 -0.089-0.17q-0.116-0.098 -0.214-0.098l-1.964,0.00 q-0.098,0.00 -0.214,0.098q-0.089,0.063 -0.089,0.188l 0.152,4.08q0.00,0.089 0.089,0.147t 0.214,0.058l 1.652,0.00 q 0.125,0.00 0.21-0.058t 0.094-0.147zM 73.00,0.598l 6.857,12.571q 0.313,0.563 -0.018,1.125q-0.152,0.259 -0.415,0.411t-0.567,0.152l-13.714,0.00 q-0.304,0.00 -0.567-0.152t-0.415-0.411q-0.33-0.563 -0.018-1.125l 6.857-12.571q 0.152-0.277 0.42-0.438t 0.58-0.161t 0.58,0.161t 0.42,0.438zM 104.00,16.00C 99.582,16.00, 96.00,12.418, 96.00,8.00S 99.582,0.00, 104.00,0.00s 8.00,3.582, 8.00,8.00S 108.418,16.00, 104.00,16.00z M 104.00,1.455c-3.615,0.00-6.545,2.93-6.545,6.545s 2.93,6.545, 6.545,6.545s 6.545-2.93, 6.545-6.545S 107.615,1.455, 104.00,1.455z M 107.279,11.863l-0.188,0.113l-0.545,0.341l-0.321,0.241 c-0.239,0.116-0.488,0.209-0.746,0.288l0.00-0.324 l-0.091-0.75c0.00,0.00-0.045-0.432-0.113-0.545s-0.227-0.273-0.386-0.341 s-0.273-0.068-0.364-0.182s-0.159-0.319-0.273-0.50S 104.00,9.841, 104.00,9.75S 104.00,8.727, 104.00,8.727l 0.113-0.864l 0.25-0.182l 0.295-0.341L 104.864,7.273 l 0.705,0.137l 0.50,0.00 l 0.204,0.432l 0.477,0.386l 0.295,0.477l 0.386,0.137l 0.432,0.00 l 0.295,0.364l 0.182,0.386l 0.068,0.273l0.00,0.455 l-0.047,0.268 C 108.073,11.073, 107.708,11.50, 107.279,11.863z M 105.523,4.023l-0.50,0.273l-0.182,0.523L 104.545,5.091l-0.977,0.00 L 103.113,5.273L 103.091,5.636 L 102.909,5.932L 102.864,6.25l 0.091,0.273l 0.113,0.273c0.00,0.00, 0.273,0.319,0.00,0.545c0.00,0.00-0.341,0.00-0.409-0.113S 102.091,6.796, 102.00,6.705 s-0.386-0.182-0.386-0.182l-0.364-0.137L 100.909,6.364l 0.023-0.477L 100.909,5.477L 100.772,5.182L 100.386,4.887L 100.364,4.568l 0.047-0.177 C 101.331,3.476, 102.599,2.909, 104.00,2.909c 0.791,0.00, 1.529,0.196, 2.197,0.517L 106.182,3.545L 105.523,4.023zM 142.545,13.818L 129.455,13.818 c-0.803,0.00-1.455-0.652-1.455-1.455L 128.00,3.636 c0.00-0.803, 0.652-1.455, 1.455-1.455l 13.091,0.00 c 0.803,0.00, 1.455,0.652, 1.455,1.455l0.00,8.727 C 144.00,13.167, 143.348,13.818, 142.545,13.818z M 141.818,12.364l-4.169-3.648L 136.00,10.182l-1.649-1.466L 130.182,12.364L 141.818,12.364 z M 129.455,11.636l 4.091-3.636L 129.455,4.364L 129.455,11.636 z M 130.182,3.636l 5.818,5.091l 5.818-5.091L 130.182,3.636 z M 142.545,4.364 l-4.091,3.636L 142.545,11.636L 142.545,4.364 zM 174.545,16.00L 161.455,16.00 c-0.803,0.00-1.455-0.652-1.455-1.455L 160.00,1.455 c0.00-0.803, 0.652-1.455, 1.455-1.455l 10.909,0.00 l-1.455,1.455L 161.455,1.455 l0.00,13.091 l 13.091,0.00 L 174.545,5.091 l 1.455-1.455l0.00,10.909 C 176.00,15.348, 175.348,16.00, 174.545,16.00z M 173.636,1.273L 174.909,0.00c0.00,0.00, 1.091-0.023, 1.091,1.068l-1.283,1.286L 173.636,1.273z M 166.545,9.455l0.00-1.091 l 0.545-0.545 l 1.09,1.09L 167.636,9.455L 166.545,9.455 z M 173.991,3.082l-5.447,5.462L 167.455,7.455l 5.455-5.455L 173.991,3.082zM 201.286,1.606L 200.667,6.437C 200.667,6.933, 201.067,7.333, 201.563,7.333l 4.83-0.62 c 0.143-0.02, 0.287-0.087, 0.397-0.20c 0.28-0.28, 0.28-0.73,0.00-1.01l-0.807-0.807l 1.793-1.79c 0.297-0.297, 0.297-0.777,0.00-1.073L 206.167,0.223 c-0.297-0.297-0.777-0.297-1.074,0.00L 203.303,2.013l-0.807-0.803c-0.28-0.28-0.73-0.28-1.01,0.00C 201.373,1.32, 201.307,1.463, 201.286,1.606z M 198.713,1.606c-0.02-0.143-0.087-0.286-0.20-0.396c-0.28-0.28-0.73-0.28-1.01,0.00l-0.807,0.803L 194.907,0.223c-0.297-0.297-0.777-0.297-1.073,0.00 L 192.223,1.833c-0.297,0.297-0.297,0.777,0.00,1.073l 1.793,1.79l-0.807,0.807c-0.28,0.28-0.28,0.73,0.00,1.01c 0.11,0.113, 0.253,0.18, 0.396,0.20 L 198.437,7.333C 198.933,7.333, 199.333,6.933, 199.333,6.437L 198.713,1.606z M 201.286,14.394c 0.02,0.143, 0.087,0.286, 0.20,0.396c 0.28,0.28, 0.73,0.28, 1.01,0.00 l 0.807-0.803l 1.79,1.79c 0.297,0.297, 0.777,0.297, 1.074,0.00l 1.61-1.61c 0.297-0.297, 0.297-0.777,0.00-1.073l-1.793-1.79l 0.807-0.807 c 0.28-0.28, 0.28-0.73,0.00-1.01c-0.11-0.113-0.254-0.18-0.397-0.20L 201.563,8.667C 201.067,8.667, 200.667,9.067, 200.667,9.563L 201.286,14.394z M 198.713,14.394 L 199.333,9.563C 199.333,9.067, 198.933,8.667, 198.437,8.667L 193.606,9.287c-0.143,0.02-0.286,0.087-0.396,0.20c-0.28,0.28-0.28,0.73,0.00,1.01l 0.807,0.807 l-1.793,1.79c-0.297,0.297-0.297,0.777,0.00,1.073l 1.61,1.61c 0.297,0.297, 0.777,0.297, 1.073,0.00l 1.79-1.79l 0.807,0.803c 0.28,0.28, 0.73,0.28, 1.01,0.00 C 198.627,14.68, 198.693,14.537, 198.713,14.394zM 231.75,14.75c-3.59,0.00-6.50-2.91-6.50-6.50s 2.91-6.50, 6.50-6.50s 6.50,2.91, 6.50,6.50 S 235.34,14.75, 231.75,14.75z M 234.969,7.969c0.00-0.276-0.224-0.50-0.50-0.50l-2.00,0.00 l0.00-2.00 c0.00-0.276-0.224-0.50-0.50-0.50l-0.50,0.00 c-0.277,0.00-0.50,0.224-0.50,0.50l0.00,2.00 l-2.00,0.00 c-0.277,0.00-0.50,0.224-0.50,0.50l0.00,0.50 c0.00,0.277, 0.224,0.50, 0.50,0.50l 2.00,0.00 l0.00,2.00 c0.00,0.277, 0.224,0.50, 0.50,0.50l 0.50,0.00 c 0.277,0.00, 0.50-0.224, 0.50-0.50l0.00-2.00 l 2.00,0.00 c 0.276,0.00, 0.50-0.224, 0.50-0.50L 234.969,7.969 zM 263.75,1.75c-3.59,0.00-6.50,2.91-6.50,6.50s 2.91,6.50, 6.50,6.50c 3.59,0.00, 6.50-2.91, 6.50-6.50 S 267.34,1.75, 263.75,1.75z M 267.00,8.438c0.00,0.277-0.224,0.50-0.50,0.50L 261.00,8.938 c-0.277,0.00-0.50-0.224-0.50-0.50l0.00-0.50 c0.00-0.276, 0.224-0.50, 0.50-0.50l 5.50,0.00 c 0.276,0.00, 0.50,0.224, 0.50,0.50 L 267.00,8.438 zM 300.501,4.197l0.00,6.266 l 2.019,0.00 l0.00,2.019 L 291.491,12.483 L 291.491,1.516 l 2.019,0.00 l0.00,1.988 L 299.725,3.505 l 2.32-2.32 l 0.703,0.703L 300.501,4.197z M 293.511,5.492L 293.511,9.75 l 4.226-4.258L 293.511,5.492 z M 298.482,6.185l-4.309,4.279l 4.309,0.00 L 298.482,6.185 z M 289.503,3.505l 1.522,0.00 l0.00,1.988 L 289.503,5.493 L 289.503,3.505 z M 300.501,14.471l-2.019,0.00 L 298.482,12.98 l 2.019,0.00 L 300.501,14.471 zM 328.451,3.002l 4.563,0.00 l-0.01,4.614l-1.565-1.564l-1.474,1.474 c 0.331,0.582, 0.521,1.254, 0.521,1.97c0.00,2.209-1.79,4.00-4.00,4.00c-2.209,0.00-4.00-1.791-4.00-4.00c0.00-2.209, 1.791-4.00, 4.00-4.00c 0.762,0.00, 1.473,0.217, 2.08,0.588 l 1.459-1.478L 328.451,3.002z M 324.487,9.498c0.00,1.105, 0.895,2.00, 2.00,2.00s 2.00-0.895, 2.00-2.00s-0.895-2.00-2.00-2.00S 324.487,8.393, 324.487,9.498zM 361.02,9.361l0.00,1.647 l 1.998,0.00 l0.00,1.998 l-1.998,0.00 l0.00,1.998 l-2.029,0.00 L 358.991,13.005 L 356.994,13.005 l0.00-1.998 l 1.998,0.00 l0.00-1.653 c-1.718-0.448-2.986-2.005-2.986-3.861c0.00-2.207, 1.789-3.995, 3.995-3.995c 2.207,0.00, 3.995,1.789, 3.995,3.995 C 363.995,7.357, 362.747,8.919, 361.02,9.361z M 360.00,3.495c-1.103,0.00-1.998,0.894-1.998,1.998c0.00,1.103, 0.894,1.998, 1.998,1.998 c 1.103,0.00, 1.998-0.894, 1.998-1.998C 361.998,4.389, 361.104,3.495, 360.00,3.495zM 397.249,2.75c-1.154-1.154-2.02-0.982-2.02-0.982L 391.186,5.811L 386.568,10.43L 385.76,14.24l 3.81-0.808l 4.618-4.618l 4.042-4.042 C 398.23,4.772, 398.404,3.906, 397.249,2.75z M 389.343,12.974l-1.298,0.28c-0.126-0.234-0.277-0.469-0.553-0.746 c-0.276-0.276-0.511-0.426-0.746-0.552l 0.281-1.299l 0.375-0.375c0.00,0.00, 0.707,0.014, 1.505,0.812c 0.798,0.798, 0.813,1.506, 0.813,1.506 L 389.343,12.974zM 431.20,13.44c0.00,0.00-1.60-7.786-8.62-7.786L 422.58,2.56 L 416.80,7.724l 5.78,5.353l0.00-3.486 C 426.39,9.59, 429.214,9.928, 431.20,13.44zM 457.42,9.59l0.00,3.486 L 463.20,7.724L 457.42,2.56l0.00,3.093 C 450.40,5.653, 448.80,13.44, 448.80,13.44C 450.786,9.928, 453.61,9.59, 457.42,9.59zM 491.856,11.558c-1.972-0.718-2.602-1.325-2.602-2.623c0.00-0.779, 0.602-0.525, 0.866-1.952c 0.11-0.592, 0.642-0.01, 0.744-1.361 c0.00-0.538-0.29-0.673-0.29-0.673s 0.148-0.798, 0.206-1.41C 490.85,2.774, 490.338,0.80, 487.60,0.80C 484.863,0.80, 484.35,2.774, 484.422,3.539 C 484.479,4.152, 484.627,4.95, 484.627,4.95S 484.336,5.083, 484.336,5.622c 0.102,1.351, 0.634,0.769, 0.743,1.361 c 0.265,1.427, 0.867,1.173, 0.867,1.952c0.00,1.298-0.63,1.905-2.602,2.623c-1.979,0.72-3.264,1.455-3.264,1.957c0.00,0.501,0.00,1.684,0.00,1.684 l 7.52,0.00 l 7.52,0.00 c0.00,0.00,0.00-1.183,0.00-1.684C 495.12,13.014, 493.834,12.279, 491.856,11.558zM 9.902,43.558C 7.909,42.84, 7.272,42.234, 7.272,40.935c0.00-0.779, 0.609-0.525, 0.876-1.952c 0.111-0.592, 0.649-0.01, 0.75-1.361 c0.00-0.538-0.293-0.673-0.293-0.673s 0.15-0.798, 0.207-1.41C 8.885,34.774, 8.366,32.80, 5.60,32.80S 2.315,34.774, 2.387,35.539 c 0.058,0.614, 0.208,1.41, 0.208,1.41S 2.302,37.083, 2.302,37.622c 0.103,1.351, 0.641,0.769, 0.75,1.361 c 0.268,1.427, 0.877,1.173, 0.877,1.952c0.00,1.298-0.638,1.905-2.63,2.623c-0.24,0.086-0.812,0.22-1.298,0.43L0.00,47.20 l 12.80,0.00 c0.00,0.00,0.00-1.183,0.00-1.684S 11.902,44.279, 9.902,43.558z M 13.60,39.20L 13.60,36.80 l-1.60,0.00 l0.00,2.40 l-2.40,0.00 l0.00,1.60 l 2.40,0.00 l0.00,2.40 l 1.60,0.00 l0.00-2.40 l 2.40,0.00 L 16.00,39.20 L 13.60,39.20 zM 46.40,33.60L 33.60,33.60 C 32.72,33.60, 32.00,34.32, 32.00,35.20l0.00,9.60 c0.00,0.88, 0.72,1.60, 1.60,1.60l 12.80,0.00 c 0.881,0.00, 1.60-0.72, 1.60-1.60L 48.00,35.20 C 48.00,34.32, 47.281,33.60, 46.40,33.60z M 46.40,44.80L 33.60,44.80 L 33.60,35.20 l 12.80,0.00 L 46.40,44.80 z M 39.20,41.68L 35.20,41.68 L 35.20,43.12 l 4.00,0.00 L 39.20,41.68 z M 39.20,39.28L 35.20,39.28 l0.00,1.44 l 4.00,0.00 L 39.20,39.28 z M 39.20,36.88L 35.20,36.88 l0.00,1.44 l 4.00,0.00 L 39.20,36.88 z M 44.72,42.00c0.00,0.00-1.36-0.355-1.36-1.054c0.00-0.666, 0.881-0.946, 0.881-2.306 c0.00-1.104-0.336-1.76-1.441-1.76s-1.44,0.655-1.44,1.76c0.00,1.36, 0.88,1.64, 0.88,2.306c0.00,0.699-1.359,1.054-1.359,1.054C 40.80,42.00, 40.80,43.12, 40.80,43.12 l 4.00,0.00 C 44.80,43.12, 44.80,42.00, 44.72,42.00zM 72.00,33.60C 69.79,33.60, 68.00,35.391, 68.00,37.60c0.00,3.819, 4.00,8.80, 4.00,8.80s 4.00-4.981, 4.00-8.80C 76.00,35.391, 74.21,33.60, 72.00,33.60z M 72.00,39.808c-1.193,0.00-2.16-0.967-2.16-2.16 s 0.967-2.16, 2.16-2.16s 2.16,0.967, 2.16,2.16S 73.193,39.808, 72.00,39.808zM 111.746,36.019l-3.739-2.342c-0.166-0.104-0.373-0.104-0.538,0.00L 104.00,35.85L 100.531,33.678c-0.166-0.104-0.373-0.104-0.538,0.00 L 96.254,36.019C 96.097,36.118, 96.00,36.296, 96.00,36.487l0.00,9.366 c0.00,0.197, 0.101,0.379, 0.266,0.476s 0.366,0.094, 0.527-0.007l 3.469-2.173l 3.469,2.173 c 0.166,0.104, 0.373,0.104, 0.539,0.00l 3.469-2.173l 3.469,2.173C 111.29,46.374, 111.383,46.40, 111.477,46.40c 0.089,0.00, 0.178-0.024, 0.258-0.071 C 111.898,46.232, 112.00,46.05, 112.00,45.853L 112.00,36.487 C 112.00,36.296, 111.903,36.118, 111.746,36.019z M 99.738,43.202L 97.046,44.888L 97.046,36.797 l 2.692-1.686L 99.738,43.202 z M 103.477,44.888l-2.692-1.686L 100.785,35.111 l 2.692,1.686L 103.477,44.888 z M 107.215,43.202l-2.691,1.686L 104.524,36.797 l 2.691-1.686L 107.215,43.202 z M 110.953,44.888 l-2.691-1.686L 108.262,35.111 l 2.691,1.686L 110.953,44.888 zM 140.00,42.40c-0.55,0.00-1.054,0.186-1.459,0.498l-4.175-2.505C 134.386,40.265, 134.40,40.134, 134.40,40.00c0.00-0.134-0.014-0.265-0.034-0.393 l 4.175-2.505C 138.946,37.414, 139.45,37.60, 140.00,37.60c 1.325,0.00, 2.40-1.074, 2.40-2.40s-1.075-2.40-2.40-2.40s-2.40,1.074-2.40,2.40c0.00,0.134, 0.014,0.265, 0.035,0.393 L 133.46,38.098C 133.055,37.786, 132.55,37.60, 132.00,37.60c-1.326,0.00-2.40,1.074-2.40,2.40c0.00,1.325, 1.074,2.40, 2.40,2.40c 0.55,0.00, 1.055-0.186, 1.46-0.498l 4.175,2.505 C 137.614,44.535, 137.60,44.666, 137.60,44.80c0.00,1.325, 1.075,2.40, 2.40,2.40s 2.40-1.075, 2.40-2.40S 141.325,42.40, 140.00,42.40zM 164.64,41.76L 164.64,36.80 L 161.60,36.80 C 160.72,36.80, 160.00,37.52, 160.00,38.40l0.00,4.80 c0.00,0.88, 0.72,1.60, 1.60,1.60l 0.80,0.00 l0.00,2.40 l 2.40-2.40l 4.00,0.00 c 0.88,0.00, 1.60-0.72, 1.60-1.60l0.00-1.456 c-0.051,0.011-0.106,0.017-0.16,0.017L 164.64,41.761 z M 174.40,32.80L 167.20,32.80 C 166.32,32.80, 165.60,33.52, 165.60,34.40l0.00,6.40 l 5.60,0.00 l 2.40,2.40l0.00-2.40 l 0.80,0.00 c 0.88,0.00, 1.60-0.72, 1.60-1.60L 176.00,34.40 C 176.00,33.52, 175.28,32.80, 174.40,32.80zM 204.80,34.40L 195.20,34.40 C 194.32,34.40, 193.60,35.12, 193.60,36.00l0.00,5.60 c0.00,0.88, 0.72,1.60, 1.60,1.60l 3.20,0.00 l 3.20,2.40l0.00-2.40 l 3.20,0.00 c 0.88,0.00, 1.60-0.72, 1.60-1.60L 206.40,36.00 C 206.40,35.12, 205.68,34.40, 204.80,34.40zM 239.016,40.24l-6.419-6.425c-0.328-0.341-0.865-0.341-1.193,0.00L 224.984,40.24c-0.329,0.34-0.206,0.619, 0.272,0.619l 1.338,0.00 l0.00,4.934 c0.00,0.356, 0.015,0.647, 0.659,0.647l 3.116,0.00 l0.00-4.95 l 3.26,0.00 l0.00,4.95 l 3.271,0.00 c 0.491,0.00, 0.505-0.29, 0.505-0.647l0.00-4.934 l 1.338,0.00 C 239.221,40.859, 239.344,40.581, 239.016,40.24zM 270.036,44.374l-3.023-3.023c 0.456-0.75, 0.718-1.628, 0.718-2.57c0.00-2.733-2.369-5.102-5.102-5.102 C 259.896,33.68, 257.68,35.896, 257.68,38.629c0.00,2.734, 2.368,5.102, 5.102,5.102c 0.909,0.00, 1.76-0.246, 2.492-0.674l 3.039,3.04 c 0.298,0.298, 0.78,0.298, 1.077,0.00l 0.754-0.754C 270.441,45.046, 270.333,44.671, 270.036,44.374z M 259.203,38.629 c0.00-1.892, 1.534-3.426, 3.426-3.426c 1.893,0.00, 3.579,1.686, 3.579,3.579s-1.534,3.426-3.426,3.426S 259.203,40.522, 259.203,38.629zM 301.428,40.00c0.00-0.838, 0.516-1.50, 1.292-1.954c-0.141-0.467-0.325-0.916-0.553-1.338c-0.872,0.228-1.577-0.114-2.169-0.706 c-0.594-0.593-0.775-1.298-0.547-2.169c-0.422-0.228-0.869-0.414-1.338-0.554C 297.659,34.057, 296.838,34.573, 296.00,34.573 c-0.838,0.00-1.658-0.516-2.114-1.293C 293.418,33.419, 292.97,33.606, 292.549,33.833C 292.776,34.704, 292.595,35.41, 292.002,36.002 C 291.41,36.594, 290.704,36.936, 289.834,36.709C 289.606,37.13, 289.42,37.578, 289.28,38.046C 290.057,38.50, 290.573,39.162, 290.573,40.00 c0.00,0.838-0.516,1.659-1.293,2.114c 0.14,0.468, 0.326,0.916, 0.554,1.338c 0.871-0.228, 1.576-0.046, 2.169,0.546 c 0.593,0.593, 0.774,1.298, 0.546,2.169c 0.422,0.228, 0.87,0.414, 1.338,0.554c 0.455-0.778, 1.276-1.293, 2.114-1.293 c 0.838,0.00, 1.66,0.516, 2.114,1.293c 0.469-0.14, 0.916-0.326, 1.338-0.554c-0.228-0.871-0.047-1.576, 0.547-2.169 c 0.592-0.592, 1.297-0.934, 2.169-0.706c 0.228-0.422, 0.413-0.87, 0.553-1.338C 301.944,41.499, 301.428,40.838, 301.428,40.00z M 296.00,42.922 c-1.614,0.00-2.922-1.309-2.922-2.922S 294.386,37.078, 296.00,37.078c 1.614,0.00, 2.922,1.309, 2.922,2.922S 297.614,42.922, 296.00,42.922zM 328.00,38.40c-1.325,0.00-2.40,1.075-2.40,2.40c0.00,1.326, 1.075,2.40, 2.40,2.40c 1.326,0.00, 2.40-1.074, 2.40-2.40C 330.40,39.475, 329.326,38.40, 328.00,38.40z M 334.40,36.00l-1.919,0.00 c-0.264,0.00-0.549-0.205-0.632-0.455l-0.496-1.489C 331.268,33.805, 330.984,33.60, 330.72,33.60L 325.28,33.60 C 325.016,33.60, 324.731,33.805, 324.649,34.055L 324.151,35.545 C 324.068,35.795, 323.784,36.00, 323.52,36.00L 321.60,36.00 C 320.72,36.00, 320.00,36.72, 320.00,37.60l0.00,7.20 c0.00,0.88, 0.72,1.60, 1.60,1.60l 12.80,0.00 c 0.881,0.00, 1.60-0.72, 1.60-1.60L 336.00,37.60 C 336.00,36.72, 335.281,36.00, 334.40,36.00z M 328.00,44.80 c-2.21,0.00-4.00-1.79-4.00-4.00c0.00-2.209, 1.79-4.00, 4.00-4.00c 2.209,0.00, 4.00,1.791, 4.00,4.00C 332.00,43.01, 330.209,44.80, 328.00,44.80z M 333.84,38.718 c-0.309,0.00-0.559-0.25-0.559-0.56s 0.25-0.56, 0.559-0.56c 0.31,0.00, 0.56,0.25, 0.56,0.56S 334.15,38.718, 333.84,38.718zM 360.00,35.52C 354.751,35.52, 352.00,39.386, 352.00,40.00s 2.751,4.48, 8.00,4.48s 8.00-3.866, 8.00-4.48S 365.249,35.52, 360.00,35.52z M 360.00,43.446 c-1.963,0.00-3.555-1.543-3.555-3.446S 358.037,36.554, 360.00,36.554c 1.964,0.00, 3.556,1.543, 3.556,3.446S 361.964,43.446, 360.00,43.446z M 360.00,40.00 c-0.325-0.357, 0.531-1.722,0.00-1.722c-0.982,0.00-1.778,0.771-1.778,1.722S 359.018,41.723, 360.00,41.723c 0.982,0.00, 1.778-0.772, 1.778-1.723 C 361.778,39.563, 360.278,40.304, 360.00,40.00zM 392.00,32.64c-4.065,0.00-7.36,3.296-7.36,7.36c0.00,4.065, 3.295,7.36, 7.36,7.36s 7.36-3.295, 7.36-7.36C 399.36,35.935, 396.065,32.64, 392.00,32.64z M 392.00,45.76 c-3.182,0.00-5.76-2.579-5.76-5.76S 388.818,34.24, 392.00,34.24s 5.76,2.579, 5.76,5.76S 395.182,45.76, 392.00,45.76zM 392.56,35.84L 391.44,35.84L 391.44,40.232L 394.164,42.956L 394.956,42.164L 392.56,39.768 zM 429.60,34.40l-0.72,0.00 l0.00,1.60 L 426.32,36.00 L 426.32,34.40 L 421.68,34.40 l0.00,1.60 L 419.12,36.00 L 419.12,34.40 L 418.40,34.40 C 417.52,34.40, 416.80,35.12, 416.80,36.00l0.00,9.60 c0.00,0.88, 0.72,1.60, 1.60,1.60l 11.20,0.00 c 0.88,0.00, 1.60-0.72, 1.60-1.60L 431.20,36.00 C 431.20,35.12, 430.48,34.40, 429.60,34.40z M 429.60,45.60L 418.40,45.60 L 418.40,39.20 l 11.20,0.00 L 429.60,45.60 z M 420.96,32.80L 419.84,32.80 l0.00,2.72 l 1.12,0.00 L 420.96,32.80 z M 428.16,32.80l-1.12,0.00 l0.00,2.72 l 1.12,0.00 L 428.16,32.80 zM 460.641,38.402L 459.20,38.402 l0.00-1.12 c0.00-2.318-1.067-3.68-3.20-3.68c-2.132,0.00-3.20,1.362-3.20,3.68l0.00,1.12 L 451.20,38.402 c-0.442,0.00-0.80,0.518-0.80,0.96l0.00,6.24 c0.00,0.44, 0.343,0.911, 0.762,1.046l 0.957,0.31c 0.418,0.135, 1.121,0.246, 1.562,0.246l 4.64,0.00 c 0.44,0.00, 1.143-0.11, 1.562-0.246l 0.957-0.31 C 461.258,46.513, 461.60,46.042, 461.60,45.602l0.00-6.24 C 461.60,38.919, 461.082,38.402, 460.641,38.402z M 454.40,36.962c0.00-1.156, 0.638-1.76, 1.60-1.76 c 0.962,0.00, 1.60,0.604, 1.60,1.76l0.00,1.44 L 454.40,38.402 L 454.40,36.962 zM 488.817,45.60L 482.384,45.60 L 482.384,34.40 l 6.432,0.00 l0.00,2.40 L 490.40,36.80 L 490.40,34.40 c0.00-0.88-0.719-1.60-1.60-1.60L 482.40,32.80 C 481.52,32.80, 480.80,33.52, 480.80,34.40l0.00,11.20 c0.00,0.88, 0.72,1.60, 1.60,1.60l 6.40,0.00 c 0.881,0.00, 1.60-0.72, 1.60-1.60l0.00-1.60 l-1.583,0.00 L 488.817,45.60 z M 495.20,40.40l-3.183-3.12L 492.017,39.20 l-7.20,0.00 l0.00,2.40 l 7.20,0.00 l0.00,1.92 L 495.20,40.40zM 13.60,64.80L 6.40,64.80 C 5.52,64.80, 4.816,65.52, 4.816,66.40l0.00,2.40 L 6.40,68.80 L 6.40,66.40 l 7.20,0.00 l0.00,11.20 L 6.40,77.60 l0.00-1.60 L 4.816,76.00 l0.00,1.60 c0.00,0.88, 0.704,1.60, 1.584,1.60l 7.20,0.00 c 0.88,0.00, 1.60-0.72, 1.60-1.60L 15.20,66.40 C 15.20,65.52, 14.48,64.80, 13.60,64.80z M 8.00,75.52l 3.20-3.12l-3.20-3.12L 8.00,71.20 L 0.80,71.20 l0.00,2.40 l 7.20,0.00 L 8.00,75.52 zM 38.636,77.60c-0.348,0.00-0.678-0.162-0.889-0.442L 34.888,73.383c-0.372-0.491-0.275-1.19, 0.216-1.562 c 0.492-0.373, 1.19-0.275, 1.562,0.216l 1.881,2.483l 4.73-7.593c 0.326-0.522, 1.014-0.682, 1.537-0.357 c 0.522,0.325, 0.682,1.014, 0.356,1.536L 39.583,77.074c-0.194,0.313-0.53,0.509-0.897,0.525C 38.67,77.60, 38.653,77.60, 38.636,77.60zM 75.479,74.522L 73.273,72.00l 2.206-2.522c 0.375-0.375, 0.375-0.983,0.00-1.358c-0.375-0.374-0.983-0.374-1.358,0.00L 72.00,70.546 l-2.121-2.424c-0.375-0.375-0.983-0.375-1.358,0.00c-0.374,0.375-0.374,0.983,0.00,1.358L 70.727,72.00l-2.206,2.522 c-0.374,0.375-0.374,0.982,0.00,1.356c 0.375,0.375, 0.983,0.375, 1.358,0.00L 72.00,73.454l 2.121,2.423c 0.375,0.375, 0.983,0.375, 1.358,0.00 S 75.854,74.897, 75.479,74.522zM 104.00,64.32c-4.242,0.00-7.68,3.438-7.68,7.68s 3.438,7.68, 7.68,7.68c 4.242,0.00, 7.68-3.438, 7.68-7.68S 108.242,64.32, 104.00,64.32z M 108.133,67.869 l-0.002-0.002C 108.131,67.868, 108.133,67.869, 108.133,67.869z M 98.157,72.00c0.00-3.227, 2.616-5.843, 5.843-5.843c 1.403,0.00, 2.691,0.494, 3.699,1.318 L 99.476,75.698C 98.651,74.69, 98.157,73.403, 98.157,72.00z M 99.867,76.131l 0.002,0.002C 99.868,76.132, 99.868,76.132, 99.867,76.131z M 104.00,77.844 c-1.403,0.00-2.69-0.495-3.698-1.319L 108.523,68.302c 0.825,1.007, 1.32,2.294, 1.32,3.698C 109.844,75.227, 107.226,77.844, 104.00,77.844zM 135.902,64.641c-4.064,0.054-7.315,3.394-7.261,7.458c 0.054,4.062, 3.394,7.314, 7.458,7.26 c 4.064-0.054, 7.315-3.394, 7.261-7.458C 143.306,67.838, 139.966,64.586, 135.902,64.641z M 136.718,67.094c 0.748,0.00, 0.969,0.434, 0.969,0.93 c0.00,0.62-0.497,1.194-1.344,1.194c-0.709,0.00-1.046-0.357-1.026-0.946C 135.317,67.775, 135.733,67.094, 136.718,67.094z M 134.799,76.60 c-0.511,0.00-0.886-0.31-0.528-1.675l 0.586-2.419c 0.102-0.388, 0.118-0.543,0.00-0.543c-0.153,0.00-0.817,0.268-1.21,0.532l-0.255-0.418 c 1.244-1.038, 2.674-1.648, 3.287-1.648c 0.511,0.00, 0.596,0.605, 0.341,1.535l-0.672,2.544c-0.118,0.45-0.067,0.605, 0.051,0.605 c 0.153,0.00, 0.656-0.186, 1.15-0.574l 0.289,0.388C 136.63,76.134, 135.311,76.60, 134.799,76.60zM 167.902,64.641c-4.065,0.054-7.316,3.394-7.262,7.458c 0.054,4.062, 3.394,7.314, 7.458,7.26 c 4.063-0.054, 7.315-3.394, 7.26-7.458C 175.306,67.838, 171.966,64.586, 167.902,64.641z M 167.881,76.48L 167.84,76.48 c-0.626-0.018-1.067-0.48-1.05-1.097 c 0.018-0.606, 0.47-1.046, 1.075-1.046l 0.037,0.001c 0.643,0.019, 1.08,0.476, 1.061,1.11C 168.946,76.055, 168.50,76.48, 167.881,76.48z M 170.514,71.254c-0.148,0.209-0.471,0.469-0.879,0.786l-0.45,0.31c-0.246,0.192-0.395,0.372-0.45,0.549 c-0.045,0.141-0.066,0.177-0.07,0.461l-0.001,0.073L 166.95,73.434 l 0.005-0.146c 0.021-0.597, 0.036-0.947, 0.283-1.238 c 0.388-0.455, 1.244-1.006, 1.28-1.03c 0.122-0.093, 0.226-0.198, 0.303-0.31c 0.18-0.248, 0.259-0.444, 0.259-0.635 c0.00-0.266-0.079-0.513-0.235-0.732c-0.15-0.212-0.436-0.319-0.849-0.319c-0.41,0.00-0.69,0.13-0.858,0.397 C 166.965,69.696, 166.878,69.983, 166.878,70.278l0.00,0.074 l-1.768,0.00 l 0.003-0.077c 0.046-1.083, 0.432-1.862, 1.149-2.318C 166.712,67.666, 167.272,67.52, 167.925,67.52 c 0.855,0.00, 1.578,0.208, 2.146,0.618c 0.576,0.415, 0.868,1.038, 0.868,1.849C 170.939,70.441, 170.796,70.867, 170.514,71.254zM 207.61,78.386L 200.483,65.881C 200.385,65.708, 200.20,65.602, 200.00,65.602c-0.20,0.00-0.384,0.106-0.483,0.279L 192.391,78.386 c-0.097,0.17-0.095,0.377, 0.004,0.545s 0.282,0.271, 0.478,0.271l 14.252,0.00 c 0.195,0.00, 0.378-0.103, 0.478-0.271 C 207.703,78.762, 207.705,78.555, 207.61,78.386z M 200.88,77.602L 199.12,77.602 l0.00-1.60 l 1.76,0.00 L 200.88,77.602 z M 200.88,74.802L 199.12,74.802 l0.00-4.80 l 1.76,0.00 L 200.88,74.802 zM 229.60,71.20L 224.80,71.20 c-0.442,0.00-0.80,0.358-0.80,0.80s 0.358,0.80, 0.80,0.80l 4.80,0.00 c 0.442,0.00, 0.80-0.358, 0.80-0.80S 230.042,71.20, 229.60,71.20z M 229.60,74.40L 224.80,74.40 c-0.442,0.00-0.80,0.358-0.80,0.80s 0.358,0.80, 0.80,0.80l 4.80,0.00 c 0.442,0.00, 0.80-0.358, 0.80-0.80S 230.042,74.40, 229.60,74.40z M 239.52,71.20L 236.80,71.20 L 236.80,68.48 C 236.80,68.038, 236.442,68.00, 236.00,68.00s-0.80,0.038-0.80,0.48L 235.20,71.20 l-2.64,0.00 C 232.118,71.20, 232.08,71.558, 232.08,72.00 s 0.038,0.80, 0.481,0.80L 235.20,72.80 l0.00,2.72 c0.00,0.442, 0.358,0.48, 0.80,0.48s 0.80-0.038, 0.80-0.48L 236.80,72.80 l 2.72,0.00 c 0.442,0.00, 0.48-0.358, 0.48-0.80S 239.962,71.20, 239.52,71.20z M 229.60,68.00L 224.80,68.00 C 224.358,68.00, 224.00,68.358, 224.00,68.80s 0.358,0.80, 0.80,0.80l 4.80,0.00 c 0.442,0.00, 0.80-0.358, 0.80-0.80S 230.042,68.00, 229.60,68.00zM 268.80,71.20L 259.20,71.20 c-0.442,0.00-0.80,0.358-0.80,0.80s 0.358,0.80, 0.80,0.80l 9.60,0.00 c 0.442,0.00, 0.80-0.358, 0.80-0.80S 269.242,71.20, 268.80,71.20z M 259.20,69.60l 9.60,0.00 c 0.442,0.00, 0.80-0.358, 0.80-0.80 s-0.358-0.80-0.80-0.80L 259.20,68.00 C 258.758,68.00, 258.40,68.358, 258.40,68.80S 258.758,69.60, 259.20,69.60z M 268.80,74.40L 259.20,74.40 c-0.442,0.00-0.80,0.358-0.80,0.80s 0.358,0.80, 0.80,0.80l 9.60,0.00 c 0.442,0.00, 0.80-0.358, 0.80-0.80 S 269.242,74.40, 268.80,74.40zM 293.778,72.696l 4.48,0.00 l0.00-1.44 l-4.48,0.00 L 293.778,72.696 z M 300.00,64.80L 292.00,64.80 C 291.12,64.80, 290.40,65.52, 290.40,66.40l0.00,11.20 c0.00,0.88, 0.72,1.60, 1.60,1.60l 8.00,0.00 c 0.88,0.00, 1.60-0.72, 1.60-1.60L 301.60,66.40 C 301.60,65.52, 300.88,64.80, 300.00,64.80z M 300.00,77.60L 292.00,77.60 L 292.00,66.40 l 8.00,0.00 L 300.00,77.60 z M 298.24,68.135L 293.76,68.135 l0.00,1.40 l 4.48,0.00 L 298.24,68.135 z M 298.24,74.416L 293.76,74.416 l0.00,1.40 l 4.48,0.00 L 298.24,74.416 zM 333.70,69.738l-1.637-4.509c-0.121-0.333-0.476-0.509-0.791-0.394L 320.394,68.806C 320.078,68.921 319.919,69.284, 320.04,69.617 l 1.726,4.754L 321.766,71.822 c0.00-1.15, 0.918-2.084, 2.049-2.084l 2.874,0.00 l 3.428-2.406l 1.984,2.406L 333.70,69.738 z M 335.39,71.182L 323.814,71.182 c-0.336,0.00-0.61,0.287-0.61,0.642l0.00,7.537 c0.00,0.354, 0.273,0.642, 0.61,0.642l 11.576,0.00 c 0.337,0.00, 0.61-0.287, 0.61-0.642L 336.00,71.822 C 336.00,71.469, 335.727,71.182, 335.39,71.182z M 334.507,78.398L 324.911,78.398 l0.00-1.375 l 1.476-3.436l 2.215,2.75l 2.078-2.13l 2.671-0.964l 1.156,2.578 L 334.507,78.398 zM 354.711,70.33l 0.882,7.767C 355.64,78.466, 357.421,79.678, 360.00,79.68c 2.579-0.002, 4.361-1.214, 4.408-1.583l 0.882-7.767 C 363.942,71.083, 361.929,71.44, 360.00,71.44S 356.058,71.083, 354.711,70.33z M 362.534,65.53l-0.687-0.762C 361.582,64.39, 361.294,64.32, 360.733,64.32L 359.267,64.32 c-0.56,0.00-0.848,0.07-1.114,0.447L 357.467,65.53C 355.411,65.889, 353.92,66.842, 353.92,67.544l0.00,0.137 c0.00,1.237, 2.722,2.24, 6.08,2.24s 6.08-1.003, 6.08-2.24 L 366.08,67.544 C 366.08,66.842, 364.59,65.889, 362.534,65.53z M 361.655,67.311L 360.654,66.24L 359.346,66.24 L 358.345,67.311L 356.985,67.311 c0.00,0.00, 1.49-1.776, 1.689-2.017 C 358.826,65.11, 358.982,65.04, 359.183,65.04l 1.634,0.00 c 0.202,0.00, 0.357,0.07, 0.51,0.254c 0.198,0.241, 1.689,2.017, 1.689,2.017L 361.655,67.311 zM 396.138,65.60L 387.20,65.60 C 386.32,65.60, 385.60,66.32, 385.60,67.20l0.00,9.60 c0.00,0.88, 0.72,1.60, 1.60,1.60l 9.60,0.00 c 0.88,0.00, 1.60-0.72, 1.60-1.60L 398.40,68.102 L 396.138,65.60z M 395.20,70.40c0.00,0.44-0.36,0.80-0.80,0.80L 389.60,71.20 C 389.16,71.20, 388.80,70.84, 388.80,70.40L 388.80,66.40 l 6.40,0.00 L 395.20,70.40 z M 394.40,67.20l-1.60,0.00 l0.00,3.20 l 1.60,0.00 L 394.40,67.20 zM 425.15,67.613c-0.334,0.326-3.602,3.757-3.602,3.757C 421.37,71.544, 421.281,71.772, 421.281,72.00s 0.089,0.456, 0.267,0.63 c0.00,0.00, 3.267,3.43, 3.602,3.756c 0.334,0.326, 0.936,0.349, 1.293,0.00c 0.356-0.348, 0.384-0.834-0.001-1.26L 423.444,72.00l 2.998-3.126 c 0.385-0.427, 0.357-0.913, 0.001-1.261C 426.085,67.265, 425.483,67.286, 425.15,67.613zM 460.386,70.85c-0.326,0.334-3.756,3.602-3.756,3.602C 456.456,74.631, 456.228,74.72, 456.00,74.72c-0.229,0.00-0.457-0.089-0.63-0.267 c0.00,0.00-3.43-3.268-3.757-3.602c-0.326-0.334-0.348-0.935,0.00-1.293c 0.349-0.357, 0.834-0.385, 1.261,0.00L 456.00,72.556l 3.126-2.998 c 0.427-0.385, 0.914-0.357, 1.261,0.00C 460.735,69.915, 460.714,70.517, 460.386,70.85zM 492.386,73.15c-0.326-0.334-3.756-3.602-3.756-3.602C 488.456,69.37, 488.228,69.28, 488.00,69.28c-0.229,0.00-0.457,0.09-0.63,0.268 c0.00,0.00-3.43,3.267-3.757,3.602c-0.326,0.334-0.348,0.936,0.00,1.293c 0.349,0.356, 0.834,0.385, 1.261,0.00L 488.00,71.445l 3.126,2.998 c 0.427,0.385, 0.914,0.356, 1.261,0.00C 492.735,74.085, 492.714,73.483, 492.386,73.15zM 6.85,99.613c 0.334,0.326, 3.602,3.757, 3.602,3.757C 10.631,103.544, 10.72,103.772, 10.72,104.00s-0.089,0.456-0.268,0.63 c0.00,0.00-3.267,3.43-3.602,3.756c-0.334,0.326-0.935,0.349-1.293,0.00c-0.357-0.348-0.385-0.834,0.00-1.26L 8.556,104.00L 5.558,100.874 c-0.385-0.427-0.357-0.913,0.00-1.261C 5.915,99.265, 6.517,99.286, 6.85,99.613zM 40.00,102.24c-0.972,0.00-1.76,0.788-1.76,1.76s 0.788,1.76, 1.76,1.76s 1.76-0.788, 1.76-1.76S 40.972,102.24, 40.00,102.24zM 79.36,99.434c-0.542,0.241-1.124,0.402-1.735,0.476c 0.624-0.374, 1.103-0.966, 1.328-1.67c-0.583,0.346-1.23,0.598-1.917,0.733 c-0.551-0.587-1.336-0.954-2.205-0.954c-1.668,0.00-3.02,1.352-3.02,3.019c0.00,0.237, 0.026,0.467, 0.078,0.688 c-2.51-0.126-4.735-1.328-6.224-3.155C 65.405,99.017, 65.255,99.536, 65.255,100.09c0.00,1.048, 0.534,1.972, 1.344,2.514 c-0.495-0.016-0.961-0.151-1.368-0.378c0.00,0.013,0.00,0.025,0.00,0.038c0.00,1.463, 1.042,2.683, 2.422,2.962c-0.253,0.069-0.52,0.106-0.796,0.106 c-0.194,0.00-0.383-0.018-0.568-0.054c 0.384,1.20, 1.50,2.073, 2.821,2.097c-1.034,0.81-2.335,1.293-3.75,1.293 c-0.244,0.00-0.484-0.014-0.72-0.042c 1.336,0.857, 2.923,1.357, 4.63,1.357c 5.554,0.00, 8.592-4.602, 8.592-8.593 c0.00-0.13-0.002-0.261-0.009-0.39C 78.443,100.572, 78.954,100.04, 79.36,99.434zM 109.16,97.12L 98.84,97.12 C 97.894,97.12, 97.12,97.894, 97.12,98.84l0.00,10.32 c0.00,0.946, 0.774,1.719, 1.719,1.719l 5.219,0.00 l0.00-4.934 l-1.648,0.00 L 102.41,103.797 l 1.648,0.00 L 104.058,102.72 c0.00-1.66, 1.226-2.96, 2.79-2.96l 1.518,0.00 l0.00,2.427 l-1.359,0.00 c-0.355,0.00-0.459,0.204-0.459,0.486l0.00,1.123 l 1.818,0.00 l0.00,2.15 l-1.818,0.00 L 106.549,110.88 l 2.61,0.00 c 0.946,0.00, 1.719-0.774, 1.719-1.719L 110.878,98.84 C 110.88,97.894, 110.106,97.12, 109.16,97.12zM 140.293,109.707L 142.586,112.00L 144.00,110.586L 141.707,108.293L 144.00,106.00L 138.00,106.00L 138.00,112.00 zM 128.00,102.00L 134.00,102.00L 134.00,96.00L 131.707,98.293L 129.438,96.021L 128.024,97.435L 130.293,99.707 zM 128.00,110.586L 129.414,112.00L 131.707,109.707L 134.00,112.00L 134.00,106.00L 128.00,106.00L 130.293,108.293 zM 138.00,102.00L 144.00,102.00L 141.707,99.707L 143.98,97.435L 142.566,96.021L 140.293,98.293L 138.00,96.00 z"></path></svg>