<?xml version="1.0" encoding="utf-8"?> <!-- Generator: IcoMoon.io --> <!DOCTYPE svg PUBLIC "-//W3C//DTD SVG 1.1//EN" "http://www.w3.org/Graphics/SVG/1.1/DTD/svg11.dtd"> <svg width="496" height="80" viewBox="0 0 496 80" fill="#000000" xmlns="http://www.w3.org/2000/svg" xmlns:xlink="http://www.w3.org/1999/xlink"><path d="M 8.00,1.75c-3.591,0.00-6.50,2.91-6.50,6.50s 2.909,6.50, 6.50,6.50c 3.59,0.00, 6.50-2.91, 6.50-6.50 S 11.59,1.75, 8.00,1.75z M 7.947,13.514c-2.90,0.00-5.25-2.35-5.25-5.25c0.00-2.90, 2.35-5.25, 5.25-5.25c 2.899,0.00, 5.25,2.35, 5.25,5.25 C 13.197,11.163, 10.847,13.514, 7.947,13.514z M 9.465,8.566l-1.49,0.00 l0.00-2.516 c0.00-0.273-0.222-0.495-0.494-0.495 c-0.274,0.00-0.495,0.222-0.495,0.495l0.00,3.01 c0.00,0.274, 0.222,0.494, 0.495,0.494l 1.984,0.00 c 0.274,0.00, 0.495-0.221, 0.495-0.494 C 9.96,8.787, 9.739,8.566, 9.465,8.566zM 33.275,4.229c 0.39,0.21, 5.799,3.115, 6.001,3.223C 39.477,7.56, 39.738,7.612, 40.00,7.612c 0.263,0.00, 0.524-0.052, 0.725-0.161 c 0.202-0.108, 5.61-3.013, 6.00-3.223C 47.116,4.018, 47.486,3.36, 46.768,3.36L 33.233,3.36 C 32.515,3.36, 32.884,4.018, 33.275,4.229z M 46.89,5.829 c-0.444,0.232-5.894,3.081-6.166,3.223S 40.263,9.213, 40.00,9.213c-0.262,0.00-0.452-0.018-0.724-0.161S 33.554,6.06, 33.11,5.829 C 32.798,5.666, 32.80,5.857, 32.80,6.004c0.00,0.147,0.00,5.868,0.00,5.868C 32.80,12.208, 33.247,12.64, 33.594,12.64l 12.814,0.00 c 0.347,0.00, 0.793-0.432, 0.793-0.767 c0.00,0.00,0.00-5.721,0.00-5.868C 47.20,5.857, 47.203,5.666, 46.89,5.829zM 77.249,2.75c-1.154-1.154-2.02-0.982-2.02-0.982L 71.186,5.811L 66.568,10.43L 65.76,14.24l 3.81-0.808l 4.618-4.618l 4.042-4.042 C 78.23,4.772, 78.404,3.906, 77.249,2.75z M 69.343,12.974l-1.298,0.28c-0.126-0.234-0.277-0.469-0.553-0.746 c-0.276-0.276-0.511-0.426-0.746-0.552l 0.281-1.299l 0.375-0.375c0.00,0.00, 0.707,0.014, 1.505,0.812c 0.798,0.798, 0.813,1.506, 0.813,1.506 L 69.343,12.974zM 111.20,13.44c0.00,0.00-1.60-7.786-8.62-7.786L 102.58,2.56 L 96.80,7.724l 5.78,5.353l0.00-3.486 C 106.39,9.59, 109.214,9.928, 111.20,13.44zM 137.42,9.59l0.00,3.486 L 143.20,7.724L 137.42,2.56l0.00,3.093 C 130.40,5.653, 128.80,13.44, 128.80,13.44C 130.786,9.928, 133.61,9.59, 137.42,9.59zM 171.856,11.558c-1.972-0.718-2.602-1.325-2.602-2.623c0.00-0.779, 0.602-0.525, 0.866-1.952c 0.11-0.592, 0.642-0.01, 0.744-1.361 c0.00-0.538-0.29-0.673-0.29-0.673s 0.148-0.798, 0.206-1.41C 170.85,2.774, 170.338,0.80, 167.60,0.80C 164.863,0.80, 164.35,2.774, 164.422,3.539 C 164.479,4.152, 164.627,4.95, 164.627,4.95S 164.336,5.083, 164.336,5.622c 0.102,1.351, 0.634,0.769, 0.743,1.361 c 0.265,1.427, 0.867,1.173, 0.867,1.952c0.00,1.298-0.63,1.905-2.602,2.623c-1.979,0.72-3.264,1.455-3.264,1.957c0.00,0.501,0.00,1.684,0.00,1.684 l 7.52,0.00 l 7.52,0.00 c0.00,0.00,0.00-1.183,0.00-1.684C 175.12,13.014, 173.834,12.279, 171.856,11.558zM 201.902,11.558C 199.909,10.84, 199.272,10.234, 199.272,8.935c0.00-0.779, 0.609-0.525, 0.876-1.952c 0.111-0.592, 0.649-0.01, 0.75-1.361 c0.00-0.538-0.293-0.673-0.293-0.673s 0.15-0.798, 0.207-1.41C 200.885,2.774, 200.366,0.80, 197.60,0.80S 194.315,2.774, 194.387,3.539 c 0.058,0.614, 0.208,1.41, 0.208,1.41S 194.302,5.083, 194.302,5.622c 0.103,1.351, 0.641,0.769, 0.75,1.361 c 0.268,1.427, 0.877,1.173, 0.877,1.952c0.00,1.298-0.638,1.905-2.63,2.623c-0.24,0.086-0.812,0.22-1.298,0.43L 192.00,15.20 l 12.80,0.00 c0.00,0.00,0.00-1.183,0.00-1.684S 203.902,12.279, 201.902,11.558z M 205.60,7.20L 205.60,4.80 l-1.60,0.00 l0.00,2.40 l-2.40,0.00 l0.00,1.60 l 2.40,0.00 l0.00,2.40 l 1.60,0.00 l0.00-2.40 l 2.40,0.00 L 208.00,7.20 L 205.60,7.20 zM 238.40,1.60L 225.60,1.60 C 224.72,1.60, 224.00,2.32, 224.00,3.20l0.00,9.60 c0.00,0.88, 0.72,1.60, 1.60,1.60l 12.80,0.00 c 0.881,0.00, 1.60-0.72, 1.60-1.60L 240.00,3.20 C 240.00,2.32, 239.281,1.60, 238.40,1.60z M 238.40,12.80L 225.60,12.80 L 225.60,3.20 l 12.80,0.00 L 238.40,12.80 z M 231.20,9.68L 227.20,9.68 L 227.20,11.12 l 4.00,0.00 L 231.20,9.68 z M 231.20,7.28L 227.20,7.28 l0.00,1.44 l 4.00,0.00 L 231.20,7.28 z M 231.20,4.88L 227.20,4.88 l0.00,1.44 l 4.00,0.00 L 231.20,4.88 z M 236.72,10.00c0.00,0.00-1.36-0.355-1.36-1.054c0.00-0.666, 0.881-0.946, 0.881-2.306 c0.00-1.104-0.336-1.76-1.441-1.76s-1.44,0.655-1.44,1.76c0.00,1.36, 0.88,1.64, 0.88,2.306c0.00,0.699-1.359,1.054-1.359,1.054C 232.80,10.00, 232.80,11.12, 232.80,11.12 l 4.00,0.00 C 236.80,11.12, 236.80,10.00, 236.72,10.00zM 264.00,1.60C 261.79,1.60, 260.00,3.391, 260.00,5.60c0.00,3.819, 4.00,8.80, 4.00,8.80s 4.00-4.981, 4.00-8.80C 268.00,3.391, 266.21,1.60, 264.00,1.60z M 264.00,7.808c-1.193,0.00-2.16-0.967-2.16-2.16 s 0.967-2.16, 2.16-2.16s 2.16,0.967, 2.16,2.16S 265.193,7.808, 264.00,7.808zM 303.746,4.019l-3.739-2.342c-0.166-0.104-0.373-0.104-0.538,0.00L 296.00,3.85L 292.531,1.678c-0.166-0.104-0.373-0.104-0.538,0.00 L 288.254,4.019C 288.097,4.118, 288.00,4.296, 288.00,4.487l0.00,9.366 c0.00,0.197, 0.101,0.379, 0.266,0.476s 0.366,0.094, 0.527-0.007l 3.469-2.173l 3.469,2.173 c 0.166,0.104, 0.373,0.104, 0.539,0.00l 3.469-2.173l 3.469,2.173C 303.29,14.374, 303.383,14.40, 303.477,14.40c 0.089,0.00, 0.178-0.024, 0.258-0.071 C 303.898,14.232, 304.00,14.05, 304.00,13.853L 304.00,4.487 C 304.00,4.296, 303.903,4.118, 303.746,4.019z M 291.738,11.202L 289.046,12.888L 289.046,4.797 l 2.692-1.686L 291.738,11.202 z M 295.477,12.888l-2.692-1.686L 292.785,3.111 l 2.692,1.686L 295.477,12.888 z M 299.215,11.202l-2.691,1.686L 296.524,4.797 l 2.691-1.686L 299.215,11.202 z M 302.953,12.888 l-2.691-1.686L 300.262,3.111 l 2.691,1.686L 302.953,12.888 zM 324.64,9.76L 324.64,4.80 L 321.60,4.80 C 320.72,4.80, 320.00,5.52, 320.00,6.40l0.00,4.80 c0.00,0.88, 0.72,1.60, 1.60,1.60l 0.80,0.00 l0.00,2.40 l 2.40-2.40l 4.00,0.00 c 0.88,0.00, 1.60-0.72, 1.60-1.60l0.00-1.456 c-0.051,0.011-0.106,0.017-0.16,0.017L 324.64,9.761 z M 334.40,0.80L 327.20,0.80 C 326.32,0.80, 325.60,1.52, 325.60,2.40l0.00,6.40 l 5.60,0.00 l 2.40,2.40l0.00-2.40 l 0.80,0.00 c 0.88,0.00, 1.60-0.72, 1.60-1.60L 336.00,2.40 C 336.00,1.52, 335.28,0.80, 334.40,0.80zM 364.80,2.40L 355.20,2.40 C 354.32,2.40, 353.60,3.12, 353.60,4.00l0.00,5.60 c0.00,0.88, 0.72,1.60, 1.60,1.60l 3.20,0.00 l 3.20,2.40l0.00-2.40 l 3.20,0.00 c 0.88,0.00, 1.60-0.72, 1.60-1.60L 366.40,4.00 C 366.40,3.12, 365.68,2.40, 364.80,2.40zM 399.016,8.24l-6.419-6.425c-0.328-0.341-0.865-0.341-1.193,0.00L 384.984,8.24c-0.329,0.34-0.206,0.619, 0.272,0.619l 1.338,0.00 l0.00,4.934 c0.00,0.356, 0.015,0.647, 0.659,0.647l 3.116,0.00 l0.00-4.95 l 3.26,0.00 l0.00,4.95 l 3.271,0.00 c 0.491,0.00, 0.505-0.29, 0.505-0.647l0.00-4.934 l 1.338,0.00 C 399.221,8.859, 399.344,8.581, 399.016,8.24zM 430.036,12.374l-3.023-3.023c 0.456-0.75, 0.718-1.628, 0.718-2.57c0.00-2.733-2.369-5.102-5.102-5.102 C 419.896,1.68, 417.68,3.896, 417.68,6.629c0.00,2.734, 2.368,5.102, 5.102,5.102c 0.909,0.00, 1.76-0.246, 2.492-0.674l 3.039,3.04 c 0.298,0.298, 0.78,0.298, 1.077,0.00l 0.754-0.754C 430.441,13.046, 430.333,12.671, 430.036,12.374z M 419.203,6.629 c0.00-1.892, 1.534-3.426, 3.426-3.426c 1.893,0.00, 3.579,1.686, 3.579,3.579s-1.534,3.426-3.426,3.426S 419.203,8.522, 419.203,6.629zM 461.428,8.00c0.00-0.838, 0.516-1.50, 1.292-1.954c-0.141-0.467-0.325-0.916-0.553-1.338c-0.872,0.228-1.577-0.114-2.169-0.706 c-0.594-0.593-0.775-1.298-0.547-2.169c-0.422-0.228-0.869-0.414-1.338-0.554C 457.659,2.057, 456.838,2.573, 456.00,2.573 c-0.838,0.00-1.658-0.516-2.114-1.293C 453.418,1.419, 452.97,1.606, 452.549,1.833C 452.776,2.704, 452.595,3.41, 452.002,4.002 C 451.41,4.594, 450.704,4.936, 449.834,4.709C 449.606,5.13, 449.42,5.578, 449.28,6.046C 450.057,6.50, 450.573,7.162, 450.573,8.00 c0.00,0.838-0.516,1.659-1.293,2.114c 0.14,0.468, 0.326,0.916, 0.554,1.338c 0.871-0.228, 1.576-0.046, 2.169,0.546 c 0.593,0.593, 0.774,1.298, 0.546,2.169c 0.422,0.228, 0.87,0.414, 1.338,0.554c 0.455-0.778, 1.276-1.293, 2.114-1.293 c 0.838,0.00, 1.66,0.516, 2.114,1.293c 0.469-0.14, 0.916-0.326, 1.338-0.554c-0.228-0.871-0.047-1.576, 0.547-2.169 c 0.592-0.592, 1.297-0.934, 2.169-0.706c 0.228-0.422, 0.413-0.87, 0.553-1.338C 461.944,9.499, 461.428,8.838, 461.428,8.00z M 456.00,10.922 c-1.614,0.00-2.922-1.309-2.922-2.922S 454.386,5.078, 456.00,5.078c 1.614,0.00, 2.922,1.309, 2.922,2.922S 457.614,10.922, 456.00,10.922zM 488.00,6.40c-1.325,0.00-2.40,1.075-2.40,2.40c0.00,1.326, 1.075,2.40, 2.40,2.40c 1.326,0.00, 2.40-1.074, 2.40-2.40C 490.40,7.475, 489.326,6.40, 488.00,6.40z M 494.40,4.00l-1.919,0.00 c-0.264,0.00-0.549-0.205-0.632-0.455l-0.496-1.489C 491.268,1.805, 490.984,1.60, 490.72,1.60L 485.28,1.60 C 485.016,1.60, 484.731,1.805, 484.649,2.055L 484.151,3.545 C 484.068,3.795, 483.784,4.00, 483.52,4.00L 481.60,4.00 C 480.72,4.00, 480.00,4.72, 480.00,5.60l0.00,7.20 c0.00,0.88, 0.72,1.60, 1.60,1.60l 12.80,0.00 c 0.881,0.00, 1.60-0.72, 1.60-1.60L 496.00,5.60 C 496.00,4.72, 495.281,4.00, 494.40,4.00z M 488.00,12.80 c-2.21,0.00-4.00-1.79-4.00-4.00c0.00-2.209, 1.79-4.00, 4.00-4.00c 2.209,0.00, 4.00,1.791, 4.00,4.00C 492.00,11.01, 490.209,12.80, 488.00,12.80z M 493.84,6.718 c-0.309,0.00-0.559-0.25-0.559-0.56s 0.25-0.56, 0.559-0.56c 0.31,0.00, 0.56,0.25, 0.56,0.56S 494.15,6.718, 493.84,6.718zM 4.888,34.183l0.00,9.494c-0.517-0.108-1.118-0.067-1.715,0.154c-1.342,0.498-1.815,1.712-1.459,2.709 c 0.355,0.998, 1.406,1.401, 2.747,0.902c 1.139-0.423, 1.886-1.361, 1.866-2.246c0.00,0.00,0.00-5.034,0.00-7.842l 5.681-1.302l0.00,6.024 c-0.517-0.108-1.118-0.067-1.715,0.154c-1.342,0.498-1.816,1.712-1.46,2.709c 0.356,0.998, 1.406,1.401, 2.748,0.902 c 1.14-0.423, 1.885-1.361, 1.867-2.246L 13.448,32.344 L 4.888,34.183zM 40.00,35.52C 34.751,35.52, 32.00,39.386, 32.00,40.00s 2.751,4.48, 8.00,4.48s 8.00-3.866, 8.00-4.48S 45.249,35.52, 40.00,35.52z M 40.00,43.446 c-1.963,0.00-3.555-1.543-3.555-3.446S 38.037,36.554, 40.00,36.554c 1.964,0.00, 3.556,1.543, 3.556,3.446S 41.964,43.446, 40.00,43.446z M 40.00,40.00 c-0.325-0.357, 0.531-1.722,0.00-1.722c-0.982,0.00-1.778,0.771-1.778,1.722S 39.018,41.723, 40.00,41.723c 0.982,0.00, 1.778-0.772, 1.778-1.723 C 41.778,39.563, 40.278,40.304, 40.00,40.00zM 77.60,34.40l-0.72,0.00 l0.00,1.60 L 74.32,36.00 L 74.32,34.40 L 69.68,34.40 l0.00,1.60 L 67.12,36.00 L 67.12,34.40 L 66.40,34.40 C 65.52,34.40, 64.80,35.12, 64.80,36.00l0.00,9.60 c0.00,0.88, 0.72,1.60, 1.60,1.60l 11.20,0.00 c 0.88,0.00, 1.60-0.72, 1.60-1.60L 79.20,36.00 C 79.20,35.12, 78.48,34.40, 77.60,34.40z M 77.60,45.60L 66.40,45.60 L 66.40,39.20 l 11.20,0.00 L 77.60,45.60 z M 68.96,32.80L 67.84,32.80 l0.00,2.72 l 1.12,0.00 L 68.96,32.80 z M 76.16,32.80l-1.12,0.00 l0.00,2.72 l 1.12,0.00 L 76.16,32.80 zM 104.817,45.60L 98.384,45.60 L 98.384,34.40 l 6.432,0.00 l0.00,2.40 L 106.40,36.80 L 106.40,34.40 c0.00-0.88-0.719-1.60-1.60-1.60L 98.40,32.80 C 97.52,32.80, 96.80,33.52, 96.80,34.40l0.00,11.20 c0.00,0.88, 0.72,1.60, 1.60,1.60l 6.40,0.00 c 0.881,0.00, 1.60-0.72, 1.60-1.60l0.00-1.60 l-1.583,0.00 L 104.817,45.60 z M 111.20,40.40l-3.183-3.12L 108.017,39.20 l-7.20,0.00 l0.00,2.40 l 7.20,0.00 l0.00,1.92 L 111.20,40.40zM 141.60,32.80L 134.40,32.80 C 133.52,32.80, 132.816,33.52, 132.816,34.40l0.00,2.40 L 134.40,36.80 L 134.40,34.40 l 7.20,0.00 l0.00,11.20 L 134.40,45.60 l0.00-1.60 L 132.816,44.00 l0.00,1.60 c0.00,0.88, 0.704,1.60, 1.584,1.60l 7.20,0.00 c 0.88,0.00, 1.60-0.72, 1.60-1.60L 143.20,34.40 C 143.20,33.52, 142.48,32.80, 141.60,32.80z M 136.00,43.52l 3.20-3.12l-3.20-3.12L 136.00,39.20 L 128.80,39.20 l0.00,2.40 l 7.20,0.00 L 136.00,43.52 zM 166.636,45.60c-0.348,0.00-0.678-0.162-0.889-0.442L 162.888,41.383c-0.372-0.491-0.275-1.19, 0.216-1.562 c 0.492-0.373, 1.19-0.275, 1.562,0.216l 1.881,2.483l 4.73-7.593c 0.326-0.522, 1.014-0.682, 1.537-0.357 c 0.522,0.325, 0.682,1.014, 0.356,1.536L 167.583,45.074c-0.194,0.313-0.53,0.509-0.897,0.525C 166.67,45.60, 166.653,45.60, 166.636,45.60zM 203.479,42.522L 201.273,40.00l 2.206-2.522c 0.375-0.375, 0.375-0.983,0.00-1.358c-0.375-0.374-0.983-0.374-1.358,0.00L 200.00,38.546 l-2.121-2.424c-0.375-0.375-0.983-0.375-1.358,0.00c-0.374,0.375-0.374,0.983,0.00,1.358L 198.727,40.00l-2.206,2.522 c-0.374,0.375-0.374,0.982,0.00,1.356c 0.375,0.375, 0.983,0.375, 1.358,0.00L 200.00,41.454l 2.121,2.423c 0.375,0.375, 0.983,0.375, 1.358,0.00 S 203.854,42.897, 203.479,42.522zM 232.00,32.32c-4.242,0.00-7.68,3.438-7.68,7.68s 3.438,7.68, 7.68,7.68c 4.242,0.00, 7.68-3.438, 7.68-7.68S 236.242,32.32, 232.00,32.32z M 236.133,35.869 l-0.002-0.002C 236.131,35.868, 236.133,35.869, 236.133,35.869z M 226.157,40.00c0.00-3.227, 2.616-5.843, 5.843-5.843c 1.403,0.00, 2.691,0.494, 3.699,1.318 L 227.476,43.698C 226.651,42.69, 226.157,41.403, 226.157,40.00z M 227.867,44.131l 0.002,0.002C 227.868,44.132, 227.868,44.132, 227.867,44.131z M 232.00,45.844 c-1.403,0.00-2.69-0.495-3.698-1.319L 236.523,36.302c 0.825,1.007, 1.32,2.294, 1.32,3.698C 237.844,43.227, 235.226,45.844, 232.00,45.844zM 263.902,32.641c-4.064,0.054-7.315,3.394-7.261,7.458c 0.054,4.062, 3.394,7.314, 7.458,7.26 c 4.064-0.054, 7.315-3.394, 7.261-7.458C 271.306,35.838, 267.966,32.586, 263.902,32.641z M 264.718,35.094c 0.748,0.00, 0.969,0.434, 0.969,0.93 c0.00,0.62-0.497,1.194-1.344,1.194c-0.709,0.00-1.046-0.357-1.026-0.946C 263.317,35.775, 263.733,35.094, 264.718,35.094z M 262.799,44.60 c-0.511,0.00-0.886-0.31-0.528-1.675l 0.586-2.419c 0.102-0.388, 0.118-0.543,0.00-0.543c-0.153,0.00-0.817,0.268-1.21,0.532l-0.255-0.418 c 1.244-1.038, 2.674-1.648, 3.287-1.648c 0.511,0.00, 0.596,0.605, 0.341,1.535l-0.672,2.544c-0.118,0.45-0.067,0.605, 0.051,0.605 c 0.153,0.00, 0.656-0.186, 1.15-0.574l 0.289,0.388C 264.63,44.134, 263.311,44.60, 262.799,44.60zM 295.902,32.641c-4.065,0.054-7.316,3.394-7.262,7.458c 0.054,4.062, 3.394,7.314, 7.458,7.26 c 4.063-0.054, 7.315-3.394, 7.26-7.458C 303.306,35.838, 299.966,32.586, 295.902,32.641z M 295.881,44.48L 295.84,44.48 c-0.626-0.018-1.067-0.48-1.05-1.097 c 0.018-0.606, 0.47-1.046, 1.075-1.046l 0.037,0.001c 0.643,0.019, 1.08,0.476, 1.061,1.11C 296.946,44.055, 296.50,44.48, 295.881,44.48z M 298.514,39.254c-0.148,0.209-0.471,0.469-0.879,0.786l-0.45,0.31c-0.246,0.192-0.395,0.372-0.45,0.549 c-0.045,0.141-0.066,0.177-0.07,0.461l-0.001,0.073L 294.95,41.434 l 0.005-0.146c 0.021-0.597, 0.036-0.947, 0.283-1.238 c 0.388-0.455, 1.244-1.006, 1.28-1.03c 0.122-0.093, 0.226-0.198, 0.303-0.31c 0.18-0.248, 0.259-0.444, 0.259-0.635 c0.00-0.266-0.079-0.513-0.235-0.732c-0.15-0.212-0.436-0.319-0.849-0.319c-0.41,0.00-0.69,0.13-0.858,0.397 C 294.965,37.696, 294.878,37.983, 294.878,38.278l0.00,0.074 l-1.768,0.00 l 0.003-0.077c 0.046-1.083, 0.432-1.862, 1.149-2.318C 294.712,35.666, 295.272,35.52, 295.925,35.52 c 0.855,0.00, 1.578,0.208, 2.146,0.618c 0.576,0.415, 0.868,1.038, 0.868,1.849C 298.939,38.441, 298.796,38.867, 298.514,39.254zM 335.61,46.386L 328.483,33.881C 328.385,33.708, 328.20,33.602, 328.00,33.602c-0.20,0.00-0.384,0.106-0.483,0.279L 320.391,46.386 c-0.097,0.17-0.095,0.377, 0.004,0.545s 0.282,0.271, 0.478,0.271l 14.252,0.00 c 0.195,0.00, 0.378-0.103, 0.478-0.271 C 335.703,46.762, 335.705,46.555, 335.61,46.386z M 328.88,45.602L 327.12,45.602 l0.00-1.60 l 1.76,0.00 L 328.88,45.602 z M 328.88,42.802L 327.12,42.802 l0.00-4.80 l 1.76,0.00 L 328.88,42.802 zM 357.60,39.20L 352.80,39.20 c-0.442,0.00-0.80,0.358-0.80,0.80s 0.358,0.80, 0.80,0.80l 4.80,0.00 c 0.442,0.00, 0.80-0.358, 0.80-0.80S 358.042,39.20, 357.60,39.20z M 357.60,42.40L 352.80,42.40 c-0.442,0.00-0.80,0.358-0.80,0.80s 0.358,0.80, 0.80,0.80l 4.80,0.00 c 0.442,0.00, 0.80-0.358, 0.80-0.80S 358.042,42.40, 357.60,42.40z M 367.52,39.20L 364.80,39.20 L 364.80,36.48 C 364.80,36.038, 364.442,36.00, 364.00,36.00s-0.80,0.038-0.80,0.48L 363.20,39.20 l-2.64,0.00 C 360.118,39.20, 360.08,39.558, 360.08,40.00 s 0.038,0.80, 0.481,0.80L 363.20,40.80 l0.00,2.72 c0.00,0.442, 0.358,0.48, 0.80,0.48s 0.80-0.038, 0.80-0.48L 364.80,40.80 l 2.72,0.00 c 0.442,0.00, 0.48-0.358, 0.48-0.80S 367.962,39.20, 367.52,39.20z M 357.60,36.00L 352.80,36.00 C 352.358,36.00, 352.00,36.358, 352.00,36.80s 0.358,0.80, 0.80,0.80l 4.80,0.00 c 0.442,0.00, 0.80-0.358, 0.80-0.80S 358.042,36.00, 357.60,36.00zM 396.80,39.20L 387.20,39.20 c-0.442,0.00-0.80,0.358-0.80,0.80s 0.358,0.80, 0.80,0.80l 9.60,0.00 c 0.442,0.00, 0.80-0.358, 0.80-0.80S 397.242,39.20, 396.80,39.20z M 387.20,37.60l 9.60,0.00 c 0.442,0.00, 0.80-0.358, 0.80-0.80 s-0.358-0.80-0.80-0.80L 387.20,36.00 C 386.758,36.00, 386.40,36.358, 386.40,36.80S 386.758,37.60, 387.20,37.60z M 396.80,42.40L 387.20,42.40 c-0.442,0.00-0.80,0.358-0.80,0.80s 0.358,0.80, 0.80,0.80l 9.60,0.00 c 0.442,0.00, 0.80-0.358, 0.80-0.80 S 397.242,42.40, 396.80,42.40zM 421.778,40.696l 4.48,0.00 l0.00-1.44 l-4.48,0.00 L 421.778,40.696 z M 428.00,32.80L 420.00,32.80 C 419.12,32.80, 418.40,33.52, 418.40,34.40l0.00,11.20 c0.00,0.88, 0.72,1.60, 1.60,1.60l 8.00,0.00 c 0.88,0.00, 1.60-0.72, 1.60-1.60L 429.60,34.40 C 429.60,33.52, 428.88,32.80, 428.00,32.80z M 428.00,45.60L 420.00,45.60 L 420.00,34.40 l 8.00,0.00 L 428.00,45.60 z M 426.24,36.135L 421.76,36.135 l0.00,1.40 l 4.48,0.00 L 426.24,36.135 z M 426.24,42.416L 421.76,42.416 l0.00,1.40 l 4.48,0.00 L 426.24,42.416 zM 461.70,37.738l-1.637-4.509c-0.121-0.333-0.476-0.509-0.791-0.394L 448.394,36.806C 448.078,36.921 447.919,37.284, 448.04,37.617 l 1.726,4.754L 449.766,39.822 c0.00-1.15, 0.918-2.084, 2.049-2.084l 2.874,0.00 l 3.428-2.406l 1.984,2.406L 461.70,37.738 z M 463.39,39.182L 451.814,39.182 c-0.336,0.00-0.61,0.287-0.61,0.642l0.00,7.537 c0.00,0.354, 0.273,0.642, 0.61,0.642l 11.576,0.00 c 0.337,0.00, 0.61-0.287, 0.61-0.642L 464.00,39.822 C 464.00,39.469, 463.727,39.182, 463.39,39.182z M 462.507,46.398L 452.911,46.398 l0.00-1.375 l 1.476-3.436l 2.215,2.75l 2.078-2.13l 2.671-0.964l 1.156,2.578 L 462.507,46.398 zM 492.138,33.60L 483.20,33.60 C 482.32,33.60, 481.60,34.32, 481.60,35.20l0.00,9.60 c0.00,0.88, 0.72,1.60, 1.60,1.60l 9.60,0.00 c 0.88,0.00, 1.60-0.72, 1.60-1.60L 494.40,36.102 L 492.138,33.60z M 491.20,38.40c0.00,0.44-0.36,0.80-0.80,0.80L 485.60,39.20 C 485.16,39.20, 484.80,38.84, 484.80,38.40L 484.80,34.40 l 6.40,0.00 L 491.20,38.40 z M 490.40,35.20l-1.60,0.00 l0.00,3.20 l 1.60,0.00 L 490.40,35.20 zM 15.36,67.434c-0.542,0.241-1.124,0.402-1.735,0.476c 0.624-0.374, 1.103-0.966, 1.328-1.67c-0.583,0.346-1.23,0.598-1.917,0.733 c-0.551-0.587-1.336-0.954-2.205-0.954c-1.668,0.00-3.02,1.352-3.02,3.019c0.00,0.237, 0.026,0.467, 0.078,0.688 c-2.51-0.126-4.735-1.328-6.224-3.155C 1.405,67.017, 1.255,67.536, 1.255,68.09c0.00,1.048, 0.534,1.972, 1.344,2.514 c-0.495-0.016-0.961-0.151-1.368-0.378c0.00,0.013,0.00,0.025,0.00,0.038c0.00,1.463, 1.042,2.683, 2.422,2.962c-0.253,0.069-0.52,0.106-0.796,0.106 c-0.194,0.00-0.383-0.018-0.568-0.054c 0.384,1.20, 1.50,2.073, 2.821,2.097c-1.034,0.81-2.335,1.293-3.75,1.293 c-0.244,0.00-0.484-0.014-0.72-0.042c 1.336,0.857, 2.923,1.357, 4.63,1.357c 5.554,0.00, 8.592-4.602, 8.592-8.593 c0.00-0.13-0.002-0.261-0.009-0.39C 14.443,68.572, 14.954,68.04, 15.36,67.434zM 45.16,65.12L 34.84,65.12 C 33.894,65.12, 33.12,65.894, 33.12,66.84l0.00,10.32 c0.00,0.946, 0.774,1.719, 1.719,1.719l 5.219,0.00 l0.00-4.934 l-1.648,0.00 L 38.41,71.797 l 1.648,0.00 L 40.058,70.72 c0.00-1.66, 1.226-2.96, 2.79-2.96l 1.518,0.00 l0.00,2.427 l-1.359,0.00 c-0.355,0.00-0.459,0.204-0.459,0.486l0.00,1.123 l 1.818,0.00 l0.00,2.15 l-1.818,0.00 L 42.549,78.88 l 2.61,0.00 c 0.946,0.00, 1.719-0.774, 1.719-1.719L 46.878,66.84 C 46.88,65.894, 46.106,65.12, 45.16,65.12z"></path></svg>