<?xml version="1.0" encoding="utf-8"?> <!-- Generator: IcoMoon.io --> <!DOCTYPE svg PUBLIC "-//W3C//DTD SVG 1.1//EN" "http://www.w3.org/Graphics/SVG/1.1/DTD/svg11.dtd"> <svg width="496" height="112" viewBox="0 0 496 112" fill="#777777" xmlns="http://www.w3.org/2000/svg" xmlns:xlink="http://www.w3.org/1999/xlink"><path d="M 15.438,8.578l-3.891,0.563l 2.891,2.969q 0.234,0.328 0.172,0.734t-0.375,0.641l-3.063,2.328q-0.313,0.234 -0.695,0.172t-0.617-0.391l-1.734-3.641l-1.734,3.641q-0.234,0.328 -0.617,0.391t-0.695-0.172l-3.063-2.328q-0.313-0.234 -0.375-0.641t 0.172-0.734l 2.891-2.969l-3.891-0.563q-0.391-0.125 -0.578-0.484t-0.063-0.734l 1.234-3.688q 0.125-0.391 0.492-0.57t 0.758-0.055l 3.078,1.547l-0.609-3.594 q0.00-0.406 0.297-0.703t 0.703-0.297l 4.00,0.00 q 0.406,0.00 0.703,0.297t 0.297,0.703l-0.609,3.594l 3.078-1.547q 0.391-0.125 0.758,0.055t 0.492,0.57l 1.234,3.688q 0.125,0.375 -0.063,0.734t-0.578,0.484zM 40.00,10.00c0.00,0.00-5.333,0.00-7.333,4.667c0.00,0.00, 3.34,1.333, 7.333,1.333s 7.333-1.333, 7.333-1.333C 45.333,10.00, 40.00,10.00, 40.00,10.00z M 40.00,9.333c 2.00,0.00, 3.333-2.00, 3.333-5.333s-3.333-3.333-3.333-3.333S 36.667,0.667, 36.667,4.00S 38.00,9.333, 40.00,9.333zM 79.988,9.491l-1.49,1.491l-1.491-1.491l-1.491,1.491l-1.49-1.491 L 75.514,8.00l-1.49-1.491l 1.49-1.491l 1.491,1.491l 1.491-1.491l 1.49,1.491L 78.497,8.00L 79.988,9.491z M 72.008,15.996L 68.01,11.998L 65.012,11.998 c-0.552,0.00-0.999-0.447-0.999-0.999L 64.012,5.002 c0.00-0.552, 0.447-0.999, 0.999-0.999 l 2.998,0.00 L 72.008,0.004c0.00,0.00, 0.999-0.125, 0.999,0.999c0.00,5.423,0.00,13.304,0.00,13.993 C 73.008,16.121, 72.008,15.996, 72.008,15.996z M 71.009,4.002l-1.999,1.999L 66.011,6.001 l0.00,3.998 l 2.998,0.00 l 1.999,1.999L 71.009,4.002 zM 112.964,2.304q 0.179,0.071 0.179,0.268l0.00,10.857 q0.00,0.196 -0.179,0.268q-0.071,0.018 -0.107,0.018q-0.107,0.00 -0.205-0.08l-5.223-5.232l0.00,2.741 q0.00,1.063 -0.754,1.817t-1.817,0.754l-6.286,0.00 q-1.063,0.00 -1.817-0.754t-0.754-1.817l0.00-6.286 q0.00-1.063 0.754-1.817t 1.817-0.754l 6.286,0.00 q 1.063,0.00 1.817,0.754t 0.754,1.817l0.00,2.741 l 5.223-5.232q 0.143-0.134 0.313-0.063zM 137.143,12.277l0.00-1.696 q0.00-0.125 -0.085-0.21t-0.201-0.085l-1.714,0.00 q-0.116,0.00 -0.201,0.085t-0.085,0.21l0.00,1.696 q0.00,0.125 0.085,0.21t 0.201,0.085l 1.714,0.00 q 0.116,0.00 0.201-0.085t 0.085-0.21zM 137.125,8.938l 0.161-4.098q0.00-0.107 -0.089-0.17q-0.116-0.098 -0.214-0.098l-1.964,0.00 q-0.098,0.00 -0.214,0.098q-0.089,0.063 -0.089,0.188l 0.152,4.08q0.00,0.089 0.089,0.147t 0.214,0.058l 1.652,0.00 q 0.125,0.00 0.21-0.058t 0.094-0.147zM 137.00,0.598l 6.857,12.571q 0.313,0.563 -0.018,1.125q-0.152,0.259 -0.415,0.411t-0.567,0.152l-13.714,0.00 q-0.304,0.00 -0.567-0.152t-0.415-0.411q-0.33-0.563 -0.018-1.125l 6.857-12.571q 0.152-0.277 0.42-0.438t 0.58-0.161t 0.58,0.161t 0.42,0.438zM 168.00,16.00C 163.582,16.00, 160.00,12.418, 160.00,8.00S 163.582,0.00, 168.00,0.00s 8.00,3.582, 8.00,8.00S 172.418,16.00, 168.00,16.00z M 168.00,1.455c-3.615,0.00-6.545,2.93-6.545,6.545s 2.93,6.545, 6.545,6.545s 6.545-2.93, 6.545-6.545S 171.615,1.455, 168.00,1.455z M 171.279,11.863l-0.188,0.113l-0.545,0.341l-0.321,0.241 c-0.239,0.116-0.488,0.209-0.746,0.288l0.00-0.324 l-0.091-0.75c0.00,0.00-0.045-0.432-0.113-0.545s-0.227-0.273-0.386-0.341 s-0.273-0.068-0.364-0.182s-0.159-0.319-0.273-0.50S 168.00,9.841, 168.00,9.75S 168.00,8.727, 168.00,8.727l 0.113-0.864l 0.25-0.182l 0.295-0.341L 168.864,7.273 l 0.705,0.137l 0.50,0.00 l 0.204,0.432l 0.477,0.386l 0.295,0.477l 0.386,0.137l 0.432,0.00 l 0.295,0.364l 0.182,0.386l 0.068,0.273l0.00,0.455 l-0.047,0.268 C 172.073,11.073, 171.708,11.50, 171.279,11.863z M 169.523,4.023l-0.50,0.273l-0.182,0.523L 168.545,5.091l-0.977,0.00 L 167.113,5.273L 167.091,5.636 L 166.909,5.932L 166.864,6.25l 0.091,0.273l 0.113,0.273c0.00,0.00, 0.273,0.319,0.00,0.545c0.00,0.00-0.341,0.00-0.409-0.113S 166.091,6.796, 166.00,6.705 s-0.386-0.182-0.386-0.182l-0.364-0.137L 164.909,6.364l 0.023-0.477L 164.909,5.477L 164.772,5.182L 164.386,4.887L 164.364,4.568l 0.047-0.177 C 165.331,3.476, 166.599,2.909, 168.00,2.909c 0.791,0.00, 1.529,0.196, 2.197,0.517L 170.182,3.545L 169.523,4.023zM 206.545,13.818L 193.455,13.818 c-0.803,0.00-1.455-0.652-1.455-1.455L 192.00,3.636 c0.00-0.803, 0.652-1.455, 1.455-1.455l 13.091,0.00 c 0.803,0.00, 1.455,0.652, 1.455,1.455l0.00,8.727 C 208.00,13.167, 207.348,13.818, 206.545,13.818z M 205.818,12.364l-4.169-3.648L 200.00,10.182l-1.649-1.466L 194.182,12.364L 205.818,12.364 z M 193.455,11.636l 4.091-3.636L 193.455,4.364L 193.455,11.636 z M 194.182,3.636l 5.818,5.091l 5.818-5.091L 194.182,3.636 z M 206.545,4.364 l-4.091,3.636L 206.545,11.636L 206.545,4.364 zM 238.545,16.00L 225.455,16.00 c-0.803,0.00-1.455-0.652-1.455-1.455L 224.00,1.455 c0.00-0.803, 0.652-1.455, 1.455-1.455l 10.909,0.00 l-1.455,1.455L 225.455,1.455 l0.00,13.091 l 13.091,0.00 L 238.545,5.091 l 1.455-1.455l0.00,10.909 C 240.00,15.348, 239.348,16.00, 238.545,16.00z M 237.636,1.273L 238.909,0.00c0.00,0.00, 1.091-0.023, 1.091,1.068l-1.283,1.286L 237.636,1.273z M 230.545,9.455l0.00-1.091 l 0.545-0.545 l 1.09,1.09L 231.636,9.455L 230.545,9.455 z M 237.991,3.082l-5.447,5.462L 231.455,7.455l 5.455-5.455L 237.991,3.082zM 264.00,0.393l 2.637,4.781l 5.362,1.03l-3.733,3.985l 0.678,5.418L 264.00,13.289 l-4.943,2.318l 0.678-5.418L 256.001,6.204l 5.362-1.03L 264.00,0.393M 300.266,10.189l 0.678,5.418L 296.00,13.289l-4.943,2.318l 0.678-5.418L 288.001,6.204 l 5.362-1.03L 296.00,0.393l 2.637,4.781l 5.362,1.03L 300.266,10.189z M 297.812,6.058L 296.00,2.771L 294.188,6.058L 290.501,6.766l 2.566,2.74L 292.602,13.23 L 296.00,11.637l 3.398,1.594l-0.466-3.725l 2.566-2.74L 297.812,6.058zM 327.75,14.75c-3.59,0.00-6.50-2.91-6.50-6.50s 2.91-6.50, 6.50-6.50s 6.50,2.91, 6.50,6.50 S 331.34,14.75, 327.75,14.75z M 330.969,7.969c0.00-0.276-0.224-0.50-0.50-0.50l-2.00,0.00 l0.00-2.00 c0.00-0.276-0.224-0.50-0.50-0.50l-0.50,0.00 c-0.277,0.00-0.50,0.224-0.50,0.50l0.00,2.00 l-2.00,0.00 c-0.277,0.00-0.50,0.224-0.50,0.50l0.00,0.50 c0.00,0.277, 0.224,0.50, 0.50,0.50l 2.00,0.00 l0.00,2.00 c0.00,0.277, 0.224,0.50, 0.50,0.50l 0.50,0.00 c 0.277,0.00, 0.50-0.224, 0.50-0.50l0.00-2.00 l 2.00,0.00 c 0.276,0.00, 0.50-0.224, 0.50-0.50L 330.969,7.969 zM 359.75,1.75c-3.59,0.00-6.50,2.91-6.50,6.50s 2.91,6.50, 6.50,6.50c 3.59,0.00, 6.50-2.91, 6.50-6.50 S 363.34,1.75, 359.75,1.75z M 363.00,8.438c0.00,0.277-0.224,0.50-0.50,0.50L 357.00,8.938 c-0.277,0.00-0.50-0.224-0.50-0.50l0.00-0.50 c0.00-0.276, 0.224-0.50, 0.50-0.50l 5.50,0.00 c 0.276,0.00, 0.50,0.224, 0.50,0.50 L 363.00,8.438 zM 396.501,4.197l0.00,6.266 l 2.019,0.00 l0.00,2.019 L 387.491,12.483 L 387.491,1.516 l 2.019,0.00 l0.00,1.988 L 395.725,3.505 l 2.32-2.32 l 0.703,0.703L 396.501,4.197z M 389.511,5.492L 389.511,9.75 l 4.226-4.258L 389.511,5.492 z M 394.482,6.185l-4.309,4.279l 4.309,0.00 L 394.482,6.185 z M 385.503,3.505l 1.522,0.00 l0.00,1.988 L 385.503,5.493 L 385.503,3.505 z M 396.501,14.471l-2.019,0.00 L 394.482,12.98 l 2.019,0.00 L 396.501,14.471 zM 424.451,3.002l 4.563,0.00 l-0.01,4.614l-1.565-1.564l-1.474,1.474 c 0.331,0.582, 0.521,1.254, 0.521,1.97c0.00,2.209-1.79,4.00-4.00,4.00c-2.209,0.00-4.00-1.791-4.00-4.00c0.00-2.209, 1.791-4.00, 4.00-4.00c 0.762,0.00, 1.473,0.217, 2.08,0.588 l 1.459-1.478L 424.451,3.002z M 420.487,9.498c0.00,1.105, 0.895,2.00, 2.00,2.00s 2.00-0.895, 2.00-2.00s-0.895-2.00-2.00-2.00S 420.487,8.393, 420.487,9.498zM 457.02,9.361l0.00,1.647 l 1.998,0.00 l0.00,1.998 l-1.998,0.00 l0.00,1.998 l-2.029,0.00 L 454.991,13.005 L 452.994,13.005 l0.00-1.998 l 1.998,0.00 l0.00-1.653 c-1.718-0.448-2.986-2.005-2.986-3.861c0.00-2.207, 1.789-3.995, 3.995-3.995c 2.207,0.00, 3.995,1.789, 3.995,3.995 C 459.995,7.357, 458.747,8.919, 457.02,9.361z M 456.00,3.495c-1.103,0.00-1.998,0.894-1.998,1.998c0.00,1.103, 0.894,1.998, 1.998,1.998 c 1.103,0.00, 1.998-0.894, 1.998-1.998C 457.998,4.389, 457.104,3.495, 456.00,3.495zM 493.249,2.75c-1.154-1.154-2.02-0.982-2.02-0.982L 487.186,5.811L 482.568,10.43L 481.76,14.24l 3.81-0.808l 4.618-4.618l 4.042-4.042 C 494.23,4.772, 494.404,3.906, 493.249,2.75z M 485.343,12.974l-1.298,0.28c-0.126-0.234-0.277-0.469-0.553-0.746 c-0.276-0.276-0.511-0.426-0.746-0.552l 0.281-1.299l 0.375-0.375c0.00,0.00, 0.707,0.014, 1.505,0.812c 0.798,0.798, 0.813,1.506, 0.813,1.506 L 485.343,12.974zM 15.20,45.44c0.00,0.00-1.60-7.786-8.62-7.786L 6.58,34.56 L 0.80,39.724l 5.78,5.353l0.00-3.486 C 10.39,41.59, 13.214,41.928, 15.20,45.44zM 41.42,41.59l0.00,3.486 L 47.20,39.724L 41.42,34.56l0.00,3.093 C 34.40,37.653, 32.80,45.44, 32.80,45.44C 34.786,41.928, 37.61,41.59, 41.42,41.59zM 75.856,43.558c-1.972-0.718-2.602-1.325-2.602-2.623c0.00-0.779, 0.602-0.525, 0.866-1.952c 0.11-0.592, 0.642-0.01, 0.744-1.361 c0.00-0.538-0.29-0.673-0.29-0.673s 0.148-0.798, 0.206-1.41C 74.85,34.774, 74.338,32.80, 71.60,32.80C 68.863,32.80, 68.35,34.774, 68.422,35.539 C 68.479,36.152, 68.627,36.95, 68.627,36.95S 68.336,37.083, 68.336,37.622c 0.102,1.351, 0.634,0.769, 0.743,1.361 c 0.265,1.427, 0.867,1.173, 0.867,1.952c0.00,1.298-0.63,1.905-2.602,2.623c-1.979,0.72-3.264,1.455-3.264,1.957c0.00,0.501,0.00,1.684,0.00,1.684 l 7.52,0.00 l 7.52,0.00 c0.00,0.00,0.00-1.183,0.00-1.684C 79.12,45.014, 77.834,44.279, 75.856,43.558zM 105.902,43.558C 103.909,42.84, 103.272,42.234, 103.272,40.935c0.00-0.779, 0.609-0.525, 0.876-1.952c 0.111-0.592, 0.649-0.01, 0.75-1.361 c0.00-0.538-0.293-0.673-0.293-0.673s 0.15-0.798, 0.207-1.41C 104.885,34.774, 104.366,32.80, 101.60,32.80S 98.315,34.774, 98.387,35.539 c 0.058,0.614, 0.208,1.41, 0.208,1.41S 98.302,37.083, 98.302,37.622c 0.103,1.351, 0.641,0.769, 0.75,1.361 c 0.268,1.427, 0.877,1.173, 0.877,1.952c0.00,1.298-0.638,1.905-2.63,2.623c-0.24,0.086-0.812,0.22-1.298,0.43L 96.00,47.20 l 12.80,0.00 c0.00,0.00,0.00-1.183,0.00-1.684S 107.902,44.279, 105.902,43.558z M 109.60,39.20L 109.60,36.80 l-1.60,0.00 l0.00,2.40 l-2.40,0.00 l0.00,1.60 l 2.40,0.00 l0.00,2.40 l 1.60,0.00 l0.00-2.40 l 2.40,0.00 L 112.00,39.20 L 109.60,39.20 zM 142.40,33.60L 129.60,33.60 C 128.72,33.60, 128.00,34.32, 128.00,35.20l0.00,9.60 c0.00,0.88, 0.72,1.60, 1.60,1.60l 12.80,0.00 c 0.881,0.00, 1.60-0.72, 1.60-1.60L 144.00,35.20 C 144.00,34.32, 143.281,33.60, 142.40,33.60z M 142.40,44.80L 129.60,44.80 L 129.60,35.20 l 12.80,0.00 L 142.40,44.80 z M 135.20,41.68L 131.20,41.68 L 131.20,43.12 l 4.00,0.00 L 135.20,41.68 z M 135.20,39.28L 131.20,39.28 l0.00,1.44 l 4.00,0.00 L 135.20,39.28 z M 135.20,36.88L 131.20,36.88 l0.00,1.44 l 4.00,0.00 L 135.20,36.88 z M 140.72,42.00c0.00,0.00-1.36-0.355-1.36-1.054c0.00-0.666, 0.881-0.946, 0.881-2.306 c0.00-1.104-0.336-1.76-1.441-1.76s-1.44,0.655-1.44,1.76c0.00,1.36, 0.88,1.64, 0.88,2.306c0.00,0.699-1.359,1.054-1.359,1.054C 136.80,42.00, 136.80,43.12, 136.80,43.12 l 4.00,0.00 C 140.80,43.12, 140.80,42.00, 140.72,42.00zM 168.00,33.60C 165.79,33.60, 164.00,35.391, 164.00,37.60c0.00,3.819, 4.00,8.80, 4.00,8.80s 4.00-4.981, 4.00-8.80C 172.00,35.391, 170.21,33.60, 168.00,33.60z M 168.00,39.808c-1.193,0.00-2.16-0.967-2.16-2.16 s 0.967-2.16, 2.16-2.16s 2.16,0.967, 2.16,2.16S 169.193,39.808, 168.00,39.808zM 207.746,36.019l-3.739-2.342c-0.166-0.104-0.373-0.104-0.538,0.00L 200.00,35.85L 196.531,33.678c-0.166-0.104-0.373-0.104-0.538,0.00 L 192.254,36.019C 192.097,36.118, 192.00,36.296, 192.00,36.487l0.00,9.366 c0.00,0.197, 0.101,0.379, 0.266,0.476s 0.366,0.094, 0.527-0.007l 3.469-2.173l 3.469,2.173 c 0.166,0.104, 0.373,0.104, 0.539,0.00l 3.469-2.173l 3.469,2.173C 207.29,46.374, 207.383,46.40, 207.477,46.40c 0.089,0.00, 0.178-0.024, 0.258-0.071 C 207.898,46.232, 208.00,46.05, 208.00,45.853L 208.00,36.487 C 208.00,36.296, 207.903,36.118, 207.746,36.019z M 195.738,43.202L 193.046,44.888L 193.046,36.797 l 2.692-1.686L 195.738,43.202 z M 199.477,44.888l-2.692-1.686L 196.785,35.111 l 2.692,1.686L 199.477,44.888 z M 203.215,43.202l-2.691,1.686L 200.524,36.797 l 2.691-1.686L 203.215,43.202 z M 206.953,44.888 l-2.691-1.686L 204.262,35.111 l 2.691,1.686L 206.953,44.888 zM 236.00,42.40c-0.55,0.00-1.054,0.186-1.459,0.498l-4.175-2.505C 230.386,40.265, 230.40,40.134, 230.40,40.00c0.00-0.134-0.014-0.265-0.034-0.393 l 4.175-2.505C 234.946,37.414, 235.45,37.60, 236.00,37.60c 1.325,0.00, 2.40-1.074, 2.40-2.40s-1.075-2.40-2.40-2.40s-2.40,1.074-2.40,2.40c0.00,0.134, 0.014,0.265, 0.035,0.393 L 229.46,38.098C 229.055,37.786, 228.55,37.60, 228.00,37.60c-1.326,0.00-2.40,1.074-2.40,2.40c0.00,1.325, 1.074,2.40, 2.40,2.40c 0.55,0.00, 1.055-0.186, 1.46-0.498l 4.175,2.505 C 233.614,44.535, 233.60,44.666, 233.60,44.80c0.00,1.325, 1.075,2.40, 2.40,2.40s 2.40-1.075, 2.40-2.40S 237.325,42.40, 236.00,42.40zM 260.64,41.76L 260.64,36.80 L 257.60,36.80 C 256.72,36.80, 256.00,37.52, 256.00,38.40l0.00,4.80 c0.00,0.88, 0.72,1.60, 1.60,1.60l 0.80,0.00 l0.00,2.40 l 2.40-2.40l 4.00,0.00 c 0.88,0.00, 1.60-0.72, 1.60-1.60l0.00-1.456 c-0.051,0.011-0.106,0.017-0.16,0.017L 260.64,41.761 z M 270.40,32.80L 263.20,32.80 C 262.32,32.80, 261.60,33.52, 261.60,34.40l0.00,6.40 l 5.60,0.00 l 2.40,2.40l0.00-2.40 l 0.80,0.00 c 0.88,0.00, 1.60-0.72, 1.60-1.60L 272.00,34.40 C 272.00,33.52, 271.28,32.80, 270.40,32.80zM 300.80,34.40L 291.20,34.40 C 290.32,34.40, 289.60,35.12, 289.60,36.00l0.00,5.60 c0.00,0.88, 0.72,1.60, 1.60,1.60l 3.20,0.00 l 3.20,2.40l0.00-2.40 l 3.20,0.00 c 0.88,0.00, 1.60-0.72, 1.60-1.60L 302.40,36.00 C 302.40,35.12, 301.68,34.40, 300.80,34.40zM 335.016,40.24l-6.419-6.425c-0.328-0.341-0.865-0.341-1.193,0.00L 320.984,40.24c-0.329,0.34-0.206,0.619, 0.272,0.619l 1.338,0.00 l0.00,4.934 c0.00,0.356, 0.015,0.647, 0.659,0.647l 3.116,0.00 l0.00-4.95 l 3.26,0.00 l0.00,4.95 l 3.271,0.00 c 0.491,0.00, 0.505-0.29, 0.505-0.647l0.00-4.934 l 1.338,0.00 C 335.221,40.859, 335.344,40.581, 335.016,40.24zM 366.036,44.374l-3.023-3.023c 0.456-0.75, 0.718-1.628, 0.718-2.57c0.00-2.733-2.369-5.102-5.102-5.102 C 355.896,33.68, 353.68,35.896, 353.68,38.629c0.00,2.734, 2.368,5.102, 5.102,5.102c 0.909,0.00, 1.76-0.246, 2.492-0.674l 3.039,3.04 c 0.298,0.298, 0.78,0.298, 1.077,0.00l 0.754-0.754C 366.441,45.046, 366.333,44.671, 366.036,44.374z M 355.203,38.629 c0.00-1.892, 1.534-3.426, 3.426-3.426c 1.893,0.00, 3.579,1.686, 3.579,3.579s-1.534,3.426-3.426,3.426S 355.203,40.522, 355.203,38.629zM 397.428,40.00c0.00-0.838, 0.516-1.50, 1.292-1.954c-0.141-0.467-0.325-0.916-0.553-1.338c-0.872,0.228-1.577-0.114-2.169-0.706 c-0.594-0.593-0.775-1.298-0.547-2.169c-0.422-0.228-0.869-0.414-1.338-0.554C 393.659,34.057, 392.838,34.573, 392.00,34.573 c-0.838,0.00-1.658-0.516-2.114-1.293C 389.418,33.419, 388.97,33.606, 388.549,33.833C 388.776,34.704, 388.595,35.41, 388.002,36.002 C 387.41,36.594, 386.704,36.936, 385.834,36.709C 385.606,37.13, 385.42,37.578, 385.28,38.046C 386.057,38.50, 386.573,39.162, 386.573,40.00 c0.00,0.838-0.516,1.659-1.293,2.114c 0.14,0.468, 0.326,0.916, 0.554,1.338c 0.871-0.228, 1.576-0.046, 2.169,0.546 c 0.593,0.593, 0.774,1.298, 0.546,2.169c 0.422,0.228, 0.87,0.414, 1.338,0.554c 0.455-0.778, 1.276-1.293, 2.114-1.293 c 0.838,0.00, 1.66,0.516, 2.114,1.293c 0.469-0.14, 0.916-0.326, 1.338-0.554c-0.228-0.871-0.047-1.576, 0.547-2.169 c 0.592-0.592, 1.297-0.934, 2.169-0.706c 0.228-0.422, 0.413-0.87, 0.553-1.338C 397.944,41.499, 397.428,40.838, 397.428,40.00z M 392.00,42.922 c-1.614,0.00-2.922-1.309-2.922-2.922S 390.386,37.078, 392.00,37.078c 1.614,0.00, 2.922,1.309, 2.922,2.922S 393.614,42.922, 392.00,42.922zM 424.00,38.40c-1.325,0.00-2.40,1.075-2.40,2.40c0.00,1.326, 1.075,2.40, 2.40,2.40c 1.326,0.00, 2.40-1.074, 2.40-2.40C 426.40,39.475, 425.326,38.40, 424.00,38.40z M 430.40,36.00l-1.919,0.00 c-0.264,0.00-0.549-0.205-0.632-0.455l-0.496-1.489C 427.268,33.805, 426.984,33.60, 426.72,33.60L 421.28,33.60 C 421.016,33.60, 420.731,33.805, 420.649,34.055L 420.151,35.545 C 420.068,35.795, 419.784,36.00, 419.52,36.00L 417.60,36.00 C 416.72,36.00, 416.00,36.72, 416.00,37.60l0.00,7.20 c0.00,0.88, 0.72,1.60, 1.60,1.60l 12.80,0.00 c 0.881,0.00, 1.60-0.72, 1.60-1.60L 432.00,37.60 C 432.00,36.72, 431.281,36.00, 430.40,36.00z M 424.00,44.80 c-2.21,0.00-4.00-1.79-4.00-4.00c0.00-2.209, 1.79-4.00, 4.00-4.00c 2.209,0.00, 4.00,1.791, 4.00,4.00C 428.00,43.01, 426.209,44.80, 424.00,44.80z M 429.84,38.718 c-0.309,0.00-0.559-0.25-0.559-0.56s 0.25-0.56, 0.559-0.56c 0.31,0.00, 0.56,0.25, 0.56,0.56S 430.15,38.718, 429.84,38.718zM 456.00,35.52C 450.751,35.52, 448.00,39.386, 448.00,40.00s 2.751,4.48, 8.00,4.48s 8.00-3.866, 8.00-4.48S 461.249,35.52, 456.00,35.52z M 456.00,43.446 c-1.963,0.00-3.555-1.543-3.555-3.446S 454.037,36.554, 456.00,36.554c 1.964,0.00, 3.556,1.543, 3.556,3.446S 457.964,43.446, 456.00,43.446z M 456.00,40.00 c-0.325-0.357, 0.531-1.722,0.00-1.722c-0.982,0.00-1.778,0.771-1.778,1.722S 455.018,41.723, 456.00,41.723c 0.982,0.00, 1.778-0.772, 1.778-1.723 C 457.778,39.563, 456.278,40.304, 456.00,40.00zM 488.00,32.64c-4.065,0.00-7.36,3.296-7.36,7.36c0.00,4.065, 3.295,7.36, 7.36,7.36s 7.36-3.295, 7.36-7.36C 495.36,35.935, 492.065,32.64, 488.00,32.64z M 488.00,45.76 c-3.182,0.00-5.76-2.579-5.76-5.76S 484.818,34.24, 488.00,34.24s 5.76,2.579, 5.76,5.76S 491.182,45.76, 488.00,45.76zM 488.56,35.84L 487.44,35.84L 487.44,40.232L 490.164,42.956L 490.956,42.164L 488.56,39.768 zM 13.60,66.40l-0.72,0.00 l0.00,1.60 L 10.32,68.00 L 10.32,66.40 L 5.68,66.40 l0.00,1.60 L 3.12,68.00 L 3.12,66.40 L 2.40,66.40 C 1.52,66.40, 0.80,67.12, 0.80,68.00l0.00,9.60 c0.00,0.88, 0.72,1.60, 1.60,1.60l 11.20,0.00 c 0.88,0.00, 1.60-0.72, 1.60-1.60L 15.20,68.00 C 15.20,67.12, 14.48,66.40, 13.60,66.40z M 13.60,77.60L 2.40,77.60 L 2.40,71.20 l 11.20,0.00 L 13.60,77.60 z M 4.96,64.80L 3.84,64.80 l0.00,2.72 l 1.12,0.00 L 4.96,64.80 z M 12.16,64.80l-1.12,0.00 l0.00,2.72 l 1.12,0.00 L 12.16,64.80 zM 44.641,70.402L 43.20,70.402 l0.00-1.12 c0.00-2.318-1.067-3.68-3.20-3.68c-2.132,0.00-3.20,1.362-3.20,3.68l0.00,1.12 L 35.20,70.402 c-0.442,0.00-0.80,0.518-0.80,0.96l0.00,6.24 c0.00,0.44, 0.343,0.911, 0.762,1.046l 0.957,0.31c 0.418,0.135, 1.121,0.246, 1.562,0.246l 4.64,0.00 c 0.44,0.00, 1.143-0.11, 1.562-0.246l 0.957-0.31 C 45.258,78.513, 45.60,78.042, 45.60,77.602l0.00-6.24 C 45.60,70.919, 45.082,70.402, 44.641,70.402z M 38.40,68.962c0.00-1.156, 0.638-1.76, 1.60-1.76 c 0.962,0.00, 1.60,0.604, 1.60,1.76l0.00,1.44 L 38.40,70.402 L 38.40,68.962 zM 72.817,77.60L 66.384,77.60 L 66.384,66.40 l 6.432,0.00 l0.00,2.40 L 74.40,68.80 L 74.40,66.40 c0.00-0.88-0.719-1.60-1.60-1.60L 66.40,64.80 C 65.52,64.80, 64.80,65.52, 64.80,66.40l0.00,11.20 c0.00,0.88, 0.72,1.60, 1.60,1.60l 6.40,0.00 c 0.881,0.00, 1.60-0.72, 1.60-1.60l0.00-1.60 l-1.583,0.00 L 72.817,77.60 z M 79.20,72.40l-3.183-3.12L 76.017,71.20 l-7.20,0.00 l0.00,2.40 l 7.20,0.00 l0.00,1.92 L 79.20,72.40zM 109.60,64.80L 102.40,64.80 C 101.52,64.80, 100.816,65.52, 100.816,66.40l0.00,2.40 L 102.40,68.80 L 102.40,66.40 l 7.20,0.00 l0.00,11.20 L 102.40,77.60 l0.00-1.60 L 100.816,76.00 l0.00,1.60 c0.00,0.88, 0.704,1.60, 1.584,1.60l 7.20,0.00 c 0.88,0.00, 1.60-0.72, 1.60-1.60L 111.20,66.40 C 111.20,65.52, 110.48,64.80, 109.60,64.80z M 104.00,75.52l 3.20-3.12l-3.20-3.12L 104.00,71.20 L 96.80,71.20 l0.00,2.40 l 7.20,0.00 L 104.00,75.52 zM 134.636,77.60c-0.348,0.00-0.678-0.162-0.889-0.442L 130.888,73.383c-0.372-0.491-0.275-1.19, 0.216-1.562 c 0.492-0.373, 1.19-0.275, 1.562,0.216l 1.881,2.483l 4.73-7.593c 0.326-0.522, 1.014-0.682, 1.537-0.357 c 0.522,0.325, 0.682,1.014, 0.356,1.536L 135.583,77.074c-0.194,0.313-0.53,0.509-0.897,0.525C 134.67,77.60, 134.653,77.60, 134.636,77.60zM 171.479,74.522L 169.273,72.00l 2.206-2.522c 0.375-0.375, 0.375-0.983,0.00-1.358c-0.375-0.374-0.983-0.374-1.358,0.00L 168.00,70.546 l-2.121-2.424c-0.375-0.375-0.983-0.375-1.358,0.00c-0.374,0.375-0.374,0.983,0.00,1.358L 166.727,72.00l-2.206,2.522 c-0.374,0.375-0.374,0.982,0.00,1.356c 0.375,0.375, 0.983,0.375, 1.358,0.00L 168.00,73.454l 2.121,2.423c 0.375,0.375, 0.983,0.375, 1.358,0.00 S 171.854,74.897, 171.479,74.522zM 200.00,64.32c-4.242,0.00-7.68,3.438-7.68,7.68s 3.438,7.68, 7.68,7.68c 4.242,0.00, 7.68-3.438, 7.68-7.68S 204.242,64.32, 200.00,64.32z M 204.133,67.869 l-0.002-0.002C 204.131,67.868, 204.133,67.869, 204.133,67.869z M 194.157,72.00c0.00-3.227, 2.616-5.843, 5.843-5.843c 1.403,0.00, 2.691,0.494, 3.699,1.318 L 195.476,75.698C 194.651,74.69, 194.157,73.403, 194.157,72.00z M 195.867,76.131l 0.002,0.002C 195.868,76.132, 195.868,76.132, 195.867,76.131z M 200.00,77.844 c-1.403,0.00-2.69-0.495-3.698-1.319L 204.523,68.302c 0.825,1.007, 1.32,2.294, 1.32,3.698C 205.844,75.227, 203.226,77.844, 200.00,77.844zM 231.902,64.641c-4.064,0.054-7.315,3.394-7.261,7.458c 0.054,4.062, 3.394,7.314, 7.458,7.26 c 4.064-0.054, 7.315-3.394, 7.261-7.458C 239.306,67.838, 235.966,64.586, 231.902,64.641z M 232.718,67.094c 0.748,0.00, 0.969,0.434, 0.969,0.93 c0.00,0.62-0.497,1.194-1.344,1.194c-0.709,0.00-1.046-0.357-1.026-0.946C 231.317,67.775, 231.733,67.094, 232.718,67.094z M 230.799,76.60 c-0.511,0.00-0.886-0.31-0.528-1.675l 0.586-2.419c 0.102-0.388, 0.118-0.543,0.00-0.543c-0.153,0.00-0.817,0.268-1.21,0.532l-0.255-0.418 c 1.244-1.038, 2.674-1.648, 3.287-1.648c 0.511,0.00, 0.596,0.605, 0.341,1.535l-0.672,2.544c-0.118,0.45-0.067,0.605, 0.051,0.605 c 0.153,0.00, 0.656-0.186, 1.15-0.574l 0.289,0.388C 232.63,76.134, 231.311,76.60, 230.799,76.60zM 263.902,64.641c-4.065,0.054-7.316,3.394-7.262,7.458c 0.054,4.062, 3.394,7.314, 7.458,7.26 c 4.063-0.054, 7.315-3.394, 7.26-7.458C 271.306,67.838, 267.966,64.586, 263.902,64.641z M 263.881,76.48L 263.84,76.48 c-0.626-0.018-1.067-0.48-1.05-1.097 c 0.018-0.606, 0.47-1.046, 1.075-1.046l 0.037,0.001c 0.643,0.019, 1.08,0.476, 1.061,1.11C 264.946,76.055, 264.50,76.48, 263.881,76.48z M 266.514,71.254c-0.148,0.209-0.471,0.469-0.879,0.786l-0.45,0.31c-0.246,0.192-0.395,0.372-0.45,0.549 c-0.045,0.141-0.066,0.177-0.07,0.461l-0.001,0.073L 262.95,73.434 l 0.005-0.146c 0.021-0.597, 0.036-0.947, 0.283-1.238 c 0.388-0.455, 1.244-1.006, 1.28-1.03c 0.122-0.093, 0.226-0.198, 0.303-0.31c 0.18-0.248, 0.259-0.444, 0.259-0.635 c0.00-0.266-0.079-0.513-0.235-0.732c-0.15-0.212-0.436-0.319-0.849-0.319c-0.41,0.00-0.69,0.13-0.858,0.397 C 262.965,69.696, 262.878,69.983, 262.878,70.278l0.00,0.074 l-1.768,0.00 l 0.003-0.077c 0.046-1.083, 0.432-1.862, 1.149-2.318C 262.712,67.666, 263.272,67.52, 263.925,67.52 c 0.855,0.00, 1.578,0.208, 2.146,0.618c 0.576,0.415, 0.868,1.038, 0.868,1.849C 266.939,70.441, 266.796,70.867, 266.514,71.254zM 303.61,78.386L 296.483,65.881C 296.385,65.708, 296.20,65.602, 296.00,65.602c-0.20,0.00-0.384,0.106-0.483,0.279L 288.391,78.386 c-0.097,0.17-0.095,0.377, 0.004,0.545s 0.282,0.271, 0.478,0.271l 14.252,0.00 c 0.195,0.00, 0.378-0.103, 0.478-0.271 C 303.703,78.762, 303.705,78.555, 303.61,78.386z M 296.88,77.602L 295.12,77.602 l0.00-1.60 l 1.76,0.00 L 296.88,77.602 z M 296.88,74.802L 295.12,74.802 l0.00-4.80 l 1.76,0.00 L 296.88,74.802 zM 325.60,71.20L 320.80,71.20 c-0.442,0.00-0.80,0.358-0.80,0.80s 0.358,0.80, 0.80,0.80l 4.80,0.00 c 0.442,0.00, 0.80-0.358, 0.80-0.80S 326.042,71.20, 325.60,71.20z M 325.60,74.40L 320.80,74.40 c-0.442,0.00-0.80,0.358-0.80,0.80s 0.358,0.80, 0.80,0.80l 4.80,0.00 c 0.442,0.00, 0.80-0.358, 0.80-0.80S 326.042,74.40, 325.60,74.40z M 335.52,71.20L 332.80,71.20 L 332.80,68.48 C 332.80,68.038, 332.442,68.00, 332.00,68.00s-0.80,0.038-0.80,0.48L 331.20,71.20 l-2.64,0.00 C 328.118,71.20, 328.08,71.558, 328.08,72.00 s 0.038,0.80, 0.481,0.80L 331.20,72.80 l0.00,2.72 c0.00,0.442, 0.358,0.48, 0.80,0.48s 0.80-0.038, 0.80-0.48L 332.80,72.80 l 2.72,0.00 c 0.442,0.00, 0.48-0.358, 0.48-0.80S 335.962,71.20, 335.52,71.20z M 325.60,68.00L 320.80,68.00 C 320.358,68.00, 320.00,68.358, 320.00,68.80s 0.358,0.80, 0.80,0.80l 4.80,0.00 c 0.442,0.00, 0.80-0.358, 0.80-0.80S 326.042,68.00, 325.60,68.00zM 364.80,71.20L 355.20,71.20 c-0.442,0.00-0.80,0.358-0.80,0.80s 0.358,0.80, 0.80,0.80l 9.60,0.00 c 0.442,0.00, 0.80-0.358, 0.80-0.80S 365.242,71.20, 364.80,71.20z M 355.20,69.60l 9.60,0.00 c 0.442,0.00, 0.80-0.358, 0.80-0.80 s-0.358-0.80-0.80-0.80L 355.20,68.00 C 354.758,68.00, 354.40,68.358, 354.40,68.80S 354.758,69.60, 355.20,69.60z M 364.80,74.40L 355.20,74.40 c-0.442,0.00-0.80,0.358-0.80,0.80s 0.358,0.80, 0.80,0.80l 9.60,0.00 c 0.442,0.00, 0.80-0.358, 0.80-0.80 S 365.242,74.40, 364.80,74.40zM 389.778,72.696l 4.48,0.00 l0.00-1.44 l-4.48,0.00 L 389.778,72.696 z M 396.00,64.80L 388.00,64.80 C 387.12,64.80, 386.40,65.52, 386.40,66.40l0.00,11.20 c0.00,0.88, 0.72,1.60, 1.60,1.60l 8.00,0.00 c 0.88,0.00, 1.60-0.72, 1.60-1.60L 397.60,66.40 C 397.60,65.52, 396.88,64.80, 396.00,64.80z M 396.00,77.60L 388.00,77.60 L 388.00,66.40 l 8.00,0.00 L 396.00,77.60 z M 394.24,68.135L 389.76,68.135 l0.00,1.40 l 4.48,0.00 L 394.24,68.135 z M 394.24,74.416L 389.76,74.416 l0.00,1.40 l 4.48,0.00 L 394.24,74.416 zM 429.70,69.738l-1.637-4.509c-0.121-0.333-0.476-0.509-0.791-0.394L 416.394,68.806C 416.078,68.921 415.919,69.284, 416.04,69.617 l 1.726,4.754L 417.766,71.822 c0.00-1.15, 0.918-2.084, 2.049-2.084l 2.874,0.00 l 3.428-2.406l 1.984,2.406L 429.70,69.738 z M 431.39,71.182L 419.814,71.182 c-0.336,0.00-0.61,0.287-0.61,0.642l0.00,7.537 c0.00,0.354, 0.273,0.642, 0.61,0.642l 11.576,0.00 c 0.337,0.00, 0.61-0.287, 0.61-0.642L 432.00,71.822 C 432.00,71.469, 431.727,71.182, 431.39,71.182z M 430.507,78.398L 420.911,78.398 l0.00-1.375 l 1.476-3.436l 2.215,2.75l 2.078-2.13l 2.671-0.964l 1.156,2.578 L 430.507,78.398 zM 450.711,70.33l 0.882,7.767C 451.64,78.466, 453.421,79.678, 456.00,79.68c 2.579-0.002, 4.361-1.214, 4.408-1.583l 0.882-7.767 C 459.942,71.083, 457.929,71.44, 456.00,71.44S 452.058,71.083, 450.711,70.33z M 458.534,65.53l-0.687-0.762C 457.582,64.39, 457.294,64.32, 456.733,64.32L 455.267,64.32 c-0.56,0.00-0.848,0.07-1.114,0.447L 453.467,65.53C 451.411,65.889, 449.92,66.842, 449.92,67.544l0.00,0.137 c0.00,1.237, 2.722,2.24, 6.08,2.24s 6.08-1.003, 6.08-2.24 L 462.08,67.544 C 462.08,66.842, 460.59,65.889, 458.534,65.53z M 457.655,67.311L 456.654,66.24L 455.346,66.24 L 454.345,67.311L 452.985,67.311 c0.00,0.00, 1.49-1.776, 1.689-2.017 C 454.826,65.11, 454.982,65.04, 455.183,65.04l 1.634,0.00 c 0.202,0.00, 0.357,0.07, 0.51,0.254c 0.198,0.241, 1.689,2.017, 1.689,2.017L 457.655,67.311 zM 492.138,65.60L 483.20,65.60 C 482.32,65.60, 481.60,66.32, 481.60,67.20l0.00,9.60 c0.00,0.88, 0.72,1.60, 1.60,1.60l 9.60,0.00 c 0.88,0.00, 1.60-0.72, 1.60-1.60L 494.40,68.102 L 492.138,65.60z M 491.20,70.40c0.00,0.44-0.36,0.80-0.80,0.80L 485.60,71.20 C 485.16,71.20, 484.80,70.84, 484.80,70.40L 484.80,66.40 l 6.40,0.00 L 491.20,70.40 z M 490.40,67.20l-1.60,0.00 l0.00,3.20 l 1.60,0.00 L 490.40,67.20 zM 9.15,99.613c-0.334,0.326-3.602,3.757-3.602,3.757C 5.37,103.544, 5.281,103.772, 5.281,104.00s 0.089,0.456, 0.267,0.63 c0.00,0.00, 3.267,3.43, 3.602,3.756c 0.334,0.326, 0.936,0.349, 1.293,0.00c 0.356-0.348, 0.384-0.834-0.001-1.26L 7.444,104.00l 2.998-3.126 c 0.385-0.427, 0.357-0.913, 0.001-1.261C 10.085,99.265, 9.483,99.286, 9.15,99.613zM 44.386,102.85c-0.326,0.334-3.756,3.602-3.756,3.602C 40.456,106.631, 40.228,106.72, 40.00,106.72c-0.229,0.00-0.457-0.089-0.63-0.267 c0.00,0.00-3.43-3.268-3.757-3.602c-0.326-0.334-0.348-0.935,0.00-1.293c 0.349-0.357, 0.834-0.385, 1.261,0.00L 40.00,104.556l 3.126-2.998 c 0.427-0.385, 0.914-0.357, 1.261,0.00C 44.735,101.915, 44.714,102.517, 44.386,102.85zM 76.386,105.15c-0.326-0.334-3.756-3.602-3.756-3.602C 72.456,101.37, 72.228,101.28, 72.00,101.28c-0.229,0.00-0.457,0.09-0.63,0.268 c0.00,0.00-3.43,3.267-3.757,3.602c-0.326,0.334-0.348,0.936,0.00,1.293c 0.349,0.356, 0.834,0.385, 1.261,0.00L 72.00,103.445l 3.126,2.998 c 0.427,0.385, 0.914,0.356, 1.261,0.00C 76.735,106.085, 76.714,105.483, 76.386,105.15zM 102.85,99.613c 0.334,0.326, 3.602,3.757, 3.602,3.757C 106.631,103.544, 106.72,103.772, 106.72,104.00s-0.089,0.456-0.268,0.63 c0.00,0.00-3.267,3.43-3.602,3.756c-0.334,0.326-0.935,0.349-1.293,0.00c-0.357-0.348-0.385-0.834,0.00-1.26L 104.556,104.00L 101.558,100.874 c-0.385-0.427-0.357-0.913,0.00-1.261C 101.915,99.265, 102.517,99.286, 102.85,99.613zM 136.00,102.24c-0.972,0.00-1.76,0.788-1.76,1.76s 0.788,1.76, 1.76,1.76s 1.76-0.788, 1.76-1.76S 136.972,102.24, 136.00,102.24zM 175.36,99.434c-0.542,0.241-1.124,0.402-1.735,0.476c 0.624-0.374, 1.103-0.966, 1.328-1.67c-0.583,0.346-1.23,0.598-1.917,0.733 c-0.551-0.587-1.336-0.954-2.205-0.954c-1.668,0.00-3.02,1.352-3.02,3.019c0.00,0.237, 0.026,0.467, 0.078,0.688 c-2.51-0.126-4.735-1.328-6.224-3.155C 161.405,99.017, 161.255,99.536, 161.255,100.09c0.00,1.048, 0.534,1.972, 1.344,2.514 c-0.495-0.016-0.961-0.151-1.368-0.378c0.00,0.013,0.00,0.025,0.00,0.038c0.00,1.463, 1.042,2.683, 2.422,2.962c-0.253,0.069-0.52,0.106-0.796,0.106 c-0.194,0.00-0.383-0.018-0.568-0.054c 0.384,1.20, 1.50,2.073, 2.821,2.097c-1.034,0.81-2.335,1.293-3.75,1.293 c-0.244,0.00-0.484-0.014-0.72-0.042c 1.336,0.857, 2.923,1.357, 4.63,1.357c 5.554,0.00, 8.592-4.602, 8.592-8.593 c0.00-0.13-0.002-0.261-0.009-0.39C 174.443,100.572, 174.954,100.04, 175.36,99.434zM 205.16,97.12L 194.84,97.12 C 193.894,97.12, 193.12,97.894, 193.12,98.84l0.00,10.32 c0.00,0.946, 0.774,1.719, 1.719,1.719l 5.219,0.00 l0.00-4.934 l-1.648,0.00 L 198.41,103.797 l 1.648,0.00 L 200.058,102.72 c0.00-1.66, 1.226-2.96, 2.79-2.96l 1.518,0.00 l0.00,2.427 l-1.359,0.00 c-0.355,0.00-0.459,0.204-0.459,0.486l0.00,1.123 l 1.818,0.00 l0.00,2.15 l-1.818,0.00 L 202.549,110.88 l 2.61,0.00 c 0.946,0.00, 1.719-0.774, 1.719-1.719L 206.878,98.84 C 206.88,97.894, 206.106,97.12, 205.16,97.12zM 230.893,106.582C 230.473,108.785, 229.96,110.897, 228.44,112.00c-0.469-3.33, 0.689-5.83, 1.226-8.484 c-0.917-1.544, 0.11-4.65, 2.045-3.884c 2.38,0.942-2.061,5.738, 0.92,6.338c 3.113,0.626, 4.383-5.40, 2.454-7.359 C 232.296,95.78, 226.966,98.545, 227.622,102.595c 0.159,0.99, 1.182,1.291, 0.409,2.658c-1.785-0.395-2.318-1.803-2.249-3.68 C 225.893,98.502, 228.542,96.351, 231.20,96.054c 3.362-0.377, 6.516,1.234, 6.95,4.395c 0.49,3.568-1.516,7.433-5.111,7.154 C 232.066,107.529, 231.657,107.046, 230.893,106.582zM 256.013,109.588c-0.004-0.04-0.007-0.079-0.009-0.119C 256.005,109.509, 256.009,109.549, 256.013,109.588zM 259.686,104.83c 1.438,0.043, 2.402-1.448, 2.154-3.331c-0.248-1.883-1.616-3.393-3.053-3.436 c-1.438-0.043-2.402,1.398-2.154,3.281C 256.881,103.226, 258.248,104.788, 259.686,104.83zM 272.00,100.00L 272.00,98.667 C 272.00,97.20, 270.80,96.00, 269.333,96.00L 258.667,96.00 C 257.225,96.00, 256.042,97.16, 256.002,98.593 c 0.912-0.803, 2.177-1.474, 3.482-1.474c 1.395,0.00, 5.582,0.00, 5.582,0.00l-1.249,1.057l-1.77,0.00 c 1.174,0.45, 1.799,1.814, 1.799,3.214c0.00,1.176-0.653,2.187-1.576,2.906c-0.901,0.702-1.071,0.995-1.071,1.592 c0.00,0.509, 0.965,1.375, 1.469,1.731c 1.475,1.04, 1.952,2.005, 1.952,3.616c0.00,0.257-0.032,0.513-0.095,0.765l 4.808,0.00 C 270.80,112.00, 272.00,110.801, 272.00,109.333L 272.00,101.00 l-3.00,0.00 L 269.00,104.00 l-1.00,0.00 l0.00-3.00 l-3.00,0.00 l0.00-1.00 L 268.00,100.00 L 268.00,97.00 l 1.00,0.00 l0.00,3.00 L 272.00,100.00 zM 258.904,107.968c 0.338,0.00, 0.647-0.009, 0.968-0.009c-0.424-0.411-0.76-0.916-0.76-1.537 c0.00-0.369, 0.118-0.724, 0.283-1.039c-0.168,0.012-0.34,0.016-0.518,0.016c-1.162,0.00-2.149-0.376-2.878-0.998l0.00,1.051 l 0.00,3.152C 256.835,108.206, 257.826,107.968, 258.904,107.968zM 256.053,109.863c-0.017-0.085-0.031-0.172-0.04-0.26C 256.023,109.691, 256.036,109.778, 256.053,109.863zM 263.116,110.888c-0.235-0.919-1.07-1.374-2.233-2.181c-0.423-0.136-0.889-0.217-1.389-0.222 c-1.40-0.015-2.705,0.546-3.441,1.381C 256.303,111.08, 257.383,112.00, 258.667,112.00l 4.476,0.00 c 0.028-0.174, 0.042-0.354, 0.042-0.538 C 263.185,111.266, 263.161,111.075, 263.116,110.888zM 300.293,109.707L 302.586,112.00L 304.00,110.586L 301.707,108.293L 304.00,106.00L 298.00,106.00L 298.00,112.00 zM 288.00,102.00L 294.00,102.00L 294.00,96.00L 291.707,98.293L 289.438,96.021L 288.024,97.435L 290.293,99.707 zM 288.00,110.586L 289.414,112.00L 291.707,109.707L 294.00,112.00L 294.00,106.00L 288.00,106.00L 290.293,108.293 zM 298.00,102.00L 304.00,102.00L 301.707,99.707L 303.98,97.435L 302.566,96.021L 300.293,98.293L 298.00,96.00 z"></path></svg>