<?xml version="1.0" encoding="utf-8"?> <!-- Generator: IcoMoon.io --> <!DOCTYPE svg PUBLIC "-//W3C//DTD SVG 1.1//EN" "http://www.w3.org/Graphics/SVG/1.1/DTD/svg11.dtd"> <svg width="496" height="112" viewBox="0 0 496 112" fill="#777777" xmlns="http://www.w3.org/2000/svg" xmlns:xlink="http://www.w3.org/1999/xlink"><path d="M 15.438,8.578l-3.891,0.563l 2.891,2.969q 0.234,0.328 0.172,0.734t-0.375,0.641l-3.063,2.328q-0.313,0.234 -0.695,0.172t-0.617-0.391l-1.734-3.641l-1.734,3.641q-0.234,0.328 -0.617,0.391t-0.695-0.172l-3.063-2.328q-0.313-0.234 -0.375-0.641t 0.172-0.734l 2.891-2.969l-3.891-0.563q-0.391-0.125 -0.578-0.484t-0.063-0.734l 1.234-3.688q 0.125-0.391 0.492-0.57t 0.758-0.055l 3.078,1.547l-0.609-3.594 q0-0.406 0.297-0.703t 0.703-0.297l 4,0 q 0.406,0 0.703,0.297t 0.297,0.703l-0.609,3.594l 3.078-1.547q 0.391-0.125 0.758,0.055t 0.492,0.57l 1.234,3.688q 0.125,0.375 -0.063,0.734t-0.578,0.484zM 40,10c0,0-5.333,0-7.333,4.667c0,0, 3.34,1.333, 7.333,1.333s 7.333-1.333, 7.333-1.333C 45.333,10, 40,10, 40,10z M 40,9.333c 2,0, 3.333-2, 3.333-5.333s-3.333-3.333-3.333-3.333S 36.667,0.667, 36.667,4S 38,9.333, 40,9.333zM 79.988,9.491l-1.49,1.491l-1.491-1.491l-1.491,1.491l-1.49-1.491 L 75.514,8l-1.49-1.491l 1.49-1.491l 1.491,1.491l 1.491-1.491l 1.49,1.491L 78.497,8L 79.988,9.491z M 72.008,15.996L 68.010,11.998L 65.012,11.998 c-0.552,0-0.999-0.447-0.999-0.999L 64.012,5.002 c0-0.552, 0.447-0.999, 0.999-0.999 l 2.998,0 L 72.008,0.004c0,0, 0.999-0.125, 0.999,0.999c0,5.423,0,13.304,0,13.993 C 73.008,16.121, 72.008,15.996, 72.008,15.996z M 71.009,4.002l-1.999,1.999L 66.011,6.001 l0,3.998 l 2.998,0 l 1.999,1.999L 71.009,4.002 zM 104,14.857q-0.232,0 -0.393-0.161l-5.571-5.375q-0.089-0.071 -0.246-0.232t-0.496-0.585t-0.607-0.871t-0.478-1.080t-0.21-1.232q0-1.964 1.134-3.071t 3.134-1.107q 0.554,0 1.129,0.192t 1.071,0.518t 0.853,0.612t 0.679,0.607q 0.321-0.321 0.679-0.607t 0.853-0.612t 1.071-0.518t 1.129-0.192q 2,0 3.134,1.107t 1.134,3.071q0,1.973 -2.045,4.018l-5.563,5.357 q-0.161,0.161 -0.393,0.161zM 140.571,12.545q0,1.071 -0.652,1.692t-1.732,0.621l-7.804,0 q-1.080,0 -1.732-0.621t-0.652-1.692q0-0.473 0.031-0.924t 0.125-0.973t 0.237-0.969t 0.384-0.871t 0.554-0.723t 0.763-0.478t 0.996-0.179q 0.080,0 0.375,0.192t 0.665,0.429t 0.964,0.429t 1.192,0.192t 1.192-0.192t 0.964-0.429t 0.665-0.429t 0.375-0.192q 0.545,0 0.996,0.179t 0.763,0.478t 0.554,0.723 t 0.384,0.871t 0.237,0.969t 0.125,0.973t 0.031,0.924zM 137.714,4.571q0,1.42 -1.004,2.424t-2.424,1.004t-2.424-1.004t-1.004-2.424t 1.004-2.424t 2.424-1.004t 2.424,1.004t 1.004,2.424zM 176.964,2.304q 0.179,0.071 0.179,0.268l0,10.857 q0,0.196 -0.179,0.268q-0.071,0.018 -0.107,0.018q-0.107,0 -0.205-0.080l-5.223-5.232l0,2.741 q0,1.063 -0.754,1.817t-1.817,0.754l-6.286,0 q-1.063,0 -1.817-0.754t-0.754-1.817l0-6.286 q0-1.063 0.754-1.817t 1.817-0.754l 6.286,0 q 1.063,0 1.817,0.754t 0.754,1.817l0,2.741 l 5.223-5.232q 0.143-0.134 0.313-0.063zM 201.143,12.277l0-1.696 q0-0.125 -0.085-0.21t-0.201-0.085l-1.714,0 q-0.116,0 -0.201,0.085t-0.085,0.21l0,1.696 q0,0.125 0.085,0.21t 0.201,0.085l 1.714,0 q 0.116,0 0.201-0.085t 0.085-0.21zM 201.125,8.938l 0.161-4.098q0-0.107 -0.089-0.17q-0.116-0.098 -0.214-0.098l-1.964,0 q-0.098,0 -0.214,0.098q-0.089,0.063 -0.089,0.188l 0.152,4.080q0,0.089 0.089,0.147t 0.214,0.058l 1.652,0 q 0.125,0 0.21-0.058t 0.094-0.147zM 201,0.598l 6.857,12.571q 0.313,0.563 -0.018,1.125q-0.152,0.259 -0.415,0.411t-0.567,0.152l-13.714,0 q-0.304,0 -0.567-0.152t-0.415-0.411q-0.33-0.563 -0.018-1.125l 6.857-12.571q 0.152-0.277 0.42-0.438t 0.58-0.161t 0.58,0.161t 0.42,0.438zM 232,16C 227.582,16, 224,12.418, 224,8S 227.582,0, 232,0s 8,3.582, 8,8S 236.418,16, 232,16z M 232,1.455c-3.615,0-6.545,2.93-6.545,6.545s 2.93,6.545, 6.545,6.545s 6.545-2.93, 6.545-6.545S 235.615,1.455, 232,1.455z M 235.279,11.863l-0.188,0.113l-0.545,0.341l-0.321,0.241 c-0.239,0.116-0.488,0.209-0.746,0.288l0-0.324 l-0.091-0.75c0,0-0.045-0.432-0.113-0.545s-0.227-0.273-0.386-0.341 s-0.273-0.068-0.364-0.182s-0.159-0.319-0.273-0.5S 232,9.841, 232,9.75S 232,8.727, 232,8.727l 0.113-0.864l 0.25-0.182l 0.295-0.341L 232.864,7.273 l 0.705,0.137l 0.5,0 l 0.204,0.432l 0.477,0.386l 0.295,0.477l 0.386,0.137l 0.432,0 l 0.295,0.364l 0.182,0.386l 0.068,0.273l0,0.455 l-0.047,0.268 C 236.073,11.073, 235.708,11.5, 235.279,11.863z M 233.523,4.023l-0.5,0.273l-0.182,0.523L 232.545,5.091l-0.977,0 L 231.113,5.273L 231.091,5.636 L 230.909,5.932L 230.864,6.25l 0.091,0.273l 0.113,0.273c0,0, 0.273,0.319,0,0.545c0,0-0.341,0-0.409-0.113S 230.091,6.796, 230,6.705 s-0.386-0.182-0.386-0.182l-0.364-0.137L 228.909,6.364l 0.023-0.477L 228.909,5.477L 228.772,5.182L 228.386,4.887L 228.364,4.568l 0.047-0.177 C 229.331,3.476, 230.599,2.909, 232,2.909c 0.791,0, 1.529,0.196, 2.197,0.517L 234.182,3.545L 233.523,4.023zM 270.545,13.818L 257.455,13.818 c-0.803,0-1.455-0.652-1.455-1.455L 256,3.636 c0-0.803, 0.652-1.455, 1.455-1.455l 13.091,0 c 0.803,0, 1.455,0.652, 1.455,1.455l0,8.727 C 272,13.167, 271.348,13.818, 270.545,13.818z M 269.818,12.364l-4.169-3.648L 264,10.182l-1.649-1.466L 258.182,12.364L 269.818,12.364 z M 257.455,11.636l 4.091-3.636L 257.455,4.364L 257.455,11.636 z M 258.182,3.636l 5.818,5.091l 5.818-5.091L 258.182,3.636 z M 270.545,4.364 l-4.091,3.636L 270.545,11.636L 270.545,4.364 zM 302.545,16L 289.455,16 c-0.803,0-1.455-0.652-1.455-1.455L 288,1.455 c0-0.803, 0.652-1.455, 1.455-1.455l 10.909,0 l-1.455,1.455L 289.455,1.455 l0,13.091 l 13.091,0 L 302.545,5.091 l 1.455-1.455l0,10.909 C 304,15.348, 303.348,16, 302.545,16z M 301.636,1.273L 302.909,0c0,0, 1.091-0.023, 1.091,1.068l-1.283,1.286L 301.636,1.273z M 294.545,9.455l0-1.091 l 0.545-0.545 l 1.090,1.090L 295.636,9.455L 294.545,9.455 z M 301.991,3.082l-5.447,5.462L 295.455,7.455l 5.455-5.455L 301.991,3.082zM 328,0.393l 2.637,4.781l 5.362,1.030l-3.733,3.985l 0.678,5.418L 328,13.289 l-4.943,2.318l 0.678-5.418L 320.001,6.204l 5.362-1.030L 328,0.393M 364.266,10.189l 0.678,5.418L 360,13.289l-4.943,2.318l 0.678-5.418L 352.001,6.204 l 5.362-1.030L 360,0.393l 2.637,4.781l 5.362,1.030L 364.266,10.189z M 361.812,6.058L 360,2.771L 358.188,6.058L 354.501,6.766l 2.566,2.74L 356.602,13.23 L 360,11.637l 3.398,1.594l-0.466-3.725l 2.566-2.74L 361.812,6.058zM 391.75,14.75c-3.59,0-6.5-2.91-6.5-6.5s 2.91-6.5, 6.5-6.5s 6.5,2.91, 6.5,6.5 S 395.34,14.75, 391.75,14.75z M 394.969,7.969c0-0.276-0.224-0.5-0.5-0.5l-2,0 l0-2 c0-0.276-0.224-0.5-0.5-0.5l-0.5,0 c-0.277,0-0.5,0.224-0.5,0.5l0,2 l-2,0 c-0.277,0-0.5,0.224-0.5,0.5l0,0.5 c0,0.277, 0.224,0.5, 0.5,0.5l 2,0 l0,2 c0,0.277, 0.224,0.5, 0.5,0.5l 0.5,0 c 0.277,0, 0.5-0.224, 0.5-0.5l0-2 l 2,0 c 0.276,0, 0.5-0.224, 0.5-0.5L 394.969,7.969 zM 423.75,1.75c-3.59,0-6.5,2.91-6.5,6.5s 2.91,6.5, 6.5,6.5c 3.59,0, 6.5-2.91, 6.5-6.5 S 427.34,1.75, 423.75,1.75z M 427,8.438c0,0.277-0.224,0.5-0.5,0.5L 421,8.938 c-0.277,0-0.5-0.224-0.5-0.5l0-0.5 c0-0.276, 0.224-0.5, 0.5-0.5l 5.5,0 c 0.276,0, 0.5,0.224, 0.5,0.5 L 427,8.438 zM 460.501,4.197l0,6.266 l 2.019,0 l0,2.019 L 451.491,12.483 L 451.491,1.516 l 2.019,0 l0,1.988 L 459.725,3.505 l 2.32-2.32 l 0.703,0.703L 460.501,4.197z M 453.511,5.492L 453.511,9.75 l 4.226-4.258L 453.511,5.492 z M 458.482,6.185l-4.309,4.279l 4.309,0 L 458.482,6.185 z M 449.503,3.505l 1.522,0 l0,1.988 L 449.503,5.493 L 449.503,3.505 z M 460.501,14.471l-2.019,0 L 458.482,12.98 l 2.019,0 L 460.501,14.471 zM 488.451,3.002l 4.563,0 l-0.010,4.614l-1.565-1.564l-1.474,1.474 c 0.331,0.582, 0.521,1.254, 0.521,1.97c0,2.209-1.79,4-4,4c-2.209,0-4-1.791-4-4c0-2.209, 1.791-4, 4-4c 0.762,0, 1.473,0.217, 2.080,0.588 l 1.459-1.478L 488.451,3.002z M 484.487,9.498c0,1.105, 0.895,2, 2,2s 2-0.895, 2-2s-0.895-2-2-2S 484.487,8.393, 484.487,9.498zM 9.020,41.361l0,1.647 l 1.998,0 l0,1.998 l-1.998,0 l0,1.998 l-2.029,0 L 6.991,45.005 L 4.994,45.005 l0-1.998 l 1.998,0 l0-1.653 c-1.718-0.448-2.986-2.005-2.986-3.861c0-2.207, 1.789-3.995, 3.995-3.995c 2.207,0, 3.995,1.789, 3.995,3.995 C 11.995,39.357, 10.747,40.919, 9.020,41.361z M 8,35.495c-1.103,0-1.998,0.894-1.998,1.998c0,1.103, 0.894,1.998, 1.998,1.998 c 1.103,0, 1.998-0.894, 1.998-1.998C 9.998,36.389, 9.104,35.495, 8,35.495zM 45.249,34.75c-1.154-1.154-2.020-0.982-2.020-0.982L 39.186,37.811L 34.568,42.43L 33.76,46.24l 3.81-0.808l 4.618-4.618l 4.042-4.042 C 46.23,36.772, 46.404,35.906, 45.249,34.75z M 37.343,44.974l-1.298,0.28c-0.126-0.234-0.277-0.469-0.553-0.746 c-0.276-0.276-0.511-0.426-0.746-0.552l 0.281-1.299l 0.375-0.375c0,0, 0.707,0.014, 1.505,0.812c 0.798,0.798, 0.813,1.506, 0.813,1.506 L 37.343,44.974zM 79.2,45.44c0,0-1.6-7.786-8.62-7.786L 70.58,34.56 L 64.8,39.724l 5.78,5.353l0-3.486 C 74.39,41.59, 77.214,41.928, 79.2,45.44zM 105.42,41.59l0,3.486 L 111.2,39.724L 105.42,34.56l0,3.093 C 98.4,37.653, 96.8,45.44, 96.8,45.44C 98.786,41.928, 101.61,41.59, 105.42,41.59zM 139.856,43.558c-1.972-0.718-2.602-1.325-2.602-2.623c0-0.779, 0.602-0.525, 0.866-1.952c 0.11-0.592, 0.642-0.010, 0.744-1.361 c0-0.538-0.29-0.673-0.29-0.673s 0.148-0.798, 0.206-1.41C 138.85,34.774, 138.338,32.8, 135.6,32.8C 132.863,32.8, 132.35,34.774, 132.422,35.539 C 132.479,36.152, 132.627,36.95, 132.627,36.95S 132.336,37.083, 132.336,37.622c 0.102,1.351, 0.634,0.769, 0.743,1.361 c 0.265,1.427, 0.867,1.173, 0.867,1.952c0,1.298-0.63,1.905-2.602,2.623c-1.979,0.72-3.264,1.455-3.264,1.957c0,0.501,0,1.684,0,1.684 l 7.52,0 l 7.52,0 c0,0,0-1.183,0-1.684C 143.12,45.014, 141.834,44.279, 139.856,43.558zM 169.902,43.558C 167.909,42.84, 167.272,42.234, 167.272,40.935c0-0.779, 0.609-0.525, 0.876-1.952c 0.111-0.592, 0.649-0.010, 0.75-1.361 c0-0.538-0.293-0.673-0.293-0.673s 0.15-0.798, 0.207-1.41C 168.885,34.774, 168.366,32.8, 165.6,32.8S 162.315,34.774, 162.387,35.539 c 0.058,0.614, 0.208,1.41, 0.208,1.41S 162.302,37.083, 162.302,37.622c 0.103,1.351, 0.641,0.769, 0.75,1.361 c 0.268,1.427, 0.877,1.173, 0.877,1.952c0,1.298-0.638,1.905-2.63,2.623c-0.24,0.086-0.812,0.22-1.298,0.43L 160,47.2 l 12.8,0 c0,0,0-1.183,0-1.684S 171.902,44.279, 169.902,43.558z M 173.6,39.2L 173.6,36.8 l-1.6,0 l0,2.4 l-2.4,0 l0,1.6 l 2.4,0 l0,2.4 l 1.6,0 l0-2.4 l 2.4,0 L 176,39.2 L 173.6,39.2 zM 206.4,33.6L 193.6,33.6 C 192.72,33.6, 192,34.32, 192,35.2l0,9.6 c0,0.88, 0.72,1.6, 1.6,1.6l 12.8,0 c 0.881,0, 1.6-0.72, 1.6-1.6L 208,35.2 C 208,34.32, 207.281,33.6, 206.4,33.6z M 206.4,44.8L 193.6,44.8 L 193.6,35.2 l 12.8,0 L 206.4,44.8 z M 199.2,41.68L 195.2,41.68 L 195.2,43.12 l 4,0 L 199.2,41.68 z M 199.2,39.28L 195.2,39.28 l0,1.44 l 4,0 L 199.2,39.28 z M 199.2,36.88L 195.2,36.88 l0,1.44 l 4,0 L 199.2,36.88 z M 204.72,42c0,0-1.36-0.355-1.36-1.054c0-0.666, 0.881-0.946, 0.881-2.306 c0-1.104-0.336-1.76-1.441-1.76s-1.44,0.655-1.44,1.76c0,1.36, 0.88,1.64, 0.88,2.306c0,0.699-1.359,1.054-1.359,1.054C 200.8,42, 200.8,43.12, 200.8,43.12 l 4,0 C 204.8,43.12, 204.8,42, 204.72,42zM 232,33.6C 229.79,33.6, 228,35.391, 228,37.6c0,3.819, 4,8.8, 4,8.8s 4-4.981, 4-8.8C 236,35.391, 234.21,33.6, 232,33.6z M 232,39.808c-1.193,0-2.16-0.967-2.16-2.16 s 0.967-2.16, 2.16-2.16s 2.16,0.967, 2.16,2.16S 233.193,39.808, 232,39.808zM 271.746,36.019l-3.739-2.342c-0.166-0.104-0.373-0.104-0.538,0L 264,35.85L 260.531,33.678c-0.166-0.104-0.373-0.104-0.538,0 L 256.254,36.019C 256.097,36.118, 256,36.296, 256,36.487l0,9.366 c0,0.197, 0.101,0.379, 0.266,0.476s 0.366,0.094, 0.527-0.007l 3.469-2.173l 3.469,2.173 c 0.166,0.104, 0.373,0.104, 0.539,0l 3.469-2.173l 3.469,2.173C 271.29,46.374, 271.383,46.4, 271.477,46.4c 0.089,0, 0.178-0.024, 0.258-0.071 C 271.898,46.232, 272,46.050, 272,45.853L 272,36.487 C 272,36.296, 271.903,36.118, 271.746,36.019z M 259.738,43.202L 257.046,44.888L 257.046,36.797 l 2.692-1.686L 259.738,43.202 z M 263.477,44.888l-2.692-1.686L 260.785,35.111 l 2.692,1.686L 263.477,44.888 z M 267.215,43.202l-2.691,1.686L 264.524,36.797 l 2.691-1.686L 267.215,43.202 z M 270.953,44.888 l-2.691-1.686L 268.262,35.111 l 2.691,1.686L 270.953,44.888 zM 300,42.4c-0.55,0-1.054,0.186-1.459,0.498l-4.175-2.505C 294.386,40.265, 294.4,40.134, 294.4,40c0-0.134-0.014-0.265-0.034-0.393 l 4.175-2.505C 298.946,37.414, 299.45,37.6, 300,37.6c 1.325,0, 2.4-1.074, 2.4-2.4s-1.075-2.4-2.4-2.4s-2.4,1.074-2.4,2.4c0,0.134, 0.014,0.265, 0.035,0.393 L 293.46,38.098C 293.055,37.786, 292.55,37.6, 292,37.6c-1.326,0-2.4,1.074-2.4,2.4c0,1.325, 1.074,2.4, 2.4,2.4c 0.55,0, 1.055-0.186, 1.46-0.498l 4.175,2.505 C 297.614,44.535, 297.6,44.666, 297.6,44.8c0,1.325, 1.075,2.4, 2.4,2.4s 2.4-1.075, 2.4-2.4S 301.325,42.4, 300,42.4zM 324.64,41.76L 324.64,36.8 L 321.6,36.8 C 320.72,36.8, 320,37.52, 320,38.4l0,4.8 c0,0.88, 0.72,1.6, 1.6,1.6l 0.8,0 l0,2.4 l 2.4-2.4l 4,0 c 0.88,0, 1.6-0.72, 1.6-1.6l0-1.456 c-0.051,0.011-0.106,0.017-0.16,0.017L 324.64,41.761 z M 334.4,32.8L 327.2,32.8 C 326.32,32.8, 325.6,33.52, 325.6,34.4l0,6.4 l 5.6,0 l 2.4,2.4l0-2.4 l 0.8,0 c 0.88,0, 1.6-0.72, 1.6-1.6L 336,34.4 C 336,33.52, 335.28,32.8, 334.4,32.8zM 364.8,34.4L 355.2,34.4 C 354.32,34.4, 353.6,35.12, 353.6,36l0,5.6 c0,0.88, 0.72,1.6, 1.6,1.6l 3.2,0 l 3.2,2.4l0-2.4 l 3.2,0 c 0.88,0, 1.6-0.72, 1.6-1.6L 366.4,36 C 366.4,35.12, 365.68,34.4, 364.8,34.4zM 399.016,40.24l-6.419-6.425c-0.328-0.341-0.865-0.341-1.193,0L 384.984,40.24c-0.329,0.34-0.206,0.619, 0.272,0.619l 1.338,0 l0,4.934 c0,0.356, 0.015,0.647, 0.659,0.647l 3.116,0 l0-4.95 l 3.26,0 l0,4.95 l 3.271,0 c 0.491,0, 0.505-0.29, 0.505-0.647l0-4.934 l 1.338,0 C 399.221,40.859, 399.344,40.581, 399.016,40.24zM 430.036,44.374l-3.023-3.023c 0.456-0.75, 0.718-1.628, 0.718-2.57c0-2.733-2.369-5.102-5.102-5.102 C 419.896,33.68, 417.68,35.896, 417.68,38.629c0,2.734, 2.368,5.102, 5.102,5.102c 0.909,0, 1.76-0.246, 2.492-0.674l 3.039,3.040 c 0.298,0.298, 0.78,0.298, 1.077,0l 0.754-0.754C 430.441,45.046, 430.333,44.671, 430.036,44.374z M 419.203,38.629 c0-1.892, 1.534-3.426, 3.426-3.426c 1.893,0, 3.579,1.686, 3.579,3.579s-1.534,3.426-3.426,3.426S 419.203,40.522, 419.203,38.629zM 461.428,40c0-0.838, 0.516-1.5, 1.292-1.954c-0.141-0.467-0.325-0.916-0.553-1.338c-0.872,0.228-1.577-0.114-2.169-0.706 c-0.594-0.593-0.775-1.298-0.547-2.169c-0.422-0.228-0.869-0.414-1.338-0.554C 457.659,34.057, 456.838,34.573, 456,34.573 c-0.838,0-1.658-0.516-2.114-1.293C 453.418,33.419, 452.97,33.606, 452.549,33.833C 452.776,34.704, 452.595,35.41, 452.002,36.002 C 451.41,36.594, 450.704,36.936, 449.834,36.709C 449.606,37.13, 449.42,37.578, 449.28,38.046C 450.057,38.5, 450.573,39.162, 450.573,40 c0,0.838-0.516,1.659-1.293,2.114c 0.14,0.468, 0.326,0.916, 0.554,1.338c 0.871-0.228, 1.576-0.046, 2.169,0.546 c 0.593,0.593, 0.774,1.298, 0.546,2.169c 0.422,0.228, 0.87,0.414, 1.338,0.554c 0.455-0.778, 1.276-1.293, 2.114-1.293 c 0.838,0, 1.66,0.516, 2.114,1.293c 0.469-0.14, 0.916-0.326, 1.338-0.554c-0.228-0.871-0.047-1.576, 0.547-2.169 c 0.592-0.592, 1.297-0.934, 2.169-0.706c 0.228-0.422, 0.413-0.87, 0.553-1.338C 461.944,41.499, 461.428,40.838, 461.428,40z M 456,42.922 c-1.614,0-2.922-1.309-2.922-2.922S 454.386,37.078, 456,37.078c 1.614,0, 2.922,1.309, 2.922,2.922S 457.614,42.922, 456,42.922zM 488,38.4c-1.325,0-2.4,1.075-2.4,2.4c0,1.326, 1.075,2.4, 2.4,2.4c 1.326,0, 2.4-1.074, 2.4-2.4C 490.4,39.475, 489.326,38.4, 488,38.4z M 494.4,36l-1.919,0 c-0.264,0-0.549-0.205-0.632-0.455l-0.496-1.489C 491.268,33.805, 490.984,33.6, 490.72,33.6L 485.28,33.6 C 485.016,33.6, 484.731,33.805, 484.649,34.055L 484.151,35.545 C 484.068,35.795, 483.784,36, 483.52,36L 481.6,36 C 480.72,36, 480,36.72, 480,37.6l0,7.2 c0,0.88, 0.72,1.6, 1.6,1.6l 12.8,0 c 0.881,0, 1.6-0.72, 1.6-1.6L 496,37.6 C 496,36.72, 495.281,36, 494.4,36z M 488,44.8 c-2.21,0-4-1.79-4-4c0-2.209, 1.79-4, 4-4c 2.209,0, 4,1.791, 4,4C 492,43.010, 490.209,44.8, 488,44.8z M 493.84,38.718 c-0.309,0-0.559-0.25-0.559-0.56s 0.25-0.56, 0.559-0.56c 0.31,0, 0.56,0.25, 0.56,0.56S 494.15,38.718, 493.84,38.718zM 8,67.52C 2.751,67.52,0,71.386,0,72s 2.751,4.48, 8,4.48s 8-3.866, 8-4.48S 13.249,67.52, 8,67.52z M 8,75.446 c-1.963,0-3.555-1.543-3.555-3.446S 6.037,68.554, 8,68.554c 1.964,0, 3.556,1.543, 3.556,3.446S 9.964,75.446, 8,75.446z M 8,72 c-0.325-0.357, 0.531-1.722,0-1.722c-0.982,0-1.778,0.771-1.778,1.722S 7.018,73.723, 8,73.723c 0.982,0, 1.778-0.772, 1.778-1.723 C 9.778,71.563, 8.278,72.304, 8,72zM 40,64.64c-4.065,0-7.36,3.296-7.36,7.36c0,4.065, 3.295,7.36, 7.36,7.36s 7.36-3.295, 7.36-7.36C 47.36,67.935, 44.065,64.64, 40,64.64z M 40,77.76 c-3.182,0-5.76-2.579-5.76-5.76S 36.818,66.24, 40,66.24s 5.76,2.579, 5.76,5.76S 43.182,77.76, 40,77.76zM 40.56,67.84L 39.44,67.84L 39.44,72.232L 42.164,74.956L 42.956,74.164L 40.56,71.768 zM 77.6,66.4l-0.72,0 l0,1.6 L 74.32,68 L 74.32,66.4 L 69.68,66.4 l0,1.6 L 67.12,68 L 67.12,66.4 L 66.4,66.4 C 65.52,66.4, 64.8,67.12, 64.8,68l0,9.6 c0,0.88, 0.72,1.6, 1.6,1.6l 11.2,0 c 0.88,0, 1.6-0.72, 1.6-1.6L 79.2,68 C 79.2,67.12, 78.48,66.4, 77.6,66.4z M 77.6,77.6L 66.4,77.6 L 66.4,71.2 l 11.2,0 L 77.6,77.6 z M 68.96,64.8L 67.84,64.8 l0,2.72 l 1.12,0 L 68.96,64.8 z M 76.16,64.8l-1.12,0 l0,2.72 l 1.12,0 L 76.16,64.8 zM 108.641,70.402L 107.2,70.402 l0-1.12 c0-2.318-1.067-3.68-3.2-3.68c-2.132,0-3.2,1.362-3.2,3.68l0,1.12 L 99.2,70.402 c-0.442,0-0.8,0.518-0.8,0.96l0,6.24 c0,0.44, 0.343,0.911, 0.762,1.046l 0.957,0.31c 0.418,0.135, 1.121,0.246, 1.562,0.246l 4.64,0 c 0.44,0, 1.143-0.11, 1.562-0.246l 0.957-0.31 C 109.258,78.513, 109.6,78.042, 109.6,77.602l0-6.24 C 109.6,70.919, 109.082,70.402, 108.641,70.402z M 102.4,68.962c0-1.156, 0.638-1.76, 1.6-1.76 c 0.962,0, 1.6,0.604, 1.6,1.76l0,1.44 L 102.4,70.402 L 102.4,68.962 zM 136.817,77.6L 130.384,77.6 L 130.384,66.4 l 6.432,0 l0,2.4 L 138.4,68.8 L 138.4,66.4 c0-0.88-0.719-1.6-1.6-1.6L 130.4,64.8 C 129.52,64.8, 128.8,65.52, 128.8,66.4l0,11.2 c0,0.88, 0.72,1.6, 1.6,1.6l 6.4,0 c 0.881,0, 1.6-0.72, 1.6-1.6l0-1.6 l-1.583,0 L 136.817,77.6 z M 143.2,72.4l-3.183-3.12L 140.017,71.2 l-7.2,0 l0,2.4 l 7.2,0 l0,1.92 L 143.2,72.4zM 173.6,64.8L 166.4,64.8 C 165.52,64.8, 164.816,65.52, 164.816,66.4l0,2.4 L 166.4,68.8 L 166.4,66.4 l 7.2,0 l0,11.2 L 166.4,77.6 l0-1.6 L 164.816,76 l0,1.6 c0,0.88, 0.704,1.6, 1.584,1.6l 7.2,0 c 0.88,0, 1.6-0.72, 1.6-1.6L 175.2,66.4 C 175.2,65.52, 174.48,64.8, 173.6,64.8z M 168,75.52l 3.2-3.12l-3.2-3.12L 168,71.2 L 160.8,71.2 l0,2.4 l 7.2,0 L 168,75.52 zM 198.636,77.6c-0.348,0-0.678-0.162-0.889-0.442L 194.888,73.383c-0.372-0.491-0.275-1.19, 0.216-1.562 c 0.492-0.373, 1.19-0.275, 1.562,0.216l 1.881,2.483l 4.73-7.593c 0.326-0.522, 1.014-0.682, 1.537-0.357 c 0.522,0.325, 0.682,1.014, 0.356,1.536L 199.583,77.074c-0.194,0.313-0.53,0.509-0.897,0.525C 198.67,77.6, 198.653,77.6, 198.636,77.6zM 235.479,74.522L 233.273,72l 2.206-2.522c 0.375-0.375, 0.375-0.983,0-1.358c-0.375-0.374-0.983-0.374-1.358,0L 232,70.546 l-2.121-2.424c-0.375-0.375-0.983-0.375-1.358,0c-0.374,0.375-0.374,0.983,0,1.358L 230.727,72l-2.206,2.522 c-0.374,0.375-0.374,0.982,0,1.356c 0.375,0.375, 0.983,0.375, 1.358,0L 232,73.454l 2.121,2.423c 0.375,0.375, 0.983,0.375, 1.358,0 S 235.854,74.897, 235.479,74.522zM 264,64.32c-4.242,0-7.68,3.438-7.68,7.68s 3.438,7.68, 7.68,7.68c 4.242,0, 7.68-3.438, 7.68-7.68S 268.242,64.32, 264,64.32z M 268.133,67.869 l-0.002-0.002C 268.131,67.868, 268.133,67.869, 268.133,67.869z M 258.157,72c0-3.227, 2.616-5.843, 5.843-5.843c 1.403,0, 2.691,0.494, 3.699,1.318 L 259.476,75.698C 258.651,74.69, 258.157,73.403, 258.157,72z M 259.867,76.131l 0.002,0.002C 259.868,76.132, 259.868,76.132, 259.867,76.131z M 264,77.844 c-1.403,0-2.69-0.495-3.698-1.319L 268.523,68.302c 0.825,1.007, 1.32,2.294, 1.32,3.698C 269.844,75.227, 267.226,77.844, 264,77.844zM 295.902,64.641c-4.064,0.054-7.315,3.394-7.261,7.458c 0.054,4.062, 3.394,7.314, 7.458,7.26 c 4.064-0.054, 7.315-3.394, 7.261-7.458C 303.306,67.838, 299.966,64.586, 295.902,64.641z M 296.718,67.094c 0.748,0, 0.969,0.434, 0.969,0.93 c0,0.62-0.497,1.194-1.344,1.194c-0.709,0-1.046-0.357-1.026-0.946C 295.317,67.775, 295.733,67.094, 296.718,67.094z M 294.799,76.6 c-0.511,0-0.886-0.31-0.528-1.675l 0.586-2.419c 0.102-0.388, 0.118-0.543,0-0.543c-0.153,0-0.817,0.268-1.21,0.532l-0.255-0.418 c 1.244-1.038, 2.674-1.648, 3.287-1.648c 0.511,0, 0.596,0.605, 0.341,1.535l-0.672,2.544c-0.118,0.45-0.067,0.605, 0.051,0.605 c 0.153,0, 0.656-0.186, 1.15-0.574l 0.289,0.388C 296.63,76.134, 295.311,76.6, 294.799,76.6zM 327.902,64.641c-4.065,0.054-7.316,3.394-7.262,7.458c 0.054,4.062, 3.394,7.314, 7.458,7.26 c 4.063-0.054, 7.315-3.394, 7.26-7.458C 335.306,67.838, 331.966,64.586, 327.902,64.641z M 327.881,76.48L 327.84,76.48 c-0.626-0.018-1.067-0.48-1.050-1.097 c 0.018-0.606, 0.47-1.046, 1.075-1.046l 0.037,0.001c 0.643,0.019, 1.080,0.476, 1.061,1.11C 328.946,76.055, 328.5,76.48, 327.881,76.48z M 330.514,71.254c-0.148,0.209-0.471,0.469-0.879,0.786l-0.45,0.31c-0.246,0.192-0.395,0.372-0.45,0.549 c-0.045,0.141-0.066,0.177-0.070,0.461l-0.001,0.073L 326.95,73.434 l 0.005-0.146c 0.021-0.597, 0.036-0.947, 0.283-1.238 c 0.388-0.455, 1.244-1.006, 1.28-1.030c 0.122-0.093, 0.226-0.198, 0.303-0.31c 0.18-0.248, 0.259-0.444, 0.259-0.635 c0-0.266-0.079-0.513-0.235-0.732c-0.15-0.212-0.436-0.319-0.849-0.319c-0.41,0-0.69,0.13-0.858,0.397 C 326.965,69.696, 326.878,69.983, 326.878,70.278l0,0.074 l-1.768,0 l 0.003-0.077c 0.046-1.083, 0.432-1.862, 1.149-2.318C 326.712,67.666, 327.272,67.52, 327.925,67.52 c 0.855,0, 1.578,0.208, 2.146,0.618c 0.576,0.415, 0.868,1.038, 0.868,1.849C 330.939,70.441, 330.796,70.867, 330.514,71.254zM 367.61,78.386L 360.483,65.881C 360.385,65.708, 360.2,65.602, 360,65.602c-0.2,0-0.384,0.106-0.483,0.279L 352.391,78.386 c-0.097,0.17-0.095,0.377, 0.004,0.545s 0.282,0.271, 0.478,0.271l 14.252,0 c 0.195,0, 0.378-0.103, 0.478-0.271 C 367.703,78.762, 367.705,78.555, 367.61,78.386z M 360.88,77.602L 359.12,77.602 l0-1.6 l 1.76,0 L 360.88,77.602 z M 360.88,74.802L 359.12,74.802 l0-4.8 l 1.76,0 L 360.88,74.802 zM 389.6,71.2L 384.8,71.2 c-0.442,0-0.8,0.358-0.8,0.8s 0.358,0.8, 0.8,0.8l 4.8,0 c 0.442,0, 0.8-0.358, 0.8-0.8S 390.042,71.2, 389.6,71.2z M 389.6,74.4L 384.8,74.4 c-0.442,0-0.8,0.358-0.8,0.8s 0.358,0.8, 0.8,0.8l 4.8,0 c 0.442,0, 0.8-0.358, 0.8-0.8S 390.042,74.4, 389.6,74.4z M 399.52,71.2L 396.8,71.2 L 396.8,68.48 C 396.8,68.038, 396.442,68, 396,68s-0.8,0.038-0.8,0.48L 395.2,71.2 l-2.64,0 C 392.118,71.2, 392.080,71.558, 392.080,72 s 0.038,0.8, 0.481,0.8L 395.2,72.8 l0,2.72 c0,0.442, 0.358,0.48, 0.8,0.48s 0.8-0.038, 0.8-0.48L 396.8,72.8 l 2.72,0 c 0.442,0, 0.48-0.358, 0.48-0.8S 399.962,71.2, 399.52,71.2z M 389.6,68L 384.8,68 C 384.358,68, 384,68.358, 384,68.8s 0.358,0.8, 0.8,0.8l 4.8,0 c 0.442,0, 0.8-0.358, 0.8-0.8S 390.042,68, 389.6,68zM 428.8,71.2L 419.2,71.2 c-0.442,0-0.8,0.358-0.8,0.8s 0.358,0.8, 0.8,0.8l 9.6,0 c 0.442,0, 0.8-0.358, 0.8-0.8S 429.242,71.2, 428.8,71.2z M 419.2,69.6l 9.6,0 c 0.442,0, 0.8-0.358, 0.8-0.8 s-0.358-0.8-0.8-0.8L 419.2,68 C 418.758,68, 418.4,68.358, 418.4,68.8S 418.758,69.6, 419.2,69.6z M 428.8,74.4L 419.2,74.4 c-0.442,0-0.8,0.358-0.8,0.8s 0.358,0.8, 0.8,0.8l 9.6,0 c 0.442,0, 0.8-0.358, 0.8-0.8 S 429.242,74.4, 428.8,74.4zM 453.778,72.696l 4.48,0 l0-1.44 l-4.48,0 L 453.778,72.696 z M 460,64.8L 452,64.8 C 451.12,64.8, 450.4,65.52, 450.4,66.4l0,11.2 c0,0.88, 0.72,1.6, 1.6,1.6l 8,0 c 0.88,0, 1.6-0.72, 1.6-1.6L 461.6,66.4 C 461.6,65.52, 460.88,64.8, 460,64.8z M 460,77.6L 452,77.6 L 452,66.4 l 8,0 L 460,77.6 z M 458.24,68.135L 453.76,68.135 l0,1.4 l 4.48,0 L 458.24,68.135 z M 458.24,74.416L 453.76,74.416 l0,1.4 l 4.48,0 L 458.24,74.416 zM 493.7,69.738l-1.637-4.509c-0.121-0.333-0.476-0.509-0.791-0.394L 480.394,68.806C 480.078,68.921 479.919,69.284, 480.040,69.617 l 1.726,4.754L 481.766,71.822 c0-1.15, 0.918-2.084, 2.049-2.084l 2.874,0 l 3.428-2.406l 1.984,2.406L 493.7,69.738 z M 495.39,71.182L 483.814,71.182 c-0.336,0-0.61,0.287-0.61,0.642l0,7.537 c0,0.354, 0.273,0.642, 0.61,0.642l 11.576,0 c 0.337,0, 0.61-0.287, 0.61-0.642L 496,71.822 C 496,71.469, 495.727,71.182, 495.39,71.182z M 494.507,78.398L 484.911,78.398 l0-1.375 l 1.476-3.436l 2.215,2.75l 2.078-2.13l 2.671-0.964l 1.156,2.578 L 494.507,78.398 zM 2.711,102.33l 0.882,7.767C 3.64,110.466, 5.421,111.678, 8,111.68c 2.579-0.002, 4.361-1.214, 4.408-1.583l 0.882-7.767 C 11.942,103.083, 9.929,103.44, 8,103.44S 4.058,103.083, 2.711,102.33z M 10.534,97.53l-0.687-0.762C 9.582,96.39, 9.294,96.32, 8.733,96.32L 7.267,96.32 c-0.56,0-0.848,0.070-1.114,0.447L 5.467,97.53C 3.411,97.889, 1.92,98.842, 1.92,99.544l0,0.137 c0,1.237, 2.722,2.24, 6.080,2.24s 6.080-1.003, 6.080-2.24 L 14.080,99.544 C 14.080,98.842, 12.59,97.889, 10.534,97.53z M 9.655,99.311L 8.654,98.24L 7.346,98.24 L 6.345,99.311L 4.985,99.311 c0,0, 1.49-1.776, 1.689-2.017 C 6.826,97.11, 6.982,97.040, 7.183,97.040l 1.634,0 c 0.202,0, 0.357,0.070, 0.51,0.254c 0.198,0.241, 1.689,2.017, 1.689,2.017L 9.655,99.311 zM 44.138,97.6L 35.2,97.6 C 34.32,97.6, 33.6,98.32, 33.6,99.2l0,9.6 c0,0.88, 0.72,1.6, 1.6,1.6l 9.6,0 c 0.88,0, 1.6-0.72, 1.6-1.6L 46.4,100.102 L 44.138,97.6z M 43.2,102.4c0,0.44-0.36,0.8-0.8,0.8L 37.6,103.2 C 37.16,103.2, 36.8,102.84, 36.8,102.4L 36.8,98.4 l 6.4,0 L 43.2,102.4 z M 42.4,99.2l-1.6,0 l0,3.2 l 1.6,0 L 42.4,99.2 zM 73.15,99.613c-0.334,0.326-3.602,3.757-3.602,3.757C 69.37,103.544, 69.281,103.772, 69.281,104s 0.089,0.456, 0.267,0.63 c0,0, 3.267,3.43, 3.602,3.756c 0.334,0.326, 0.936,0.349, 1.293,0c 0.356-0.348, 0.384-0.834-0.001-1.26L 71.444,104l 2.998-3.126 c 0.385-0.427, 0.357-0.913, 0.001-1.261C 74.085,99.265, 73.483,99.286, 73.15,99.613zM 108.386,102.85c-0.326,0.334-3.756,3.602-3.756,3.602C 104.456,106.631, 104.228,106.72, 104,106.72c-0.229,0-0.457-0.089-0.63-0.267 c0,0-3.43-3.268-3.757-3.602c-0.326-0.334-0.348-0.935,0-1.293c 0.349-0.357, 0.834-0.385, 1.261,0L 104,104.556l 3.126-2.998 c 0.427-0.385, 0.914-0.357, 1.261,0C 108.735,101.915, 108.714,102.517, 108.386,102.85zM 140.386,105.15c-0.326-0.334-3.756-3.602-3.756-3.602C 136.456,101.37, 136.228,101.28, 136,101.28c-0.229,0-0.457,0.090-0.63,0.268 c0,0-3.43,3.267-3.757,3.602c-0.326,0.334-0.348,0.936,0,1.293c 0.349,0.356, 0.834,0.385, 1.261,0L 136,103.445l 3.126,2.998 c 0.427,0.385, 0.914,0.356, 1.261,0C 140.735,106.085, 140.714,105.483, 140.386,105.15zM 166.85,99.613c 0.334,0.326, 3.602,3.757, 3.602,3.757C 170.631,103.544, 170.72,103.772, 170.72,104s-0.089,0.456-0.268,0.63 c0,0-3.267,3.43-3.602,3.756c-0.334,0.326-0.935,0.349-1.293,0c-0.357-0.348-0.385-0.834,0-1.26L 168.556,104L 165.558,100.874 c-0.385-0.427-0.357-0.913,0-1.261C 165.915,99.265, 166.517,99.286, 166.85,99.613zM 200,102.24c-0.972,0-1.76,0.788-1.76,1.76s 0.788,1.76, 1.76,1.76s 1.76-0.788, 1.76-1.76S 200.972,102.24, 200,102.24zM 239.36,99.434c-0.542,0.241-1.124,0.402-1.735,0.476c 0.624-0.374, 1.103-0.966, 1.328-1.67c-0.583,0.346-1.23,0.598-1.917,0.733 c-0.551-0.587-1.336-0.954-2.205-0.954c-1.668,0-3.020,1.352-3.020,3.019c0,0.237, 0.026,0.467, 0.078,0.688 c-2.51-0.126-4.735-1.328-6.224-3.155C 225.405,99.017, 225.255,99.536, 225.255,100.090c0,1.048, 0.534,1.972, 1.344,2.514 c-0.495-0.016-0.961-0.151-1.368-0.378c0,0.013,0,0.025,0,0.038c0,1.463, 1.042,2.683, 2.422,2.962c-0.253,0.069-0.52,0.106-0.796,0.106 c-0.194,0-0.383-0.018-0.568-0.054c 0.384,1.2, 1.5,2.073, 2.821,2.097c-1.034,0.81-2.335,1.293-3.75,1.293 c-0.244,0-0.484-0.014-0.72-0.042c 1.336,0.857, 2.923,1.357, 4.63,1.357c 5.554,0, 8.592-4.602, 8.592-8.593 c0-0.13-0.002-0.261-0.009-0.39C 238.443,100.572, 238.954,100.040, 239.36,99.434zM 269.16,97.12L 258.84,97.12 C 257.894,97.12, 257.12,97.894, 257.12,98.84l0,10.32 c0,0.946, 0.774,1.719, 1.719,1.719l 5.219,0 l0-4.934 l-1.648,0 L 262.41,103.797 l 1.648,0 L 264.058,102.72 c0-1.66, 1.226-2.96, 2.79-2.96l 1.518,0 l0,2.427 l-1.359,0 c-0.355,0-0.459,0.204-0.459,0.486l0,1.123 l 1.818,0 l0,2.15 l-1.818,0 L 266.549,110.88 l 2.61,0 c 0.946,0, 1.719-0.774, 1.719-1.719L 270.878,98.84 C 270.88,97.894, 270.106,97.12, 269.16,97.12zM 294.893,106.582C 294.473,108.785, 293.96,110.897, 292.44,112c-0.469-3.33, 0.689-5.83, 1.226-8.484 c-0.917-1.544, 0.11-4.65, 2.045-3.884c 2.38,0.942-2.061,5.738, 0.92,6.338c 3.113,0.626, 4.383-5.4, 2.454-7.359 C 296.296,95.78, 290.966,98.545, 291.622,102.595c 0.159,0.99, 1.182,1.291, 0.409,2.658c-1.785-0.395-2.318-1.803-2.249-3.68 C 289.893,98.502, 292.542,96.351, 295.2,96.054c 3.362-0.377, 6.516,1.234, 6.95,4.395c 0.49,3.568-1.516,7.433-5.111,7.154 C 296.066,107.529, 295.657,107.046, 294.893,106.582zM 320.013,109.588c-0.004-0.040-0.007-0.079-0.009-0.119C 320.005,109.509, 320.009,109.549, 320.013,109.588zM 323.686,104.83c 1.438,0.043, 2.402-1.448, 2.154-3.331c-0.248-1.883-1.616-3.393-3.053-3.436 c-1.438-0.043-2.402,1.398-2.154,3.281C 320.881,103.226, 322.248,104.788, 323.686,104.83zM 336,100L 336,98.667 C 336,97.2, 334.8,96, 333.333,96L 322.667,96 C 321.225,96, 320.042,97.16, 320.002,98.593 c 0.912-0.803, 2.177-1.474, 3.482-1.474c 1.395,0, 5.582,0, 5.582,0l-1.249,1.057l-1.77,0 c 1.174,0.45, 1.799,1.814, 1.799,3.214c0,1.176-0.653,2.187-1.576,2.906c-0.901,0.702-1.071,0.995-1.071,1.592 c0,0.509, 0.965,1.375, 1.469,1.731c 1.475,1.040, 1.952,2.005, 1.952,3.616c0,0.257-0.032,0.513-0.095,0.765l 4.808,0 C 334.8,112, 336,110.801, 336,109.333L 336,101 l-3,0 L 333,104 l-1,0 l0-3 l-3,0 l0-1 L 332,100 L 332,97 l 1,0 l0,3 L 336,100 zM 322.904,107.968c 0.338,0, 0.647-0.009, 0.968-0.009c-0.424-0.411-0.76-0.916-0.76-1.537 c0-0.369, 0.118-0.724, 0.283-1.039c-0.168,0.012-0.34,0.016-0.518,0.016c-1.162,0-2.149-0.376-2.878-0.998l0,1.051 l 0,3.152C 320.835,108.206, 321.826,107.968, 322.904,107.968zM 320.053,109.863c-0.017-0.085-0.031-0.172-0.040-0.26C 320.023,109.691, 320.036,109.778, 320.053,109.863zM 327.116,110.888c-0.235-0.919-1.070-1.374-2.233-2.181c-0.423-0.136-0.889-0.217-1.389-0.222 c-1.4-0.015-2.705,0.546-3.441,1.381C 320.303,111.080, 321.383,112, 322.667,112l 4.476,0 c 0.028-0.174, 0.042-0.354, 0.042-0.538 C 327.185,111.266, 327.161,111.075, 327.116,110.888zM 364.293,109.707L 366.586,112L 368,110.586L 365.707,108.293L 368,106L 362,106L 362,112 zM 352,102L 358,102L 358,96L 355.707,98.293L 353.438,96.021L 352.024,97.435L 354.293,99.707 zM 352,110.586L 353.414,112L 355.707,109.707L 358,112L 358,106L 352,106L 354.293,108.293 zM 362,102L 368,102L 365.707,99.707L 367.98,97.435L 366.566,96.021L 364.293,98.293L 362,96 z"></path></svg>