<?xml version="1.0" encoding="utf-8"?>
<!-- Generator: Adobe Illustrator 16.0.0, SVG Export Plug-In . SVG Version: 6.00 Build 0)  -->
<!DOCTYPE svg PUBLIC "-//W3C//DTD SVG 1.0//EN" "http://www.w3.org/TR/2001/REC-SVG-20010904/DTD/svg10.dtd">
<svg version="1.0" id="Layer_1" xmlns="http://www.w3.org/2000/svg" xmlns:xlink="http://www.w3.org/1999/xlink" x="0px" y="0px"
	 width="417.834px" height="86.842px" viewBox="305.822 525.609 417.834 86.842"
	 enable-background="new 305.822 525.609 417.834 86.842" xml:space="preserve">
<g>
	<path fill="#717272" d="M357.834,567.569c0.935-0.154,1.907-0.273,2.921-0.352c1.011-0.076,2.024-0.115,3.038-0.115
		c1.013,0,2.025,0.039,3.038,0.115c1.013,0.077,1.947,0.196,2.806,0.352v41.024c-1.636,0.699-3.428,1.306-5.375,1.812
		c-1.949,0.507-3.975,0.895-6.078,1.167c-2.104,0.273-4.208,0.486-6.312,0.644c-2.104,0.156-4.091,0.234-5.961,0.234
		c-6.233,0-11.845-0.975-16.831-2.922c-4.986-1.946-9.193-4.771-12.623-8.475c-3.43-3.698-6.06-8.2-7.889-13.498
		c-1.832-5.299-2.747-11.298-2.747-18c0-6.697,0.936-12.759,2.806-18.174c1.869-5.416,4.537-10.031,8.006-13.851
		c3.466-3.816,7.598-6.76,12.389-8.823c4.792-2.063,10.11-3.099,15.954-3.099c4.44,0,8.298,0.293,11.571,0.877
		c3.271,0.584,6.231,1.385,8.883,2.396c-0.158,1.792-0.488,3.447-0.995,4.968c-0.508,1.521-1.11,3.137-1.812,4.852
		c-2.183-0.703-4.54-1.324-7.071-1.871c-2.532-0.543-5.709-0.817-9.525-0.817c-4.13,0-7.89,0.74-11.278,2.222
		c-3.39,1.479-6.272,3.643-8.648,6.484c-2.378,2.846-4.229,6.354-5.552,10.52c-1.326,4.17-1.987,8.941-1.987,14.317
		c0,5.534,0.681,10.306,2.045,14.317c1.363,4.014,3.291,7.363,5.786,10.052c2.492,2.688,5.435,4.675,8.823,5.96
		c3.39,1.285,7.147,1.93,11.278,1.93c2.493,0,4.676-0.136,6.546-0.41c1.87-0.271,3.467-0.603,4.793-0.992v-32.843H357.834z"/>
	<path fill="#717272" d="M412.181,612.45c-4.675,0-8.766-0.799-12.271-2.396c-3.507-1.597-6.428-3.799-8.766-6.604
		c-2.338-2.804-4.073-6.116-5.201-9.935c-1.131-3.814-1.695-7.947-1.695-12.39c0-4.44,0.564-8.57,1.695-12.388
		c1.128-3.818,2.862-7.13,5.201-9.937c2.338-2.804,5.259-5.025,8.766-6.662c3.507-1.636,7.597-2.454,12.271-2.454
		c4.676,0,8.766,0.818,12.271,2.454c3.507,1.637,6.429,3.858,8.767,6.662c2.337,2.807,4.07,6.117,5.201,9.937
		c1.129,3.816,1.694,7.946,1.694,12.388s-0.565,8.574-1.694,12.39c-1.129,3.817-2.864,7.131-5.201,9.935
		c-2.338,2.806-5.26,5.008-8.767,6.604C420.947,611.65,416.857,612.45,412.181,612.45z M412.181,603.218
		c5.377,0,9.351-1.946,11.922-5.844c2.572-3.896,3.856-9.312,3.856-16.247c0-6.934-1.284-12.331-3.856-16.188
		c-2.571-3.857-6.545-5.784-11.922-5.784c-5.375,0-9.331,1.927-11.862,5.784c-2.533,3.855-3.798,9.254-3.798,16.188
		c0,6.936,1.265,12.354,3.798,16.247C402.85,601.271,406.805,603.218,412.181,603.218z"/>
	<path fill="#717272" d="M454.256,600.178c2.104,0.859,4.422,1.539,6.955,2.046c2.53,0.509,5.044,0.762,7.539,0.762
		c1.791,0,3.505-0.194,5.142-0.586c1.637-0.389,3.057-0.973,4.266-1.753c1.208-0.777,2.182-1.731,2.922-2.862
		c0.74-1.13,1.11-2.397,1.11-3.799c0-1.559-0.292-2.846-0.877-3.857c-0.584-1.012-1.364-1.871-2.337-2.57
		c-0.977-0.702-2.104-1.305-3.39-1.813c-1.286-0.506-2.67-0.993-4.149-1.461l-4.091-1.52c-4.987-1.872-8.61-3.974-10.87-6.312
		c-2.26-2.339-3.39-5.494-3.39-9.468c0-5.298,1.89-9.507,5.669-12.622c3.778-3.116,9.331-4.677,16.655-4.677
		c3.039,0,6.019,0.294,8.94,0.878s5.473,1.267,7.655,2.045c-0.157,1.561-0.449,3.117-0.876,4.676c-0.43,1.559-0.955,3-1.578,4.324
		c-1.716-0.622-3.759-1.228-6.137-1.812c-2.377-0.587-4.929-0.878-7.655-0.878c-2.883,0-5.436,0.508-7.655,1.52
		c-2.221,1.014-3.331,2.806-3.331,5.377c0,1.325,0.271,2.455,0.818,3.389c0.543,0.936,1.285,1.734,2.221,2.396
		c0.935,0.661,2.005,1.228,3.214,1.694c1.207,0.469,2.513,0.934,3.915,1.402l5.143,1.754c1.87,0.623,3.642,1.362,5.317,2.22
		c1.675,0.858,3.116,1.929,4.325,3.215c1.207,1.286,2.18,2.844,2.922,4.674c0.739,1.832,1.11,4.033,1.11,6.605
		c0,2.883-0.584,5.512-1.754,7.888c-1.167,2.379-2.825,4.402-4.968,6.078c-2.144,1.676-4.732,2.979-7.771,3.916
		s-6.391,1.401-10.052,1.401c-3.74,0-7.014-0.253-9.818-0.76c-2.804-0.509-5.417-1.188-7.831-2.046
		c0.155-1.558,0.486-3.137,0.994-4.732C453.068,603.314,453.632,601.737,454.256,600.178z"/>
	<path fill="#717272" d="M504.396,600.178c2.104,0.859,4.422,1.539,6.955,2.046c2.53,0.509,5.043,0.762,7.539,0.762
		c1.791,0,3.506-0.194,5.141-0.586c1.638-0.389,3.058-0.973,4.268-1.753c1.208-0.777,2.181-1.731,2.922-2.862
		c0.739-1.13,1.109-2.397,1.109-3.799c0-1.559-0.292-2.846-0.877-3.857c-0.583-1.012-1.361-1.871-2.336-2.57
		c-0.977-0.702-2.104-1.305-3.39-1.813c-1.287-0.506-2.671-0.993-4.15-1.461l-4.09-1.52c-4.987-1.872-8.611-3.974-10.87-6.312
		c-2.26-2.339-3.389-5.494-3.389-9.468c0-5.298,1.888-9.507,5.668-12.622c3.778-3.116,9.331-4.677,16.655-4.677
		c3.039,0,6.02,0.294,8.939,0.878c2.922,0.584,5.474,1.267,7.656,2.045c-0.156,1.561-0.45,3.117-0.877,4.676
		c-0.429,1.559-0.954,3-1.578,4.324c-1.715-0.622-3.76-1.228-6.136-1.812c-2.378-0.587-4.931-0.878-7.655-0.878
		c-2.883,0-5.436,0.508-7.655,1.52c-2.221,1.014-3.332,2.806-3.332,5.377c0,1.325,0.273,2.455,0.819,3.389
		c0.545,0.936,1.286,1.734,2.221,2.396c0.937,0.661,2.005,1.228,3.214,1.694c1.208,0.469,2.515,0.934,3.916,1.402l5.143,1.754
		c1.87,0.623,3.641,1.362,5.316,2.22c1.677,0.858,3.116,1.929,4.326,3.215c1.207,1.286,2.181,2.844,2.922,4.674
		c0.738,1.832,1.109,4.033,1.109,6.605c0,2.883-0.584,5.512-1.753,7.888c-1.169,2.379-2.826,4.402-4.968,6.078
		c-2.146,1.676-4.732,2.979-7.771,3.916s-6.39,1.401-10.053,1.401c-3.738,0-7.013-0.253-9.816-0.76
		c-2.806-0.509-5.418-1.188-7.832-2.046c0.156-1.558,0.486-3.137,0.995-4.732C503.209,603.314,503.772,601.737,504.396,600.178z"/>
	<path fill="#99C43D" d="M582.937,612.45c-4.675,0-8.766-0.799-12.271-2.396c-3.506-1.597-6.43-3.799-8.768-6.604
		c-2.337-2.804-4.072-6.116-5.2-9.935c-1.131-3.814-1.694-7.947-1.694-12.39c0-4.44,0.563-8.57,1.694-12.388
		c1.128-3.818,2.863-7.13,5.2-9.937c2.338-2.804,5.261-5.025,8.768-6.662c3.506-1.636,7.597-2.454,12.271-2.454
		c4.676,0,8.767,0.818,12.272,2.454c3.505,1.637,6.429,3.858,8.766,6.662c2.337,2.807,4.072,6.117,5.202,9.937
		c1.128,3.816,1.693,7.946,1.693,12.388s-0.565,8.574-1.693,12.39c-1.13,3.817-2.865,7.131-5.202,9.935
		c-2.337,2.806-5.26,5.008-8.766,6.604C591.702,611.65,587.612,612.45,582.937,612.45z M582.937,603.218
		c5.377,0,9.351-1.946,11.922-5.844c2.571-3.896,3.856-9.312,3.856-16.247c0-6.934-1.285-12.331-3.856-16.188
		c-2.571-3.857-6.545-5.784-11.922-5.784c-5.375,0-9.331,1.927-11.862,5.784c-2.533,3.855-3.798,9.254-3.798,16.188
		c0,6.936,1.266,12.354,3.798,16.247C573.605,601.271,577.562,603.218,582.937,603.218z"/>
	<path fill="#99C43D" d="M625.362,551.09c0.856-0.152,1.83-0.271,2.922-0.35c1.09-0.077,2.024-0.117,2.806-0.117
		c0.856,0,1.83,0.04,2.922,0.117c1.09,0.077,2.063,0.195,2.923,0.35v32.843c0,3.739,0.351,6.837,1.052,9.291
		c0.7,2.456,1.753,4.384,3.156,5.786c1.401,1.402,3.114,2.378,5.142,2.923c2.024,0.546,4.363,0.818,7.015,0.818
		c3.973,0,7.362-0.429,10.168-1.287V551.09c0.854-0.152,1.811-0.271,2.862-0.35c1.052-0.077,2.006-0.117,2.863-0.117
		s1.813,0.04,2.863,0.117c1.052,0.077,2.006,0.195,2.861,0.35v58.089c-2.727,0.779-5.979,1.521-9.758,2.221
		c-3.781,0.7-7.694,1.052-11.747,1.052c-3.815,0-7.421-0.331-10.811-0.993c-3.39-0.659-6.37-2.006-8.94-4.032
		c-2.571-2.023-4.598-4.868-6.077-8.531c-1.48-3.663-2.222-8.492-2.222-14.492V551.09L625.362,551.09z"/>
	<path fill="#99C43D" d="M695.369,560.323h-9.115l-0.468-1.636l20.104-22.441h0.935v14.844h15.194
		c0.31,1.326,0.467,2.807,0.467,4.441c0,0.857-0.039,1.676-0.116,2.454c-0.078,0.778-0.195,1.56-0.351,2.338h-15.194v27.349
		c0,3.273,0.135,5.885,0.409,7.831c0.272,1.949,0.74,3.448,1.402,4.5s1.558,1.754,2.688,2.104c1.129,0.35,2.552,0.523,4.267,0.523
		c1.324,0,2.572-0.098,3.741-0.291c1.167-0.193,2.221-0.408,3.154-0.643c0.545,1.56,0.878,3.154,0.994,4.792
		c0.118,1.635,0.176,3.078,0.176,4.323c-1.561,0.391-3.197,0.682-4.909,0.877c-1.715,0.194-3.547,0.294-5.491,0.294
		c-5.611,0-9.994-1.364-13.149-4.094c-3.156-2.726-4.734-7.245-4.734-13.558v-34.009H695.369z"/>
</g>
</svg>
