<?xml version="1.0" encoding="utf-8"?>
<!-- Generator: Adobe Illustrator 16.0.0, SVG Export Plug-In . SVG Version: 6.00 Build 0)  -->
<!DOCTYPE svg PUBLIC "-//W3C//DTD SVG 1.0//EN" "http://www.w3.org/TR/2001/REC-SVG-20010904/DTD/svg10.dtd">
<svg version="1.0" id="Layer_1" xmlns="http://www.w3.org/2000/svg" xmlns:xlink="http://www.w3.org/1999/xlink" x="0px" y="0px"
	 width="171.782px" height="349.88px" viewBox="425.941 152 171.782 349.88" enable-background="new 425.941 152 171.782 349.88"
	 xml:space="preserve">
<path fill="#99C43D" d="M443.483,296.482c-0.495-11.528-6.403-16.572-9.999-24.997c-24.533-57.48,16.468-116.69,71.991-118.985
	c4.333,0,8.666,0,12.999,0c45.54,6.067,75.841,34.034,78.99,77.99c3.87,54.047-39.117,97.902-96.988,91.988
	c-1.063,2.767,6.563,5.407,8.999,7.999c52.617,2.521,84.553,32.7,87.989,77.99c3.64,47.98-31.559,88.756-76.991,92.988
	c-56.954,5.307-99.896-39.777-93.988-96.987c2.504-24.258,16.827-40.298,29.996-55.993c-6.759-10.905-12.551-22.778-12.998-39.995
	C443.483,304.481,443.483,300.481,443.483,296.482z M465.48,237.489c0,39.858,49.901,59.608,77.991,33.996
	c30.688-27.983,6.75-84.508-36.996-79.99C482.709,193.95,465.48,213.799,465.48,237.489z M465.48,416.467
	c0.347,29.591,33.252,55.478,64.992,41.995c19.383-8.233,37.438-36.31,21.997-64.991c-5.324-9.892-22.296-24.203-40.995-23.998
	C486.93,369.742,465.166,389.656,465.48,416.467z"/>
<g>
	<circle fill="#99C43D" cx="511.832" cy="237.891" r="85.891"/>
	<circle fill="#FFFFFF" cx="511.74" cy="237.543" r="46.26"/>
	<circle fill="#BAD533" cx="511.541" cy="237.29" r="28.054"/>
</g>
<g>
	<circle fill="#99C43D" cx="511.832" cy="415.928" r="85.891"/>
	<circle fill="#FFFFFF" cx="511.74" cy="415.58" r="46.26"/>
	<circle fill="#BAD533" cx="511.541" cy="415.326" r="28.054"/>
</g>
</svg>
