<?xml version="1.0" encoding="utf-8"?> <!-- Generator: IcoMoon.io --> <!DOCTYPE svg PUBLIC "-//W3C//DTD SVG 1.1//EN" "http://www.w3.org/Graphics/SVG/1.1/DTD/svg11.dtd"> <svg width="992" height="224" viewBox="0 0 992 224" fill="#777777" xmlns="http://www.w3.org/2000/svg" xmlns:xlink="http://www.w3.org/1999/xlink"><path d="M 18.286,24.554l0.00-3.393 q0.00-0.25 -0.17-0.42t-0.402-0.17l-3.429,0.00 q-0.232,0.00 -0.402,0.17t-0.17,0.42l0.00,3.393 q0.00,0.25 0.17,0.42t 0.402,0.17l 3.429,0.00 q 0.232,0.00 0.402-0.17t 0.17-0.42zM 18.25,17.875l 0.321-8.196q0.00-0.214 -0.179-0.339q-0.232-0.196 -0.429-0.196l-3.929,0.00 q-0.196,0.00 -0.429,0.196q-0.179,0.125 -0.179,0.375l 0.304,8.161q0.00,0.179 0.179,0.295t 0.429,0.116l 3.304,0.00 q 0.25,0.00 0.42-0.116t 0.188-0.295zM 18.00,1.196l 13.714,25.143q 0.625,1.125 -0.036,2.25q-0.304,0.518 -0.83,0.821t-1.134,0.304l-27.429,0.00 q-0.607,0.00 -1.134-0.304t-0.83-0.821q-0.661-1.125 -0.036-2.25l 13.714-25.143q 0.304-0.554 0.839-0.875t 1.161-0.321t 1.161,0.321t 0.839,0.875zM 91.091,14.545L 81.455,14.545 L 81.455,4.909 l 2.787,2.787l 10.157-6.095l-6.095,10.159L 91.091,14.545z M 70.743,6.743 c-3.882,3.882-4.809,9.596-2.793,14.361l-1.689,3.066c-3.657-6.143-2.861-14.199, 2.425-19.485s 13.343-6.081, 19.484-2.425l-3.065,1.689 C 80.339,1.935, 74.627,2.86, 70.743,6.743z M 68.909,17.455L 78.545,17.455 l0.00,9.636 l-2.787-2.787l-10.157,6.095l 6.095-10.157L 68.909,17.455z M 89.257,25.255 c 3.90-3.898, 4.815-9.641, 2.765-14.417l 1.692-3.049c 3.684,6.147, 2.896,14.228-2.40,19.524c-5.299,5.297-13.377,6.086-19.524,2.40 l 3.049-1.692C 79.613,30.071, 85.359,29.156, 89.257,25.255zM 157.091,27.636L 130.909,27.636 c-1.606,0.00-2.909-1.303-2.909-2.909L 128.00,7.273 c0.00-1.606, 1.303-2.909, 2.909-2.909l 26.182,0.00 c 1.606,0.00, 2.909,1.303, 2.909,2.909l0.00,17.455 C 160.00,26.333, 158.697,27.636, 157.091,27.636z M 155.636,24.727l-8.337-7.296L 144.00,20.364l-3.299-2.932L 132.364,24.727L 155.636,24.727 z M 130.909,23.273l 8.182-7.273L 130.909,8.727L 130.909,23.273 z M 132.364,7.273l 11.636,10.182l 11.636-10.182L 132.364,7.273 z M 157.091,8.727 l-8.182,7.273L 157.091,23.273L 157.091,8.727 zM 210.573,3.213L 209.333,12.874C 209.333,13.867, 210.133,14.667, 211.126,14.667l 9.66-1.24 c 0.287-0.04, 0.573-0.173, 0.793-0.40c 0.56-0.56, 0.56-1.459,0.00-2.02l-1.613-1.613l 3.587-3.58c 0.593-0.593, 0.593-1.553,0.00-2.147L 220.333,0.447 c-0.594-0.593-1.553-0.593-2.147,0.00L 214.607,4.027l-1.613-1.607c-0.56-0.56-1.46-0.56-2.02,0.00C 210.747,2.64, 210.613,2.927, 210.573,3.213z M 205.427,3.213c-0.04-0.287-0.173-0.573-0.40-0.793c-0.56-0.56-1.46-0.56-2.02,0.00l-1.613,1.607L 197.813,0.447c-0.593-0.593-1.553-0.593-2.147,0.00 L 192.447,3.667c-0.594,0.593-0.594,1.553,0.00,2.147l 3.587,3.58l-1.613,1.613c-0.56,0.561-0.56,1.46,0.00,2.02c 0.22,0.227, 0.507,0.36, 0.793,0.40 L 204.874,14.667C 205.867,14.667, 206.667,13.867, 206.667,12.874L 205.427,3.213z M 210.573,28.787c 0.041,0.287, 0.174,0.573, 0.401,0.793c 0.56,0.56, 1.46,0.56, 2.02,0.00 l 1.613-1.607l 3.579,3.58c 0.594,0.593, 1.553,0.593, 2.147,0.00l 3.22-3.22c 0.593-0.593, 0.593-1.553,0.00-2.147l-3.587-3.58l 1.613-1.613 c 0.56-0.56, 0.56-1.46,0.00-2.02c-0.22-0.227-0.507-0.36-0.793-0.40L 211.126,17.333C 210.133,17.333, 209.333,18.133, 209.333,19.126L 210.573,28.787z M 205.427,28.787 L 206.667,19.126C 206.667,18.133, 205.867,17.333, 204.874,17.333L 195.213,18.573c-0.287,0.04-0.573,0.173-0.793,0.40c-0.56,0.56-0.56,1.46,0.00,2.02l 1.613,1.613 l-3.587,3.58c-0.594,0.593-0.594,1.553,0.00,2.147l 3.22,3.22c 0.593,0.593, 1.553,0.593, 2.147,0.00l 3.58-3.58l 1.613,1.607c 0.56,0.56, 1.46,0.56, 2.02,0.00 C 205.253,29.36, 205.387,29.073, 205.427,28.787zM 271.50,29.50c-7.18,0.00-13.00-5.82-13.00-13.00s 5.82-13.00, 13.00-13.00s 13.00,5.82, 13.00,13.00 S 278.68,29.50, 271.50,29.50z M 277.938,15.938c0.00-0.552-0.448-1.00-1.00-1.00l-4.00,0.00 l0.00-4.00 c0.00-0.552-0.447-1.00-1.00-1.00l-1.00,0.00 c-0.553,0.00-1.00,0.448-1.00,1.00l0.00,4.00 l-4.00,0.00 c-0.553,0.00-1.00,0.448-1.00,1.00l0.00,1.00 c0.00,0.553, 0.447,1.00, 1.00,1.00l 4.00,0.00 l0.00,4.00 c0.00,0.553, 0.447,1.00, 1.00,1.00l 1.00,0.00 c 0.553,0.00, 1.00-0.447, 1.00-1.00l0.00-4.00 l 4.00,0.00 c 0.552,0.00, 1.00-0.447, 1.00-1.00L 277.938,15.938 zM 335.50,3.50c-7.18,0.00-13.00,5.82-13.00,13.00s 5.82,13.00, 13.00,13.00c 7.18,0.00, 13.00-5.82, 13.00-13.00 S 342.68,3.50, 335.50,3.50z M 342.00,16.875c0.00,0.553-0.448,1.00-1.00,1.00L 330.00,17.875 c-0.553,0.00-1.00-0.447-1.00-1.00l0.00-1.00 c0.00-0.552, 0.447-1.00, 1.00-1.00l 11.00,0.00 c 0.552,0.00, 1.00,0.448, 1.00,1.00 L 342.00,16.875 zM 409.002,8.394l0.00,12.533 l 4.039,0.00 l0.00,4.039 L 390.982,24.966 L 390.982,3.032 l 4.039,0.00 l0.00,3.977 L 407.45,7.009 l 4.639-4.639 l 1.405,1.406L 409.002,8.394z M 395.021,10.985L 395.021,19.50 l 8.452-8.515L 395.021,10.985 z M 404.963,12.37l-8.619,8.557l 8.619,0.00 L 404.963,12.37 z M 387.006,7.009l 3.045,0.00 l0.00,3.977 L 387.006,10.986 L 387.006,7.009 z M 409.002,28.942l-4.039,0.00 L 404.963,25.96 l 4.039,0.00 L 409.002,28.942 zM 464.902,6.004l 9.125,0.00 l-0.02,9.229l-3.129-3.128l-2.949,2.949 c 0.662,1.164, 1.043,2.507, 1.043,3.941c0.00,4.418-3.58,8.00-8.00,8.00c-4.418,0.00-8.00-3.582-8.00-8.00c0.00-4.418, 3.582-8.00, 8.00-8.00c 1.525,0.00, 2.946,0.435, 4.16,1.176 l 2.918-2.956L 464.902,6.004z M 456.973,18.996c0.00,2.209, 1.791,4.00, 4.00,4.00s 4.00-1.791, 4.00-4.00s-1.791-4.00-4.00-4.00S 456.973,16.787, 456.973,18.996zM 530.039,18.721l0.00,3.293 l 3.996,0.00 l0.00,3.996 l-3.996,0.00 l0.00,3.996 l-4.057,0.00 L 525.982,26.01 L 521.987,26.01 l0.00-3.996 l 3.995,0.00 l0.00-3.305 c-3.435-0.895-5.973-4.009-5.973-7.723c0.00-4.413, 3.578-7.991, 7.991-7.991c 4.414,0.00, 7.99,3.578, 7.99,7.991 C 535.99,14.715, 533.494,17.838, 530.039,18.721z M 528.00,6.991c-2.207,0.00-3.996,1.788-3.996,3.995c0.00,2.206, 1.789,3.995, 3.996,3.995 c 2.207,0.00, 3.996-1.789, 3.996-3.995C 531.996,8.779, 530.207,6.991, 528.00,6.991zM 602.498,5.501c-2.307-2.309-4.04-1.963-4.04-1.963L 590.373,11.622L 581.136,20.859L 579.52,28.48l 7.621-1.616l 9.237-9.237l 8.083-8.083 C 604.461,9.544, 604.808,7.811, 602.498,5.501z M 586.686,25.947l-2.597,0.56c-0.251-0.469-0.554-0.938-1.106-1.491 c-0.552-0.552-1.022-0.853-1.491-1.104l 0.562-2.598l 0.75-0.75c0.00,0.00, 1.414,0.029, 3.01,1.624c 1.597,1.597, 1.626,3.011, 1.626,3.011 L 586.686,25.947zM 670.40,26.88c0.00,0.00-3.20-15.573-17.24-15.573L 653.16,5.12 L 641.60,15.448l 11.56,10.706l0.00-6.973 C 660.781,19.181, 666.427,19.856, 670.40,26.88zM 722.84,19.181l0.00,6.971 L 734.40,15.448L 722.84,5.12l0.00,6.186 C 708.80,11.306, 705.60,26.88, 705.60,26.88C 709.573,19.856, 715.219,19.181, 722.84,19.181zM 791.712,23.117c-3.944-1.437-5.205-2.65-5.205-5.246c0.00-1.558, 1.205-1.05, 1.733-3.904c 0.219-1.184, 1.283-0.019, 1.488-2.722 c0.00-1.077-0.581-1.346-0.581-1.346s 0.296-1.595, 0.411-2.821C 789.699,5.549, 788.675,1.60, 783.20,1.60C 777.726,1.60, 776.699,5.549, 776.843,7.078 C 776.958,8.304, 777.254,9.899, 777.254,9.899S 776.672,10.166, 776.672,11.245c 0.203,2.702, 1.267,1.538, 1.486,2.722 c 0.53,2.854, 1.734,2.346, 1.734,3.904c0.00,2.597-1.261,3.81-5.205,5.246c-3.958,1.44-6.528,2.91-6.528,3.914c0.00,1.002,0.00,3.368,0.00,3.368 l 15.04,0.00 l 15.04,0.00 c0.00,0.00,0.00-2.366,0.00-3.368C 798.24,26.029, 795.669,24.558, 791.712,23.117zM 851.803,23.117C 847.818,21.68, 846.544,20.467, 846.544,17.87c0.00-1.558, 1.218-1.05, 1.752-3.904c 0.222-1.184, 1.298-0.019, 1.501-2.722 c0.00-1.077-0.586-1.346-0.586-1.346s 0.299-1.595, 0.414-2.821C 849.77,5.549, 848.733,1.60, 843.20,1.60S 836.63,5.549, 836.774,7.078 c 0.117,1.227, 0.416,2.821, 0.416,2.821S 836.603,10.166, 836.603,11.245c 0.206,2.702, 1.282,1.538, 1.501,2.722 c 0.536,2.854, 1.754,2.346, 1.754,3.904c0.00,2.597-1.275,3.81-5.261,5.246c-0.48,0.171-1.624,0.44-2.597,0.861L 832.00,30.40 l 25.60,0.00 c0.00,0.00,0.00-2.366,0.00-3.368S 855.803,24.558, 851.803,23.117z M 859.20,14.40L 859.20,9.60 l-3.20,0.00 l0.00,4.80 l-4.80,0.00 l0.00,3.20 l 4.80,0.00 l0.00,4.80 l 3.20,0.00 l0.00-4.80 l 4.80,0.00 L 864.00,14.40 L 859.20,14.40 zM 924.80,3.20L 899.20,3.20 C 897.44,3.20, 896.00,4.64, 896.00,6.40l0.00,19.20 c0.00,1.76, 1.44,3.20, 3.20,3.20l 25.60,0.00 c 1.762,0.00, 3.20-1.44, 3.20-3.20L 928.00,6.40 C 928.00,4.64, 926.562,3.20, 924.80,3.20z M 924.80,25.60L 899.20,25.60 L 899.20,6.40 l 25.60,0.00 L 924.80,25.60 z M 910.40,19.36L 902.40,19.36 L 902.40,22.24 l 8.00,0.00 L 910.40,19.36 z M 910.40,14.56L 902.40,14.56 l0.00,2.88 l 8.00,0.00 L 910.40,14.56 z M 910.40,9.76L 902.40,9.76 l0.00,2.88 l 8.00,0.00 L 910.40,9.76 z M 921.44,20.00c0.00,0.00-2.72-0.71-2.72-2.109c0.00-1.331, 1.762-1.891, 1.762-4.611 c0.00-2.208-0.672-3.52-2.882-3.52s-2.88,1.31-2.88,3.52c0.00,2.72, 1.76,3.28, 1.76,4.611c0.00,1.398-2.718,2.109-2.718,2.109C 913.60,20.00, 913.60,22.24, 913.60,22.24 l 8.00,0.00 C 921.60,22.24, 921.60,20.00, 921.44,20.00zM 976.00,3.20C 971.581,3.20, 968.00,6.782, 968.00,11.20c0.00,7.638, 8.00,17.60, 8.00,17.60s 8.00-9.962, 8.00-17.60C 984.00,6.782, 980.419,3.20, 976.00,3.20z M 976.00,15.616c-2.386,0.00-4.32-1.934-4.32-4.32 s 1.934-4.32, 4.32-4.32s 4.32,1.934, 4.32,4.32S 978.386,15.616, 976.00,15.616zM 31.493,72.038l-7.478-4.683c-0.331-0.208-0.746-0.208-1.077,0.00L 16.00,71.701L 9.062,67.357c-0.331-0.208-0.746-0.208-1.077,0.00 L 0.507,72.038C 0.194,72.235,0.00,72.592,0.00,72.974l0.00,18.731 c0.00,0.394, 0.202,0.758, 0.531,0.952s 0.731,0.189, 1.054-0.014l 6.938-4.346l 6.938,4.346 c 0.331,0.208, 0.746,0.208, 1.078,0.00l 6.938-4.346l 6.938,4.346C 30.579,92.747, 30.766,92.80, 30.954,92.80c 0.178,0.00, 0.355-0.048, 0.515-0.142 C 31.797,92.464, 32.00,92.099, 32.00,91.706L 32.00,72.974 C 32.00,72.592, 31.806,72.235, 31.493,72.038z M 7.477,86.405L 2.093,89.776L 2.093,73.594 l 5.384-3.371L 7.477,86.405 z M 14.954,89.776l-5.384-3.371L 9.57,70.222 l 5.384,3.371L 14.954,89.776 z M 22.43,86.405l-5.382,3.371L 17.048,73.594 l 5.382-3.371L 22.43,86.405 z M 29.906,89.776 l-5.382-3.371L 24.523,70.222 l 5.382,3.371L 29.906,89.776 zM 88.00,84.80c-1.101,0.00-2.109,0.373-2.918,0.995l-8.35-5.01C 76.771,80.53, 76.80,80.267, 76.80,80.00c0.00-0.269-0.029-0.53-0.069-0.786 l 8.35-5.01C 85.891,74.827, 86.899,75.20, 88.00,75.20c 2.65,0.00, 4.80-2.149, 4.80-4.80s-2.15-4.80-4.80-4.80s-4.80,2.149-4.80,4.80c0.00,0.267, 0.029,0.53, 0.07,0.786 L 74.92,76.197C 74.11,75.573, 73.101,75.20, 72.00,75.20c-2.651,0.00-4.80,2.149-4.80,4.80c0.00,2.65, 2.149,4.80, 4.80,4.80c 1.101,0.00, 2.11-0.373, 2.92-0.995l 8.35,5.01 C 83.229,89.07, 83.20,89.331, 83.20,89.60c0.00,2.65, 2.15,4.80, 4.80,4.80s 4.80-2.15, 4.80-4.80S 90.65,84.80, 88.00,84.80zM 137.28,83.52L 137.28,73.60 L 131.20,73.60 C 129.44,73.60, 128.00,75.04, 128.00,76.80l0.00,9.60 c0.00,1.76, 1.44,3.20, 3.20,3.20l 1.60,0.00 l0.00,4.80 l 4.80-4.80l 8.00,0.00 c 1.76,0.00, 3.20-1.44, 3.20-3.20l0.00-2.912 c-0.102,0.022-0.211,0.034-0.32,0.034L 137.28,83.522 z M 156.80,65.60L 142.40,65.60 C 140.64,65.60, 139.20,67.04, 139.20,68.80l0.00,12.80 l 11.20,0.00 l 4.80,4.80l0.00-4.80 l 1.60,0.00 c 1.76,0.00, 3.20-1.44, 3.20-3.20L 160.00,68.80 C 160.00,67.04, 158.56,65.60, 156.80,65.60zM 217.60,68.80L 198.40,68.80 C 196.64,68.80, 195.20,70.24, 195.20,72.00l0.00,11.20 c0.00,1.76, 1.44,3.20, 3.20,3.20l 6.40,0.00 l 6.40,4.80l0.00-4.80 l 6.40,0.00 c 1.76,0.00, 3.20-1.44, 3.20-3.20L 220.80,72.00 C 220.80,70.24, 219.36,68.80, 217.60,68.80zM 286.032,80.48l-12.838-12.85c-0.656-0.682-1.73-0.682-2.386,0.00L 257.968,80.48c-0.658,0.68-0.413,1.238, 0.544,1.238l 2.677,0.00 l0.00,9.869 c0.00,0.712, 0.03,1.294, 1.318,1.294l 6.232,0.00 l0.00-9.901 l 6.52,0.00 l0.00,9.901 l 6.542,0.00 c 0.982,0.00, 1.01-0.581, 1.01-1.294l0.00-9.869 l 2.675,0.00 C 286.442,81.718, 286.688,81.162, 286.032,80.48zM 348.072,88.749l-6.046-6.046c 0.912-1.499, 1.437-3.256, 1.437-5.139c0.00-5.466-4.738-10.203-10.205-10.203 C 327.792,67.36, 323.36,71.792, 323.36,77.258c0.00,5.467, 4.736,10.205, 10.203,10.205c 1.818,0.00, 3.52-0.493, 4.984-1.349l 6.078,6.08 c 0.597,0.595, 1.56,0.595, 2.154,0.00l 1.509-1.507C 348.882,90.091, 348.666,89.342, 348.072,88.749z M 326.406,77.258 c0.00-3.784, 3.067-6.853, 6.851-6.853c 3.786,0.00, 7.158,3.373, 7.158,7.158s-3.067,6.853-6.853,6.853S 326.406,81.043, 326.406,77.258zM 410.856,80.00c0.00-1.677, 1.032-3.00, 2.584-3.909c-0.282-0.934-0.65-1.832-1.106-2.675c-1.744,0.456-3.154-0.227-4.338-1.411 c-1.187-1.186-1.55-2.597-1.094-4.338c-0.843-0.456-1.738-0.829-2.675-1.107C 403.318,68.114, 401.675,69.146, 400.00,69.146 c-1.675,0.00-3.317-1.032-4.227-2.586C 394.835,66.838, 393.941,67.211, 393.098,67.666C 393.552,69.408, 393.19,70.819, 392.005,72.005 C 390.819,73.189, 389.408,73.872, 387.667,73.418C 387.211,74.259, 386.84,75.157, 386.56,76.091C 388.114,77.00, 389.146,78.323, 389.146,80.00 c0.00,1.675-1.032,3.318-2.586,4.229c 0.28,0.936, 0.651,1.832, 1.107,2.675c 1.742-0.456, 3.152-0.093, 4.338,1.093 c 1.186,1.186, 1.547,2.595, 1.093,4.338c 0.843,0.456, 1.739,0.829, 2.675,1.107c 0.91-1.555, 2.552-2.586, 4.227-2.586 c 1.675,0.00, 3.32,1.032, 4.229,2.586c 0.938-0.28, 1.832-0.651, 2.675-1.107c-0.456-1.742-0.094-3.152, 1.094-4.338 c 1.184-1.184, 2.594-1.867, 4.338-1.413c 0.456-0.843, 0.826-1.739, 1.106-2.675C 411.888,82.998, 410.856,81.675, 410.856,80.00z M 400.00,85.845 c-3.227,0.00-5.843-2.618-5.843-5.845S 396.773,74.155, 400.00,74.155c 3.229,0.00, 5.845,2.618, 5.845,5.845S 403.229,85.845, 400.00,85.845zM 464.00,76.80c-2.65,0.00-4.80,2.15-4.80,4.80c0.00,2.651, 2.15,4.80, 4.80,4.80c 2.651,0.00, 4.80-2.149, 4.80-4.80C 468.80,78.95, 466.651,76.80, 464.00,76.80z M 476.80,72.00l-3.838,0.00 c-0.528,0.00-1.098-0.41-1.264-0.91l-0.992-2.978C 470.536,67.61, 469.968,67.20, 469.44,67.20L 458.56,67.20 C 458.032,67.20, 457.462,67.61, 457.298,68.11L 456.302,71.09 C 456.136,71.59, 455.568,72.00, 455.04,72.00L 451.20,72.00 C 449.44,72.00, 448.00,73.44, 448.00,75.20l0.00,14.40 c0.00,1.76, 1.44,3.20, 3.20,3.20l 25.60,0.00 c 1.762,0.00, 3.20-1.44, 3.20-3.20L 480.00,75.20 C 480.00,73.44, 478.562,72.00, 476.80,72.00z M 464.00,89.60 c-4.419,0.00-8.00-3.581-8.00-8.00c0.00-4.418, 3.581-8.00, 8.00-8.00c 4.418,0.00, 8.00,3.582, 8.00,8.00C 472.00,86.019, 468.418,89.60, 464.00,89.60z M 475.68,77.437 c-0.618,0.00-1.118-0.501-1.118-1.12s 0.501-1.12, 1.118-1.12c 0.619,0.00, 1.12,0.501, 1.12,1.12S 476.299,77.437, 475.68,77.437zM 528.00,71.04C 517.502,71.04, 512.00,78.773, 512.00,80.00s 5.502,8.96, 16.00,8.96s 16.00-7.733, 16.00-8.96S 538.498,71.04, 528.00,71.04z M 528.00,86.893 c-3.926,0.00-7.11-3.086-7.11-6.893S 524.074,73.107, 528.00,73.107c 3.928,0.00, 7.112,3.086, 7.112,6.893S 531.928,86.893, 528.00,86.893z M 528.00,80.00 c-0.65-0.714, 1.062-3.445,0.00-3.445c-1.963,0.00-3.555,1.542-3.555,3.445S 526.037,83.446, 528.00,83.446c 1.965,0.00, 3.557-1.544, 3.557-3.446 C 531.557,79.126, 528.555,80.608, 528.00,80.00zM 592.00,65.28c-8.13,0.00-14.72,6.592-14.72,14.72c0.00,8.13, 6.59,14.72, 14.72,14.72s 14.72-6.59, 14.72-14.72C 606.72,71.87, 600.13,65.28, 592.00,65.28z M 592.00,91.52 c-6.363,0.00-11.52-5.158-11.52-11.52S 585.637,68.48, 592.00,68.48s 11.52,5.158, 11.52,11.52S 598.363,91.52, 592.00,91.52zM 593.12,71.68L 590.88,71.68L 590.88,80.464L 596.328,85.912L 597.912,84.328L 593.12,79.536 zM 667.20,68.80l-1.44,0.00 l0.00,3.20 L 660.64,72.00 L 660.64,68.80 L 651.36,68.80 l0.00,3.20 L 646.24,72.00 L 646.24,68.80 L 644.80,68.80 C 643.04,68.80, 641.60,70.24, 641.60,72.00l0.00,19.20 c0.00,1.76, 1.44,3.20, 3.20,3.20l 22.40,0.00 c 1.76,0.00, 3.20-1.44, 3.20-3.20L 670.40,72.00 C 670.40,70.24, 668.96,68.80, 667.20,68.80z M 667.20,91.20L 644.80,91.20 L 644.80,78.40 l 22.40,0.00 L 667.20,91.20 z M 649.92,65.60L 647.68,65.60 l0.00,5.44 l 2.24,0.00 L 649.92,65.60 z M 664.32,65.60l-2.24,0.00 l0.00,5.44 l 2.24,0.00 L 664.32,65.60 zM 729.282,76.803L 726.40,76.803 l0.00-2.24 c0.00-4.635-2.134-7.36-6.40-7.36c-4.264,0.00-6.40,2.725-6.40,7.36l0.00,2.24 L 710.40,76.803 c-0.883,0.00-1.60,1.035-1.60,1.92l0.00,12.48 c0.00,0.88, 0.686,1.822, 1.523,2.091l 1.914,0.619c 0.837,0.27, 2.242,0.491, 3.123,0.491l 9.28,0.00 c 0.88,0.00, 2.286-0.221, 3.123-0.491l 1.914-0.619 C 730.515,93.026, 731.20,92.083, 731.20,91.203l0.00-12.48 C 731.20,77.838, 730.165,76.803, 729.282,76.803z M 716.80,73.923c0.00-2.312, 1.277-3.52, 3.20-3.52 c 1.925,0.00, 3.20,1.208, 3.20,3.52l0.00,2.88 L 716.80,76.803 L 716.80,73.923 zM 785.634,91.20L 772.768,91.20 L 772.768,68.80 l 12.864,0.00 l0.00,4.80 L 788.80,73.60 L 788.80,68.80 c0.00-1.76-1.438-3.20-3.20-3.20L 772.80,65.60 C 771.04,65.60, 769.60,67.04, 769.60,68.80l0.00,22.40 c0.00,1.76, 1.44,3.20, 3.20,3.20l 12.80,0.00 c 1.762,0.00, 3.20-1.44, 3.20-3.20l0.00-3.20 l-3.166,0.00 L 785.634,91.20 z M 798.40,80.80l-6.366-6.24L 792.034,78.40 l-14.40,0.00 l0.00,4.80 l 14.40,0.00 l0.00,3.84 L 798.40,80.80zM 859.20,65.60L 844.80,65.60 C 843.04,65.60, 841.632,67.04, 841.632,68.80l0.00,4.80 L 844.80,73.60 L 844.80,68.80 l 14.40,0.00 l0.00,22.40 L 844.80,91.20 l0.00-3.20 L 841.632,88.00 l0.00,3.20 c0.00,1.76, 1.408,3.20, 3.168,3.20l 14.40,0.00 c 1.76,0.00, 3.20-1.44, 3.20-3.20L 862.40,68.80 C 862.40,67.04, 860.96,65.60, 859.20,65.60z M 848.00,87.04l 6.40-6.24l-6.40-6.24L 848.00,78.40 L 833.60,78.40 l0.00,4.80 l 14.40,0.00 L 848.00,87.04 zM 909.272,91.20c-0.696,0.00-1.355-0.325-1.778-0.885L 901.776,82.766c-0.744-0.982-0.55-2.381, 0.432-3.125 c 0.984-0.746, 2.381-0.55, 3.125,0.432l 3.762,4.966l 9.459-15.186c 0.651-1.045, 2.027-1.365, 3.074-0.714 c 1.045,0.65, 1.365,2.027, 0.712,3.072L 911.166,90.149c-0.389,0.626-1.059,1.018-1.794,1.05C 909.339,91.20, 909.306,91.20, 909.272,91.20zM 982.958,85.043L 978.546,80.00l 4.413-5.043c 0.75-0.75, 0.75-1.966,0.00-2.715c-0.75-0.749-1.966-0.749-2.715,0.00L 976.00,77.091 l-4.242-4.848c-0.75-0.75-1.966-0.75-2.715,0.00c-0.749,0.75-0.749,1.966,0.00,2.715L 973.454,80.00l-4.413,5.043 c-0.749,0.75-0.749,1.963,0.00,2.712c 0.75,0.75, 1.966,0.75, 2.715,0.00L 976.00,82.909l 4.242,4.846c 0.75,0.75, 1.966,0.75, 2.715,0.00 S 983.707,85.794, 982.958,85.043zM 16.00,128.64c-8.483,0.00-15.36,6.877-15.36,15.36s 6.877,15.36, 15.36,15.36c 8.485,0.00, 15.36-6.877, 15.36-15.36S 24.485,128.64, 16.00,128.64z M 24.266,135.738 l-0.003-0.003C 24.262,135.736, 24.266,135.738, 24.266,135.738z M 4.314,144.00c0.00-6.454, 5.232-11.686, 11.686-11.686c 2.806,0.00, 5.382,0.989, 7.398,2.637 L 6.952,151.395C 5.302,149.381, 4.314,146.806, 4.314,144.00z M 7.734,152.262l 0.003,0.003C 7.736,152.264, 7.736,152.264, 7.734,152.262z M 16.00,155.688 c-2.806,0.00-5.381-0.99-7.395-2.638L 25.046,136.605c 1.65,2.014, 2.64,4.589, 2.64,7.395C 27.688,150.454, 22.453,155.688, 16.00,155.688zM 79.803,129.282c-8.128,0.109-14.63,6.787-14.522,14.917c 0.109,8.125, 6.787,14.629, 14.915,14.52 c 8.128-0.109, 14.63-6.787, 14.522-14.917C 94.611,135.675, 87.931,129.173, 79.803,129.282z M 81.435,134.187c 1.496,0.00, 1.938,0.867, 1.938,1.861 c0.00,1.24-0.994,2.387-2.688,2.387c-1.418,0.00-2.091-0.714-2.051-1.891C 78.634,135.55, 79.466,134.187, 81.435,134.187z M 77.598,153.20 c-1.022,0.00-1.771-0.621-1.056-3.35l 1.173-4.838c 0.203-0.776, 0.237-1.086,0.00-1.086c-0.306,0.00-1.634,0.536-2.419,1.064l-0.51-0.837 c 2.488-2.077, 5.349-3.296, 6.574-3.296c 1.022,0.00, 1.192,1.21, 0.682,3.07l-1.344,5.088c-0.237,0.899-0.134,1.21, 0.102,1.21 c 0.306,0.00, 1.312-0.371, 2.301-1.149l 0.578,0.776C 81.261,152.269, 78.622,153.20, 77.598,153.20zM 143.805,129.282c-8.13,0.109-14.632,6.787-14.523,14.917c 0.109,8.125, 6.787,14.629, 14.917,14.52 c 8.126-0.109, 14.63-6.787, 14.52-14.917C 158.611,135.675, 151.933,129.173, 143.805,129.282z M 143.762,152.96L 143.68,152.96 c-1.251-0.037-2.134-0.96-2.099-2.194 c 0.035-1.211, 0.939-2.093, 2.15-2.093l 0.074,0.002c 1.286,0.038, 2.16,0.952, 2.122,2.221C 145.891,152.11, 145.00,152.96, 143.762,152.96z M 149.027,142.509c-0.296,0.418-0.942,0.938-1.758,1.573l-0.899,0.621c-0.493,0.384-0.79,0.744-0.901,1.098 c-0.09,0.282-0.131,0.354-0.139,0.922l-0.002,0.146L 141.899,146.867 l 0.01-0.291c 0.042-1.194, 0.072-1.894, 0.566-2.475 c 0.776-0.91, 2.488-2.013, 2.56-2.059c 0.245-0.186, 0.451-0.395, 0.606-0.619c 0.36-0.496, 0.518-0.888, 0.518-1.27 c0.00-0.533-0.158-1.026-0.47-1.464c-0.301-0.424-0.872-0.638-1.698-0.638c-0.819,0.00-1.379,0.261-1.715,0.794 C 141.93,139.392, 141.757,139.966, 141.757,140.555l0.00,0.147 l-3.536,0.00 l 0.006-0.154c 0.091-2.166, 0.864-3.725, 2.298-4.635C 141.424,135.333, 142.544,135.04, 143.85,135.04 c 1.71,0.00, 3.157,0.416, 4.293,1.235c 1.152,0.83, 1.736,2.075, 1.736,3.698C 149.878,140.882, 149.592,141.734, 149.027,142.509zM 223.219,156.771L 208.966,131.762C 208.77,131.416, 208.40,131.203, 208.00,131.203c-0.40,0.00-0.768,0.213-0.966,0.558L 192.782,156.771 c-0.194,0.339-0.19,0.754, 0.008,1.09s 0.563,0.542, 0.957,0.542l 28.504,0.00 c 0.39,0.00, 0.757-0.206, 0.957-0.542 C 223.406,157.525, 223.41,157.11, 223.219,156.771z M 209.76,155.203L 206.24,155.203 l0.00-3.20 l 3.52,0.00 L 209.76,155.203 z M 209.76,149.603L 206.24,149.603 l0.00-9.60 l 3.52,0.00 L 209.76,149.603 zM 267.20,142.40L 257.60,142.40 c-0.883,0.00-1.60,0.717-1.60,1.60s 0.717,1.60, 1.60,1.60l 9.60,0.00 c 0.883,0.00, 1.60-0.717, 1.60-1.60S 268.083,142.40, 267.20,142.40z M 267.20,148.80L 257.60,148.80 c-0.883,0.00-1.60,0.715-1.60,1.60s 0.717,1.60, 1.60,1.60l 9.60,0.00 c 0.883,0.00, 1.60-0.715, 1.60-1.60S 268.083,148.80, 267.20,148.80z M 287.04,142.40L 281.60,142.40 L 281.60,136.96 C 281.60,136.077, 280.885,136.00, 280.00,136.00s-1.60,0.077-1.60,0.96L 278.40,142.40 l-5.28,0.00 C 272.235,142.40, 272.16,143.117, 272.16,144.00 s 0.077,1.60, 0.962,1.60L 278.40,145.60 l0.00,5.44 c0.00,0.883, 0.715,0.96, 1.60,0.96s 1.60-0.077, 1.60-0.96L 281.60,145.60 l 5.44,0.00 c 0.883,0.00, 0.96-0.717, 0.96-1.60S 287.923,142.40, 287.04,142.40z M 267.20,136.00L 257.60,136.00 C 256.717,136.00, 256.00,136.717, 256.00,137.60s 0.717,1.60, 1.60,1.60l 9.60,0.00 c 0.883,0.00, 1.60-0.717, 1.60-1.60S 268.083,136.00, 267.20,136.00zM 345.60,142.40L 326.40,142.40 c-0.883,0.00-1.60,0.717-1.60,1.60s 0.717,1.60, 1.60,1.60l 19.20,0.00 c 0.885,0.00, 1.60-0.717, 1.60-1.60S 346.485,142.40, 345.60,142.40z M 326.40,139.20l 19.20,0.00 c 0.885,0.00, 1.60-0.717, 1.60-1.60 s-0.715-1.60-1.60-1.60L 326.40,136.00 C 325.517,136.00, 324.80,136.717, 324.80,137.60S 325.517,139.20, 326.40,139.20z M 345.60,148.80L 326.40,148.80 c-0.883,0.00-1.60,0.715-1.60,1.60s 0.717,1.60, 1.60,1.60l 19.20,0.00 c 0.885,0.00, 1.60-0.715, 1.60-1.60 S 346.485,148.80, 345.60,148.80zM 395.557,145.392l 8.96,0.00 l0.00-2.88 l-8.96,0.00 L 395.557,145.392 z M 408.00,129.60L 392.00,129.60 C 390.24,129.60, 388.80,131.04, 388.80,132.80l0.00,22.40 c0.00,1.76, 1.44,3.20, 3.20,3.20l 16.00,0.00 c 1.76,0.00, 3.20-1.44, 3.20-3.20L 411.20,132.80 C 411.20,131.04, 409.76,129.60, 408.00,129.60z M 408.00,155.20L 392.00,155.20 L 392.00,132.80 l 16.00,0.00 L 408.00,155.20 z M 404.48,136.27L 395.52,136.27 l0.00,2.80 l 8.96,0.00 L 404.48,136.27 z M 404.48,148.832L 395.52,148.832 l0.00,2.80 l 8.96,0.00 L 404.48,148.832 zM 475.40,139.477l-3.274-9.018c-0.242-0.666-0.952-1.018-1.582-0.787L 448.789,137.613C 448.157,137.842 447.838,138.568, 448.08,139.234 l 3.451,9.507L 451.531,143.645 c0.00-2.299, 1.837-4.168, 4.098-4.168l 5.749,0.00 l 6.856-4.813l 3.968,4.813L 475.40,139.477 z M 478.781,142.363L 455.629,142.363 c-0.672,0.00-1.219,0.574-1.219,1.283l0.00,15.074 c0.00,0.707, 0.546,1.283, 1.219,1.283l 23.152,0.00 c 0.674,0.00, 1.219-0.574, 1.219-1.283L 480.00,143.645 C 480.00,142.938, 479.454,142.363, 478.781,142.363z M 477.014,156.795L 457.822,156.795 l0.00-2.75 l 2.952-6.872l 4.43,5.499l 4.155-4.259l 5.342-1.928l 2.312,5.155 L 477.014,156.795 zM 517.422,140.659l 1.763,15.534C 519.28,156.931, 522.842,159.357, 528.00,159.36c 5.158-0.003, 8.722-2.429, 8.816-3.166l 1.763-15.534 C 535.885,142.166, 531.858,142.88, 528.00,142.88S 520.115,142.166, 517.422,140.659z M 533.067,131.059l-1.374-1.525C 531.163,128.781, 530.587,128.64, 529.466,128.64L 526.534,128.64 c-1.12,0.00-1.696,0.141-2.227,0.894L 522.934,131.059C 518.822,131.778, 515.84,133.683, 515.84,135.088l0.00,0.274 c0.00,2.474, 5.443,4.48, 12.16,4.48s 12.16-2.006, 12.16-4.48 L 540.16,135.088 C 540.16,133.683, 537.179,131.778, 533.067,131.059z M 531.31,134.622L 529.307,132.48L 526.693,132.48 L 524.69,134.622L 521.97,134.622 c0.00,0.00, 2.979-3.552, 3.378-4.034 C 525.651,130.221, 525.963,130.08, 526.366,130.08l 3.269,0.00 c 0.403,0.00, 0.714,0.141, 1.019,0.509c 0.397,0.482, 3.378,4.034, 3.378,4.034L 531.31,134.622 zM 600.275,131.20L 582.40,131.20 C 580.64,131.20, 579.20,132.64, 579.20,134.40l0.00,19.20 c0.00,1.76, 1.44,3.20, 3.20,3.20l 19.20,0.00 c 1.76,0.00, 3.20-1.44, 3.20-3.20L 604.80,136.203 L 600.275,131.20z M 598.40,140.80c0.00,0.88-0.72,1.60-1.60,1.60L 587.20,142.40 C 586.32,142.40, 585.60,141.68, 585.60,140.80L 585.60,132.80 l 12.80,0.00 L 598.40,140.80 z M 596.80,134.40l-3.20,0.00 l0.00,6.40 l 3.20,0.00 L 596.80,134.40 zM 658.299,135.226c-0.669,0.653-7.203,7.514-7.203,7.514C 650.739,143.088, 650.562,143.544, 650.562,144.00s 0.178,0.912, 0.534,1.261 c0.00,0.00, 6.534,6.861, 7.203,7.512c 0.669,0.653, 1.872,0.698, 2.586,0.00c 0.712-0.696, 0.768-1.667-0.002-2.52L 654.888,144.00l 5.995-6.253 c 0.77-0.854, 0.714-1.826, 0.002-2.522C 660.17,134.53, 658.966,134.573, 658.299,135.226zM 728.773,141.701c-0.651,0.669-7.512,7.205-7.512,7.205C 720.912,149.262, 720.456,149.44, 720.00,149.44c-0.458,0.00-0.914-0.178-1.261-0.534 c0.00,0.00-6.861-6.536-7.514-7.205c-0.651-0.669-0.696-1.87,0.00-2.586c 0.698-0.714, 1.669-0.77, 2.522,0.00L 720.00,145.112l 6.251-5.995 c 0.854-0.77, 1.827-0.714, 2.522,0.00C 729.47,139.83, 729.427,141.034, 728.773,141.701zM 792.773,146.299c-0.651-0.669-7.512-7.203-7.512-7.203C 784.912,138.739, 784.456,138.56, 784.00,138.56c-0.458,0.00-0.914,0.179-1.261,0.536 c0.00,0.00-6.861,6.534-7.514,7.203c-0.651,0.669-0.696,1.872,0.00,2.586c 0.698,0.712, 1.669,0.77, 2.522,0.00L 784.00,142.89l 6.251,5.995 c 0.854,0.77, 1.827,0.712, 2.522,0.00C 793.47,148.17, 793.427,146.966, 792.773,146.299zM 845.701,135.226c 0.669,0.653, 7.203,7.514, 7.203,7.514C 853.262,143.088, 853.44,143.544, 853.44,144.00s-0.178,0.912-0.536,1.261 c0.00,0.00-6.534,6.861-7.203,7.512c-0.669,0.653-1.87,0.698-2.586,0.00c-0.714-0.696-0.77-1.667,0.00-2.52L 849.112,144.00L 843.117,137.747 c-0.77-0.854-0.714-1.826,0.00-2.522C 843.83,134.53, 845.034,134.573, 845.701,135.226zM 912.00,140.48c-1.944,0.00-3.52,1.576-3.52,3.52s 1.576,3.52, 3.52,3.52s 3.52-1.576, 3.52-3.52S 913.944,140.48, 912.00,140.48zM 990.72,134.869c-1.085,0.482-2.248,0.805-3.47,0.952c 1.248-0.747, 2.206-1.931, 2.656-3.341c-1.166,0.691-2.459,1.195-3.834,1.466 c-1.102-1.174-2.672-1.907-4.41-1.907c-3.336,0.00-6.04,2.704-6.04,6.038c0.00,0.474, 0.053,0.934, 0.157,1.376 c-5.019-0.251-9.47-2.656-12.448-6.31C 962.81,134.034, 962.51,135.072, 962.51,136.179c0.00,2.096, 1.067,3.944, 2.688,5.027 c-0.99-0.032-1.922-0.302-2.736-0.755c0.00,0.026,0.00,0.05,0.00,0.075c0.00,2.926, 2.083,5.366, 4.845,5.923c-0.506,0.138-1.04,0.211-1.592,0.211 c-0.389,0.00-0.766-0.037-1.136-0.107c 0.768,2.40, 3.00,4.146, 5.642,4.194c-2.067,1.621-4.67,2.586-7.501,2.586 c-0.488,0.00-0.968-0.029-1.44-0.085c 2.672,1.714, 5.846,2.714, 9.259,2.714c 11.109,0.00, 17.184-9.203, 17.184-17.186 c0.00-0.261-0.005-0.522-0.018-0.781C 988.886,137.144, 989.909,136.08, 990.72,134.869zM 26.32,194.24L 5.68,194.24 C 3.789,194.24, 2.24,195.789, 2.24,197.68l0.00,20.64 c0.00,1.893, 1.549,3.438, 3.438,3.438l 10.438,0.00 l0.00-9.867 l-3.296,0.00 L 12.821,207.594 l 3.296,0.00 L 16.117,205.44 c0.00-3.32, 2.451-5.92, 5.581-5.92l 3.037,0.00 l0.00,4.854 l-2.718,0.00 c-0.71,0.00-0.918,0.408-0.918,0.971l0.00,2.246 l 3.637,0.00 l0.00,4.299 l-3.637,0.00 L 21.098,221.76 l 5.221,0.00 c 1.893,0.00, 3.438-1.547, 3.438-3.438L 29.757,197.68 C 29.76,195.789, 28.213,194.24, 26.32,194.24zM 88.586,219.414L 93.172,224.00L 96.00,221.172L 91.414,216.586L 96.00,212.00L 84.00,212.00L 84.00,224.00 zM 64.00,204.00L 76.00,204.00L 76.00,192.00L 71.414,196.586L 66.875,192.043L 64.047,194.871L 68.586,199.414 zM 64.00,221.172L 66.828,224.00L 71.414,219.414L 76.00,224.00L 76.00,212.00L 64.00,212.00L 68.586,216.586 zM 84.00,204.00L 96.00,204.00L 91.414,199.414L 95.961,194.871L 93.133,192.043L 88.586,196.586L 84.00,192.00 z"></path></svg>