<?xml version="1.0" encoding="utf-8"?> <!-- Generator: IcoMoon.io --> <!DOCTYPE svg PUBLIC "-//W3C//DTD SVG 1.1//EN" "http://www.w3.org/Graphics/SVG/1.1/DTD/svg11.dtd"> <svg width="744" height="120" viewBox="0 0 744 120" fill="#000000" xmlns="http://www.w3.org/2000/svg" xmlns:xlink="http://www.w3.org/1999/xlink"><path d="M 12.00,2.625c-5.386,0.00-9.75,4.365-9.75,9.75s 4.364,9.75, 9.75,9.75c 5.384,0.00, 9.75-4.365, 9.75-9.75 S 17.385,2.625, 12.00,2.625z M 11.921,20.27c-4.349,0.00-7.875-3.526-7.875-7.875c0.00-4.349, 3.526-7.875, 7.875-7.875c 4.348,0.00, 7.875,3.526, 7.875,7.875 C 19.796,16.745, 16.27,20.27, 11.921,20.27z M 14.197,12.848l-2.235,0.00 l0.00-3.774 c0.00-0.41-0.332-0.742-0.742-0.742 c-0.41,0.00-0.742,0.332-0.742,0.742l0.00,4.516 c0.00,0.41, 0.332,0.742, 0.742,0.742l 2.977,0.00 c 0.41,0.00, 0.742-0.332, 0.742-0.742 C 14.94,13.181, 14.608,12.848, 14.197,12.848zM 49.913,6.343c 0.586,0.316, 8.699,4.673, 9.001,4.835C 59.215,11.34, 59.606,11.418, 60.00,11.418c 0.395,0.00, 0.786-0.078, 1.087-0.241 c 0.302-0.162, 8.414-4.519, 9.00-4.835C 70.674,6.028, 71.228,5.04, 70.152,5.04L 49.849,5.04 C 48.773,5.04, 49.326,6.028, 49.913,6.343z M 70.336,8.743 c-0.666,0.348-8.84,4.621-9.248,4.835S 60.395,13.819, 60.00,13.819c-0.394,0.00-0.678-0.028-1.086-0.241S 50.33,9.09, 49.666,8.743 C 49.196,8.498, 49.20,8.785, 49.20,9.006c0.00,0.221,0.00,8.802,0.00,8.802C 49.20,18.312, 49.871,18.96, 50.39,18.96l 19.22,0.00 c 0.521,0.00, 1.189-0.648, 1.189-1.151 c0.00,0.00,0.00-8.581,0.00-8.802C 70.80,8.785, 70.805,8.498, 70.336,8.743zM 115.873,4.126c-1.73-1.732-3.03-1.472-3.03-1.472L 106.78,8.717L 99.852,15.644L 98.64,21.36l 5.716-1.212l 6.928-6.928l 6.062-6.062 C 117.346,7.158, 117.606,5.858, 115.873,4.126z M 104.015,19.46l-1.948,0.42c-0.188-0.352-0.415-0.703-0.829-1.118 c-0.414-0.414-0.767-0.64-1.118-0.828l 0.421-1.949l 0.563-0.563c0.00,0.00, 1.061,0.022, 2.257,1.218c 1.198,1.198, 1.219,2.258, 1.219,2.258 L 104.015,19.46zM 166.80,20.16c0.00,0.00-2.40-11.68-12.93-11.68L 153.87,3.84 L 145.20,11.586l 8.67,8.029l0.00-5.23 C 159.586,14.386, 163.82,14.892, 166.80,20.16zM 206.13,14.386l0.00,5.228 L 214.80,11.586L 206.13,3.84l0.00,4.639 C 195.60,8.479, 193.20,20.16, 193.20,20.16C 196.18,14.892, 200.414,14.386, 206.13,14.386zM 257.784,17.338c-2.958-1.078-3.904-1.987-3.904-3.935c0.00-1.169, 0.904-0.787, 1.30-2.928c 0.164-0.888, 0.962-0.014, 1.116-2.041 c0.00-0.808-0.436-1.009-0.436-1.009s 0.222-1.196, 0.308-2.116C 256.274,4.162, 255.506,1.20, 251.40,1.20C 247.295,1.20, 246.524,4.162, 246.632,5.309 C 246.719,6.228, 246.941,7.424, 246.941,7.424S 246.504,7.625, 246.504,8.434c 0.152,2.027, 0.95,1.153, 1.115,2.041 c 0.397,2.141, 1.301,1.759, 1.301,2.928c0.00,1.948-0.946,2.857-3.904,3.935c-2.969,1.08-4.896,2.183-4.896,2.935c0.00,0.751,0.00,2.526,0.00,2.526 l 11.28,0.00 l 11.28,0.00 c0.00,0.00,0.00-1.775,0.00-2.526C 262.68,19.522, 260.752,18.419, 257.784,17.338zM 302.852,17.338C 299.863,16.26, 298.908,15.35, 298.908,13.403c0.00-1.169, 0.913-0.787, 1.314-2.928c 0.167-0.888, 0.973-0.014, 1.126-2.041 c0.00-0.808-0.439-1.009-0.439-1.009s 0.224-1.196, 0.311-2.116C 301.327,4.162, 300.55,1.20, 296.40,1.20S 291.473,4.162, 291.581,5.309 c 0.088,0.92, 0.312,2.116, 0.312,2.116S 291.452,7.625, 291.452,8.434c 0.155,2.027, 0.961,1.153, 1.126,2.041 c 0.402,2.141, 1.315,1.759, 1.315,2.928c0.00,1.948-0.956,2.857-3.946,3.935c-0.36,0.128-1.218,0.33-1.948,0.646L 288.00,22.80 l 19.20,0.00 c0.00,0.00,0.00-1.775,0.00-2.526S 305.852,18.419, 302.852,17.338z M 308.40,10.80L 308.40,7.20 l-2.40,0.00 l0.00,3.60 l-3.60,0.00 l0.00,2.40 l 3.60,0.00 l0.00,3.60 l 2.40,0.00 l0.00-3.60 l 3.60,0.00 L 312.00,10.80 L 308.40,10.80 zM 357.60,2.40L 338.40,2.40 C 337.08,2.40, 336.00,3.48, 336.00,4.80l0.00,14.40 c0.00,1.32, 1.08,2.40, 2.40,2.40l 19.20,0.00 c 1.321,0.00, 2.40-1.08, 2.40-2.40L 360.00,4.80 C 360.00,3.48, 358.921,2.40, 357.60,2.40z M 357.60,19.20L 338.40,19.20 L 338.40,4.80 l 19.20,0.00 L 357.60,19.20 z M 346.80,14.52L 340.80,14.52 L 340.80,16.68 l 6.00,0.00 L 346.80,14.52 z M 346.80,10.92L 340.80,10.92 l0.00,2.16 l 6.00,0.00 L 346.80,10.92 z M 346.80,7.32L 340.80,7.32 l0.00,2.16 l 6.00,0.00 L 346.80,7.32 z M 355.08,15.00c0.00,0.00-2.04-0.533-2.04-1.582c0.00-0.998, 1.321-1.418, 1.321-3.458 c0.00-1.656-0.504-2.64-2.161-2.64s-2.16,0.983-2.16,2.64c0.00,2.04, 1.32,2.46, 1.32,3.458c0.00,1.049-2.039,1.582-2.039,1.582C 349.20,15.00, 349.20,16.68, 349.20,16.68 l 6.00,0.00 C 355.20,16.68, 355.20,15.00, 355.08,15.00zM 396.00,2.40C 392.686,2.40, 390.00,5.087, 390.00,8.40c0.00,5.729, 6.00,13.20, 6.00,13.20s 6.00-7.471, 6.00-13.20C 402.00,5.087, 399.314,2.40, 396.00,2.40z M 396.00,11.712c-1.789,0.00-3.24-1.451-3.24-3.24 s 1.451-3.24, 3.24-3.24s 3.24,1.451, 3.24,3.24S 397.789,11.712, 396.00,11.712zM 455.62,6.029l-5.609-3.512c-0.248-0.156-0.559-0.156-0.808,0.00L 444.00,5.776L 438.797,2.518c-0.248-0.156-0.559-0.156-0.808,0.00 L 432.38,6.029C 432.145,6.176, 432.00,6.444, 432.00,6.731l0.00,14.048 c0.00,0.295, 0.151,0.569, 0.398,0.714s 0.548,0.142, 0.791-0.011l 5.203-3.259l 5.203,3.259 c 0.248,0.156, 0.559,0.156, 0.809,0.00l 5.203-3.259l 5.203,3.259C 454.934,21.56, 455.075,21.60, 455.215,21.60c 0.133,0.00, 0.266-0.036, 0.386-0.107 C 455.848,21.348, 456.00,21.074, 456.00,20.779L 456.00,6.731 C 456.00,6.444, 455.855,6.176, 455.62,6.029z M 437.608,16.804L 433.57,19.332L 433.57,7.195 l 4.038-2.528L 437.608,16.804 z M 443.215,19.332l-4.038-2.528L 439.177,4.667 l 4.038,2.528L 443.215,19.332 z M 448.823,16.804l-4.037,2.528L 444.786,7.195 l 4.037-2.528L 448.823,16.804 z M 454.429,19.332 l-4.037-2.528L 450.392,4.667 l 4.037,2.528L 454.429,19.332 zM 486.96,14.64L 486.96,7.20 L 482.40,7.20 C 481.08,7.20, 480.00,8.28, 480.00,9.60l0.00,7.20 c0.00,1.32, 1.08,2.40, 2.40,2.40l 1.20,0.00 l0.00,3.60 l 3.60-3.60l 6.00,0.00 c 1.32,0.00, 2.40-1.08, 2.40-2.40l0.00-2.184 c-0.077,0.017-0.158,0.025-0.24,0.025L 486.96,14.641 z M 501.60,1.20L 490.80,1.20 C 489.48,1.20, 488.40,2.28, 488.40,3.60l0.00,9.60 l 8.40,0.00 l 3.60,3.60l0.00-3.60 l 1.20,0.00 c 1.32,0.00, 2.40-1.08, 2.40-2.40L 504.00,3.60 C 504.00,2.28, 502.92,1.20, 501.60,1.20zM 547.20,3.60L 532.80,3.60 C 531.48,3.60, 530.40,4.68, 530.40,6.00l0.00,8.40 c0.00,1.32, 1.08,2.40, 2.40,2.40l 4.80,0.00 l 4.80,3.60l0.00-3.60 l 4.80,0.00 c 1.32,0.00, 2.40-1.08, 2.40-2.40L 549.60,6.00 C 549.60,4.68, 548.52,3.60, 547.20,3.60zM 598.524,12.36l-9.629-9.637c-0.492-0.511-1.297-0.511-1.789,0.00L 577.476,12.36c-0.493,0.51-0.31,0.929, 0.408,0.929l 2.008,0.00 l0.00,7.402 c0.00,0.534, 0.023,0.971, 0.989,0.971l 4.674,0.00 l0.00-7.426 l 4.89,0.00 l0.00,7.426 l 4.907,0.00 c 0.737,0.00, 0.757-0.436, 0.757-0.971l0.00-7.402 l 2.006,0.00 C 598.831,13.289, 599.016,12.871, 598.524,12.36zM 645.054,18.562l-4.535-4.535c 0.684-1.124, 1.078-2.442, 1.078-3.854c0.00-4.099-3.553-7.652-7.654-7.652 C 629.844,2.52, 626.52,5.844, 626.52,9.943c0.00,4.10, 3.552,7.654, 7.652,7.654c 1.363,0.00, 2.64-0.37, 3.738-1.012l 4.559,4.56 c 0.448,0.446, 1.17,0.446, 1.615,0.00l 1.132-1.13C 645.661,19.568, 645.499,19.007, 645.054,18.562z M 628.805,9.943 c0.00-2.838, 2.30-5.14, 5.138-5.14c 2.839,0.00, 5.369,2.53, 5.369,5.369s-2.30,5.14-5.14,5.14S 628.805,12.782, 628.805,9.943zM 692.142,12.00c0.00-1.258, 0.774-2.25, 1.938-2.932c-0.211-0.701-0.487-1.374-0.829-2.006c-1.308,0.342-2.365-0.17-3.253-1.058 c-0.89-0.889-1.163-1.948-0.821-3.253c-0.632-0.342-1.303-0.622-2.006-0.83C 686.489,3.085, 685.256,3.859, 684.00,3.859 c-1.256,0.00-2.488-0.774-3.17-1.939C 680.126,2.129, 679.456,2.408, 678.823,2.749C 679.164,4.056, 678.893,5.114, 678.004,6.004 C 677.114,6.892, 676.056,7.404, 674.75,7.063C 674.408,7.694, 674.13,8.368, 673.92,9.068C 675.085,9.75, 675.859,10.742, 675.859,12.00 c0.00,1.256-0.774,2.489-1.939,3.172c 0.21,0.702, 0.488,1.374, 0.83,2.006c 1.307-0.342, 2.364-0.07, 3.253,0.82 c 0.889,0.889, 1.16,1.946, 0.82,3.253c 0.632,0.342, 1.304,0.622, 2.006,0.83c 0.683-1.166, 1.914-1.939, 3.17-1.939 c 1.256,0.00, 2.49,0.774, 3.172,1.939c 0.703-0.21, 1.374-0.488, 2.006-0.83c-0.342-1.307-0.071-2.364, 0.821-3.253 c 0.888-0.888, 1.945-1.40, 3.253-1.06c 0.342-0.632, 0.619-1.304, 0.829-2.006C 692.916,14.249, 692.142,13.256, 692.142,12.00z M 684.00,16.384 c-2.42,0.00-4.382-1.963-4.382-4.384S 681.58,7.616, 684.00,7.616c 2.422,0.00, 4.384,1.963, 4.384,4.384S 686.422,16.384, 684.00,16.384zM 732.00,9.60c-1.987,0.00-3.60,1.613-3.60,3.60c0.00,1.988, 1.613,3.60, 3.60,3.60c 1.988,0.00, 3.60-1.612, 3.60-3.60C 735.60,11.213, 733.988,9.60, 732.00,9.60z M 741.60,6.00l-2.879,0.00 c-0.396,0.00-0.823-0.307-0.948-0.683l-0.744-2.233C 736.902,2.707, 736.476,2.40, 736.08,2.40L 727.92,2.40 C 727.524,2.40, 727.097,2.707, 726.973,3.083L 726.227,5.317 C 726.102,5.693, 725.676,6.00, 725.28,6.00L 722.40,6.00 C 721.08,6.00, 720.00,7.08, 720.00,8.40l0.00,10.80 c0.00,1.32, 1.08,2.40, 2.40,2.40l 19.20,0.00 c 1.321,0.00, 2.40-1.08, 2.40-2.40L 744.00,8.40 C 744.00,7.08, 742.921,6.00, 741.60,6.00z M 732.00,19.20 c-3.314,0.00-6.00-2.686-6.00-6.00c0.00-3.313, 2.686-6.00, 6.00-6.00c 3.313,0.00, 6.00,2.687, 6.00,6.00C 738.00,16.514, 735.313,19.20, 732.00,19.20z M 740.76,10.078 c-0.463,0.00-0.839-0.376-0.839-0.84s 0.376-0.84, 0.839-0.84c 0.464,0.00, 0.84,0.376, 0.84,0.84S 741.224,10.078, 740.76,10.078zM 7.332,51.275l0.00,14.24c-0.775-0.162-1.678-0.101-2.573,0.23c-2.012,0.748-2.723,2.568-2.189,4.063 c 0.533,1.496, 2.108,2.101, 4.121,1.354c 1.709-0.635, 2.828-2.041, 2.80-3.368c0.00,0.00,0.00-7.552,0.00-11.764l 8.521-1.952l0.00,9.036 c-0.775-0.162-1.678-0.101-2.573,0.23c-2.014,0.748-2.724,2.568-2.19,4.063c 0.534,1.496, 2.108,2.101, 4.122,1.354 c 1.71-0.635, 2.827-2.041, 2.801-3.368L 20.172,48.516 L 7.332,51.275zM 60.00,53.28C 52.127,53.28, 48.00,59.08, 48.00,60.00s 4.127,6.72, 12.00,6.72s 12.00-5.80, 12.00-6.72S 67.873,53.28, 60.00,53.28z M 60.00,65.17 c-2.945,0.00-5.333-2.315-5.333-5.17S 57.055,54.83, 60.00,54.83c 2.946,0.00, 5.334,2.315, 5.334,5.17S 62.946,65.17, 60.00,65.17z M 60.00,60.00 c-0.487-0.535, 0.797-2.584,0.00-2.584c-1.472,0.00-2.666,1.157-2.666,2.584S 58.528,62.585, 60.00,62.585c 1.474,0.00, 2.668-1.158, 2.668-2.585 C 62.668,59.345, 60.416,60.456, 60.00,60.00zM 116.40,51.60l-1.08,0.00 l0.00,2.40 L 111.48,54.00 L 111.48,51.60 L 104.52,51.60 l0.00,2.40 L 100.68,54.00 L 100.68,51.60 L 99.60,51.60 C 98.28,51.60, 97.20,52.68, 97.20,54.00l0.00,14.40 c0.00,1.32, 1.08,2.40, 2.40,2.40l 16.80,0.00 c 1.32,0.00, 2.40-1.08, 2.40-2.40L 118.80,54.00 C 118.80,52.68, 117.72,51.60, 116.40,51.60z M 116.40,68.40L 99.60,68.40 L 99.60,58.80 l 16.80,0.00 L 116.40,68.40 z M 103.44,49.20L 101.76,49.20 l0.00,4.08 l 1.68,0.00 L 103.44,49.20 z M 114.24,49.20l-1.68,0.00 l0.00,4.08 l 1.68,0.00 L 114.24,49.20 zM 157.225,68.40L 147.576,68.40 L 147.576,51.60 l 9.648,0.00 l0.00,3.60 L 159.60,55.20 L 159.60,51.60 c0.00-1.32-1.079-2.40-2.40-2.40L 147.60,49.20 C 146.28,49.20, 145.20,50.28, 145.20,51.60l0.00,16.80 c0.00,1.32, 1.08,2.40, 2.40,2.40l 9.60,0.00 c 1.321,0.00, 2.40-1.08, 2.40-2.40l0.00-2.40 l-2.375,0.00 L 157.225,68.40 z M 166.80,60.60l-4.775-4.68L 162.025,58.80 l-10.80,0.00 l0.00,3.60 l 10.80,0.00 l0.00,2.88 L 166.80,60.60zM 212.40,49.20L 201.60,49.20 C 200.28,49.20, 199.224,50.28, 199.224,51.60l0.00,3.60 L 201.60,55.20 L 201.60,51.60 l 10.80,0.00 l0.00,16.80 L 201.60,68.40 l0.00-2.40 L 199.224,66.00 l0.00,2.40 c0.00,1.32, 1.056,2.40, 2.376,2.40l 10.80,0.00 c 1.32,0.00, 2.40-1.08, 2.40-2.40L 214.80,51.60 C 214.80,50.28, 213.72,49.20, 212.40,49.20z M 204.00,65.28l 4.80-4.68l-4.80-4.68L 204.00,58.80 L 193.20,58.80 l0.00,3.60 l 10.80,0.00 L 204.00,65.28 zM 249.954,68.40c-0.522,0.00-1.016-0.244-1.333-0.664L 244.332,62.075c-0.558-0.737-0.413-1.786, 0.324-2.344 c 0.738-0.559, 1.786-0.413, 2.344,0.324l 2.821,3.725l 7.094-11.389c 0.488-0.784, 1.52-1.024, 2.305-0.535 c 0.784,0.487, 1.024,1.52, 0.534,2.304L 251.375,67.612c-0.292,0.469-0.794,0.763-1.345,0.787C 250.004,68.40, 249.979,68.40, 249.954,68.40zM 305.219,63.782L 301.909,60.00l 3.31-3.782c 0.563-0.563, 0.563-1.475,0.00-2.036c-0.563-0.562-1.475-0.562-2.036,0.00L 300.00,57.818 l-3.181-3.636c-0.563-0.563-1.475-0.563-2.036,0.00c-0.562,0.563-0.562,1.475,0.00,2.036L 298.091,60.00l-3.31,3.782 c-0.562,0.563-0.562,1.472,0.00,2.034c 0.563,0.563, 1.475,0.563, 2.036,0.00L 300.00,62.182l 3.181,3.635c 0.563,0.563, 1.475,0.563, 2.036,0.00 S 305.78,64.345, 305.219,63.782zM 348.00,48.48c-6.362,0.00-11.52,5.158-11.52,11.52s 5.158,11.52, 11.52,11.52c 6.364,0.00, 11.52-5.158, 11.52-11.52S 354.364,48.48, 348.00,48.48z M 354.199,53.803 l-0.002-0.002C 354.197,53.802, 354.199,53.803, 354.199,53.803z M 339.235,60.00c0.00-4.841, 3.924-8.765, 8.765-8.765c 2.105,0.00, 4.037,0.742, 5.549,1.978 L 341.214,65.546C 339.977,64.036, 339.235,62.105, 339.235,60.00z M 341.801,66.197l 0.002,0.002C 341.802,66.198, 341.802,66.198, 341.801,66.197z M 348.00,68.766 c-2.105,0.00-4.036-0.743-5.546-1.979L 354.785,54.454c 1.237,1.511, 1.98,3.442, 1.98,5.546C 356.766,64.841, 352.84,68.766, 348.00,68.766zM 395.852,48.961c-6.096,0.082-10.973,5.09-10.891,11.188c 0.082,6.094, 5.09,10.972, 11.186,10.89 c 6.096-0.082, 10.973-5.09, 10.891-11.188C 406.958,53.756, 401.948,48.88, 395.852,48.961z M 397.076,52.64c 1.122,0.00, 1.453,0.65, 1.453,1.396 c0.00,0.93-0.745,1.79-2.016,1.79c-1.063,0.00-1.568-0.535-1.538-1.418C 394.975,53.663, 395.599,52.64, 397.076,52.64z M 394.199,66.90 c-0.767,0.00-1.328-0.466-0.792-2.513l 0.88-3.629c 0.152-0.582, 0.178-0.815,0.00-0.815c-0.229,0.00-1.225,0.402-1.814,0.798l-0.383-0.628 c 1.866-1.558, 4.012-2.472, 4.931-2.472c 0.767,0.00, 0.894,0.907, 0.511,2.303l-1.008,3.816c-0.178,0.674-0.101,0.907, 0.077,0.907 c 0.229,0.00, 0.984-0.278, 1.726-0.862l 0.433,0.582C 396.946,66.202, 394.967,66.90, 394.199,66.90zM 443.854,48.961c-6.097,0.082-10.974,5.09-10.892,11.188c 0.082,6.094, 5.09,10.972, 11.188,10.89 c 6.095-0.082, 10.973-5.09, 10.89-11.188C 454.958,53.756, 449.95,48.88, 443.854,48.961z M 443.821,66.72L 443.76,66.72 c-0.938-0.028-1.601-0.72-1.574-1.645 c 0.026-0.908, 0.704-1.57, 1.613-1.57l 0.055,0.001c 0.965,0.029, 1.62,0.714, 1.591,1.666C 445.418,66.083, 444.75,66.72, 443.821,66.72z M 447.77,58.882c-0.222,0.313-0.707,0.703-1.319,1.18l-0.674,0.466c-0.37,0.288-0.593,0.558-0.676,0.823 c-0.067,0.211-0.098,0.265-0.104,0.691l-0.001,0.109L 442.424,62.15 l 0.007-0.218c 0.031-0.895, 0.054-1.421, 0.425-1.856 c 0.582-0.683, 1.866-1.51, 1.92-1.544c 0.184-0.139, 0.338-0.296, 0.455-0.464c 0.27-0.372, 0.389-0.666, 0.389-0.953 c0.00-0.40-0.119-0.769-0.353-1.098c-0.226-0.318-0.654-0.479-1.273-0.479c-0.614,0.00-1.034,0.196-1.286,0.595 C 442.447,56.544, 442.318,56.975, 442.318,57.416l0.00,0.11 l-2.652,0.00 l 0.005-0.115c 0.068-1.625, 0.648-2.794, 1.723-3.476C 442.068,53.50, 442.908,53.28, 443.887,53.28 c 1.283,0.00, 2.368,0.312, 3.22,0.926c 0.864,0.623, 1.302,1.556, 1.302,2.773C 448.409,57.661, 448.194,58.301, 447.77,58.882zM 503.414,69.578L 492.725,50.821C 492.577,50.562, 492.30,50.402, 492.00,50.402c-0.30,0.00-0.576,0.16-0.725,0.419L 480.587,69.578 c-0.145,0.254-0.143,0.565, 0.006,0.817s 0.422,0.407, 0.718,0.407l 21.378,0.00 c 0.293,0.00, 0.568-0.155, 0.718-0.407 C 503.555,70.144, 503.557,69.833, 503.414,69.578z M 493.32,68.402L 490.68,68.402 l0.00-2.40 l 2.64,0.00 L 493.32,68.402 z M 493.32,64.202L 490.68,64.202 l0.00-7.20 l 2.64,0.00 L 493.32,64.202 zM 536.40,58.80L 529.20,58.80 c-0.662,0.00-1.20,0.538-1.20,1.20s 0.538,1.20, 1.20,1.20l 7.20,0.00 c 0.662,0.00, 1.20-0.538, 1.20-1.20S 537.062,58.80, 536.40,58.80z M 536.40,63.60L 529.20,63.60 c-0.662,0.00-1.20,0.536-1.20,1.20s 0.538,1.20, 1.20,1.20l 7.20,0.00 c 0.662,0.00, 1.20-0.536, 1.20-1.20S 537.062,63.60, 536.40,63.60z M 551.28,58.80L 547.20,58.80 L 547.20,54.72 C 547.20,54.058, 546.664,54.00, 546.00,54.00s-1.20,0.058-1.20,0.72L 544.80,58.80 l-3.96,0.00 C 540.176,58.80, 540.12,59.338, 540.12,60.00 s 0.058,1.20, 0.721,1.20L 544.80,61.20 l0.00,4.08 c0.00,0.662, 0.536,0.72, 1.20,0.72s 1.20-0.058, 1.20-0.72L 547.20,61.20 l 4.08,0.00 c 0.662,0.00, 0.72-0.538, 0.72-1.20S 551.942,58.80, 551.28,58.80z M 536.40,54.00L 529.20,54.00 C 528.538,54.00, 528.00,54.538, 528.00,55.20s 0.538,1.20, 1.20,1.20l 7.20,0.00 c 0.662,0.00, 1.20-0.538, 1.20-1.20S 537.062,54.00, 536.40,54.00zM 595.20,58.80L 580.80,58.80 c-0.662,0.00-1.20,0.538-1.20,1.20s 0.538,1.20, 1.20,1.20l 14.40,0.00 c 0.664,0.00, 1.20-0.538, 1.20-1.20S 595.864,58.80, 595.20,58.80z M 580.80,56.40l 14.40,0.00 c 0.664,0.00, 1.20-0.538, 1.20-1.20 s-0.536-1.20-1.20-1.20L 580.80,54.00 C 580.138,54.00, 579.60,54.538, 579.60,55.20S 580.138,56.40, 580.80,56.40z M 595.20,63.60L 580.80,63.60 c-0.662,0.00-1.20,0.536-1.20,1.20s 0.538,1.20, 1.20,1.20l 14.40,0.00 c 0.664,0.00, 1.20-0.536, 1.20-1.20 S 595.864,63.60, 595.20,63.60zM 632.668,61.044l 6.72,0.00 l0.00-2.16 l-6.72,0.00 L 632.668,61.044 z M 642.00,49.20L 630.00,49.20 C 628.68,49.20, 627.60,50.28, 627.60,51.60l0.00,16.80 c0.00,1.32, 1.08,2.40, 2.40,2.40l 12.00,0.00 c 1.32,0.00, 2.40-1.08, 2.40-2.40L 644.40,51.60 C 644.40,50.28, 643.32,49.20, 642.00,49.20z M 642.00,68.40L 630.00,68.40 L 630.00,51.60 l 12.00,0.00 L 642.00,68.40 z M 639.36,54.203L 632.64,54.203 l0.00,2.10 l 6.72,0.00 L 639.36,54.203 z M 639.36,63.624L 632.64,63.624 l0.00,2.10 l 6.72,0.00 L 639.36,63.624 zM 692.55,56.608l-2.455-6.763c-0.181-0.499-0.714-0.763-1.187-0.59L 672.592,55.21C 672.118,55.381 671.879,55.926, 672.06,56.425 l 2.588,7.13L 674.648,59.734 c0.00-1.724, 1.378-3.126, 3.073-3.126l 4.312,0.00 l 5.142-3.61l 2.976,3.61L 692.55,56.608 z M 695.086,58.772L 677.722,58.772 c-0.504,0.00-0.914,0.431-0.914,0.962l0.00,11.305 c0.00,0.53, 0.409,0.962, 0.914,0.962l 17.364,0.00 c 0.505,0.00, 0.914-0.431, 0.914-0.962L 696.00,59.734 C 696.00,59.203, 695.591,58.772, 695.086,58.772z M 693.761,69.596L 679.367,69.596 l0.00-2.063 l 2.214-5.154l 3.323,4.124l 3.116-3.194l 4.007-1.446l 1.734,3.866 L 693.761,69.596 zM 738.206,50.40L 724.80,50.40 C 723.48,50.40, 722.40,51.48, 722.40,52.80l0.00,14.40 c0.00,1.32, 1.08,2.40, 2.40,2.40l 14.40,0.00 c 1.32,0.00, 2.40-1.08, 2.40-2.40L 741.60,54.152 L 738.206,50.40z M 736.80,57.60c0.00,0.66-0.54,1.20-1.20,1.20L 728.40,58.80 C 727.74,58.80, 727.20,58.26, 727.20,57.60L 727.20,51.60 l 9.60,0.00 L 736.80,57.60 z M 735.60,52.80l-2.40,0.00 l0.00,4.80 l 2.40,0.00 L 735.60,52.80 zM 23.04,101.152c-0.814,0.361-1.686,0.604-2.603,0.714c 0.936-0.56, 1.655-1.448, 1.992-2.506c-0.875,0.518-1.844,0.896-2.875,1.099 c-0.827-0.881-2.004-1.43-3.307-1.43c-2.502,0.00-4.53,2.028-4.53,4.529c0.00,0.355, 0.04,0.701, 0.118,1.032 c-3.764-0.188-7.103-1.992-9.336-4.733C 2.107,100.525, 1.883,101.304, 1.883,102.134c0.00,1.572, 0.80,2.958, 2.016,3.77 c-0.743-0.024-1.441-0.227-2.052-0.566c0.00,0.019,0.00,0.037,0.00,0.056c0.00,2.195, 1.562,4.025, 3.634,4.442c-0.379,0.103-0.78,0.158-1.194,0.158 c-0.292,0.00-0.575-0.028-0.852-0.08c 0.576,1.80, 2.25,3.109, 4.231,3.145c-1.55,1.216-3.503,1.939-5.626,1.939 c-0.366,0.00-0.726-0.022-1.08-0.064c 2.004,1.285, 4.385,2.035, 6.944,2.035c 8.332,0.00, 12.888-6.902, 12.888-12.889 c0.00-0.196-0.004-0.391-0.013-0.586C 21.665,102.858, 22.432,102.06, 23.04,101.152zM 67.74,97.68L 52.26,97.68 C 50.842,97.68, 49.68,98.842, 49.68,100.26l0.00,15.48 c0.00,1.42, 1.162,2.579, 2.579,2.579l 7.829,0.00 l0.00-7.40 l-2.472,0.00 L 57.616,107.695 l 2.472,0.00 L 60.088,106.08 c0.00-2.49, 1.838-4.44, 4.186-4.44l 2.278,0.00 l0.00,3.641 l-2.039,0.00 c-0.533,0.00-0.689,0.306-0.689,0.728l0.00,1.685 l 2.728,0.00 l0.00,3.224 l-2.728,0.00 L 63.823,118.32 l 3.916,0.00 c 1.42,0.00, 2.579-1.16, 2.579-2.579L 70.318,100.26 C 70.32,98.842, 69.16,97.68, 67.74,97.68z"></path></svg>