<?xml version="1.0" encoding="utf-8"?> <!-- Generator: IcoMoon.io --> <!DOCTYPE svg PUBLIC "-//W3C//DTD SVG 1.1//EN" "http://www.w3.org/Graphics/SVG/1.1/DTD/svg11.dtd"> <svg width="168" height="24" viewBox="0 0 168 24" fill="#555555" xmlns="http://www.w3.org/2000/svg" xmlns:xlink="http://www.w3.org/1999/xlink"><path d="M 12.00,24.00C 5.373,24.00,0.00,18.627,0.00,12.00S 5.373,0.00, 12.00,0.00s 12.00,5.373, 12.00,12.00 S 18.627,24.00, 12.00,24.00z M 12.00,3.00C 7.03,3.00, 3.00,7.03, 3.00,12.00s 4.03,9.00, 9.00,9.00s 9.00-4.03, 9.00-9.00S 16.97,3.00, 12.00,3.00z M 16.411,17.41l-0.264,0.154l-0.762,0.464l-0.45,0.327c-0.334,0.16-0.683,0.286-1.043,0.393L 13.893,18.305 l-0.127-1.018 c0.00,0.00-0.063-0.587-0.158-0.741c-0.095-0.155-0.318-0.372-0.541-0.464s-0.381-0.092-0.508-0.246c-0.127-0.155-0.223-0.434-0.381-0.68 c-0.16-0.248-0.35-0.495-0.35-0.618s0.00-1.39,0.00-1.39l 0.16-1.173l 0.349-0.248l 0.413-0.463l 0.286-0.092l 0.984,0.185l 0.699,0.00 l 0.287,0.587l 0.667,0.524l 0.413,0.649l 0.539,0.185L 17.227,13.301 l 0.413,0.495l 0.255,0.524l 0.095,0.371l0.00,0.618 l-0.066,0.365 C 17.521,16.334, 17.01,16.916, 16.411,17.41z M 13.956,6.753l-0.699,0.371l-0.253,0.71l-0.413,0.371l-1.367,0.00 l-0.634,0.248l-0.032,0.494l-0.253,0.401l-0.064,0.434l 0.127,0.371l 0.158,0.371c0.00,0.00, 0.382,0.432,0.00,0.741 c0.00,0.00-0.476,0.00-0.571-0.155c-0.095-0.154-0.794-0.586-0.921-0.71c-0.126-0.123-0.539-0.246-0.539-0.246l-0.508-0.186l-0.476-0.031 l 0.031-0.649l-0.031-0.555l-0.192-0.401l-0.539-0.403l-0.032-0.432l 0.066-0.24c 1.286-1.244, 3.059-2.014, 5.016-2.014 c 1.104,0.00, 2.137,0.265, 3.07,0.702l-0.021,0.163L 13.956,6.753zM 66.00,15.60c-0.826,0.00-1.582,0.28-2.189,0.746l-6.263-3.757C 57.578,12.397, 57.60,12.20, 57.60,12.00c0.00-0.202-0.022-0.397-0.052-0.589 l 6.263-3.757C 64.418,8.12, 65.174,8.40, 66.00,8.40c 1.987,0.00, 3.60-1.612, 3.60-3.60s-1.613-3.60-3.60-3.60s-3.60,1.612-3.60,3.60c0.00,0.20, 0.022,0.397, 0.053,0.589 L 56.19,9.148C 55.583,8.68, 54.826,8.40, 54.00,8.40c-1.988,0.00-3.60,1.612-3.60,3.60c0.00,1.987, 1.612,3.60, 3.60,3.60c 0.826,0.00, 1.583-0.28, 2.19-0.746l 6.263,3.757 C 62.422,18.803, 62.40,18.998, 62.40,19.20c0.00,1.987, 1.613,3.60, 3.60,3.60s 3.60-1.613, 3.60-3.60S 67.987,15.60, 66.00,15.60zM 118.524,12.36l-9.629-9.637c-0.492-0.511-1.297-0.511-1.789,0.00L 97.476,12.36c-0.493,0.51-0.31,0.929, 0.408,0.929l 2.008,0.00 l0.00,7.402 c0.00,0.534, 0.023,0.971, 0.989,0.971l 4.674,0.00 l0.00-7.426 l 4.89,0.00 l0.00,7.426 l 4.907,0.00 c 0.737,0.00, 0.757-0.436, 0.757-0.971l0.00-7.402 l 2.006,0.00 C 118.831,13.289, 119.016,12.871, 118.524,12.36zM 165.054,18.562l-4.535-4.535c 0.684-1.124, 1.078-2.442, 1.078-3.854c0.00-4.099-3.553-7.652-7.654-7.652 C 149.844,2.52, 146.52,5.844, 146.52,9.943c0.00,4.10, 3.552,7.654, 7.652,7.654c 1.363,0.00, 2.64-0.37, 3.738-1.012l 4.559,4.56 c 0.448,0.446, 1.17,0.446, 1.615,0.00l 1.132-1.13C 165.661,19.568, 165.499,19.007, 165.054,18.562z M 148.805,9.943 c0.00-2.838, 2.30-5.14, 5.138-5.14c 2.839,0.00, 5.369,2.53, 5.369,5.369s-2.30,5.14-5.14,5.14S 148.805,12.782, 148.805,9.943z"></path></svg>